<?xml version="1.0" encoding="utf-8"?>
<!-- Generator: Adobe Illustrator 24.2.2, SVG Export Plug-In . SVG Version: 6.00 Build 0)  -->
<svg version="1.1" id="Isolation_Mode" xmlns="http://www.w3.org/2000/svg" xmlns:xlink="http://www.w3.org/1999/xlink" x="0px"
	 y="0px" viewBox="0 0 372.5 365.8" style="enable-background:new 0 0 372.5 365.8;" xml:space="preserve">
<g>
	<path d="M28,79.4c9.5,0,17.3-7.8,17.3-17.3S37.5,44.8,28,44.8c-9.5,0-17.3,7.8-17.3,17.3S18.5,79.4,28,79.4z M28,56.3
		c3.2,0,5.8,2.6,5.8,5.8c0,3.2-2.6,5.8-5.8,5.8c-3.2,0-5.8-2.6-5.8-5.8C22.2,58.9,24.8,56.3,28,56.3z"/>
	<path d="M281.4,250.2v2h11.5v-2c0-17.9,14.6-32.5,32.5-32.5h2v-11.5h-2c-17.9,0-32.5-14.6-32.5-32.5v-2h-11.5v2
		c0,17.9-14.6,32.5-32.5,32.5h-2v11.5h2C266.8,217.6,281.4,232.2,281.4,250.2z M287.2,195.3c3.9,6.9,9.7,12.6,16.5,16.5
		c-6.9,3.9-12.6,9.7-16.5,16.5c-3.9-6.9-9.7-12.6-16.5-16.5C277.5,207.9,283.3,202.2,287.2,195.3z"/>
	<path d="M327.5,85.1h-80.6V50.6c0-15.9-12.9-28.8-28.8-28.8H172c-15.9,0-28.8,12.9-28.8,28.8v34.6h-22.9L91,8.2l-10.8,4.1L108,85.1
		H62.6c-15.9,0-28.8,12.9-28.8,28.8v158.9L6.6,299.9l8.1,8.1l30.5-30.5l66.7,66.7l-7.4,7.4l8.1,8.1l38.6-38.6l-5.8-5.8h55.6
		c2.8,22.7,22.3,40.3,45.7,40.3h23c23.5,0,42.9-17.6,45.7-40.3h11.9c15.9,0,28.8-12.9,28.8-28.8V113.9
		C356.3,98.1,343.4,85.1,327.5,85.1z M154.7,50.6c0-9.5,7.8-17.3,17.3-17.3h46.1c9.5,0,17.3,7.8,17.3,17.3v34.6h-80.6V50.6z
		 M45.3,113.9c0-9.5,7.8-17.3,17.3-17.3h49.8l12.6,33.1l-13,13H45.3V113.9z M211.1,193.4l-11.5,11.5l-17.3,17.3
		c-2.5,2.5-6.6,2.5-9.1,0c-1.2-1.2-1.9-2.8-1.9-4.6c0-1.7,0.7-3.3,1.9-4.6l11.5-11.5l17.3-17.3c2.5-2.5,6.6-2.5,9.1,0
		c1.2,1.2,1.9,2.8,1.9,4.6S212.3,192.2,211.1,193.4z M216.9,213c1.2,1.2,1.9,2.8,1.9,4.6c0,1.7-0.7,3.3-1.9,4.6L191,248.1l-2.9,2.9
		c-2.5,2.5-6.6,2.5-9.1,0c-1.2-1.2-1.9-2.8-1.9-4.6c0-1.7,0.7-3.3,1.9-4.6l11.5-11.5l17.3-17.3C210.3,210.5,214.4,210.5,216.9,213z
		 M205.4,164.6l-11.5,11.5l-17.3,17.3c-2.5,2.5-6.6,2.5-9.1,0c-1.2-1.2-1.9-2.8-1.9-4.6s0.7-3.3,1.9-4.6l11.5-11.5l17.3-17.3
		c2.5-2.5,6.6-2.5,9.1,0c1.2,1.2,1.9,2.8,1.9,4.6C207.2,161.7,206.6,163.4,205.4,164.6z M199.6,135.8l-11.5,11.5l-17.3,17.3
		c-2.5,2.5-6.6,2.5-9.1,0c-1.2-1.2-1.9-2.8-1.9-4.6c0-1.7,0.7-3.3,1.9-4.6l28.8-28.8c2.5-2.5,6.6-2.5,9.1,0c1.2,1.2,1.9,2.8,1.9,4.6
		C201.5,132.9,200.8,134.6,199.6,135.8z M162.2,138.7l-8.6,8.6L130,170.8c-3.3,3.3-5.1,7.6-5.1,12.2c0,4.6,1.8,9,5.1,12.2
		c4.8,4.8,7.4,11.2,7.4,18v27.4H149v-27.4c0-9.9-3.8-19.1-10.8-26.1c-2.2-2.2-2.2-5.9,0-8.1l11.7-11.7c0.9,2,2.1,3.8,3.7,5.4
		c1.6,1.6,3.5,2.8,5.4,3.7c-3.2,3.4-4.9,7.7-4.9,12.4c0,4.8,1.9,9.3,5.3,12.7c1.6,1.6,3.5,2.8,5.4,3.7c-3.2,3.4-4.9,7.7-4.9,12.4
		c0,4.8,1.9,9.3,5.3,12.7c1.6,1.6,3.5,2.8,5.4,3.7c-3.2,3.4-4.9,7.7-4.9,12.4c0,4.8,1.9,9.3,5.3,12.7c1.6,1.6,3.5,2.8,5.4,3.7
		l-16.4,16.4c-1.1,1.1-2.5,1.7-4.1,1.7H148c-4.6,0-9,1.8-12.2,5.1l-9.8,9.8L85.1,255l12.7-12.7c3.3-3.3,5.1-7.6,5.1-12.2v-59.6
		c0-1.5,0.6-3,1.7-4.1l42.7-42.7c2-2,4.6-3.1,7.4-3.1c2.8,0,5.5,1.1,7.4,3.1C166.3,127.9,166.3,134.6,162.2,138.7z M45.3,154.3h55.2
		l-4.1,4.1c-3.3,3.3-5.1,7.6-5.1,12.2v59.6c0,1.5-0.6,3-1.7,4.1L77,246.9l-8.6-8.6l-23,23V154.3z M120.2,336.2l-66.7-66.7l14.9-14.9
		l66.7,66.7L120.2,336.2z M246.9,344.3c-19.1,0-34.6-15.5-34.6-34.6c0-19.1,15.5-34.6,34.6-34.6c19.1,0,34.6,15.5,34.6,34.6
		C281.4,328.8,265.9,344.3,246.9,344.3z M278.5,276.3c9.1,2.3,16.7,8.3,21.3,16.2h-10.2C287.1,286.3,283.3,280.8,278.5,276.3z
		 M278.5,343.3c4.8-4.5,8.6-10,11.1-16.2h10.2C295.2,335,287.6,340.9,278.5,343.3z M304,315.5h-11.4c0.2-1.9,0.4-3.8,0.4-5.8
		c0-2-0.1-3.9-0.4-5.8H304c0.3,1.9,0.5,3.8,0.5,5.8C304.5,311.7,304.3,313.7,304,315.5z M344.8,286.7c0,9.5-7.8,17.3-17.3,17.3
		h-11.9c-2.8-22.7-22.2-40.3-45.7-40.3h-23c-23.5,0-42.9,17.6-45.7,40.3h-67.1l9.8-9.8c1.1-1.1,2.5-1.7,4.1-1.7h7.7
		c4.6,0,9-1.8,12.2-5.1l28.3-28.3l2.9-2.9l25.9-25.9c3.4-3.4,5.3-7.9,5.3-12.7c0-4.8-1.9-9.3-5.3-12.7c-1.6-1.6-3.5-2.8-5.4-3.7
		c3.2-3.4,4.9-7.7,4.9-12.4c0-4.8-1.9-9.3-5.3-12.7c-1.6-1.6-3.5-2.8-5.4-3.7c3.2-3.4,4.9-7.7,4.9-12.4c0-2-0.3-3.9-0.9-5.8h127
		V286.7z M344.8,142.7h-136c2.7-3.2,4.2-7.3,4.2-11.5c0-4.8-1.9-9.3-5.3-12.7c-7-7-18.4-7-25.4,0l-6.5,6.5c-1-3.4-2.9-6.6-5.5-9.3
		c-4.2-4.2-9.7-6.5-15.6-6.5c-5.9,0-11.4,2.3-15.6,6.5l-5.2,5.2l-9.2-24.2h202.8c9.5,0,17.3,7.8,17.3,17.3V142.7z"/>
	<polygon points="285.5,66.2 298.7,53 311.9,66.2 320.1,58 306.9,44.8 320.1,31.6 311.9,23.5 298.7,36.7 285.5,23.5 277.4,31.6 
		290.6,44.8 277.4,58 	"/>
	<rect x="51" y="10.3" width="17.3" height="11.5"/>
	<rect x="60.2" y="33.3" transform="matrix(0.7071 -0.7071 0.7071 0.7071 -7.6062 59.7431)" width="16.3" height="11.5"/>
	<rect x="108.6" y="10.3" width="17.3" height="11.5"/>
	<rect x="114.4" y="30.9" transform="matrix(0.7071 -0.7071 0.7071 0.7071 7.5772 96.3992)" width="11.5" height="16.3"/>
</g>
</svg>
