<?xml version="1.0" encoding="utf-8"?>
<!-- Generator: Adobe Illustrator 24.2.0, SVG Export Plug-In . SVG Version: 6.00 Build 0)  -->
<svg version="1.1" id="Layer_1" xmlns="http://www.w3.org/2000/svg" xmlns:xlink="http://www.w3.org/1999/xlink" x="0px" y="0px"
	 viewBox="0 0 512 512" style="enable-background:new 0 0 512 512;" xml:space="preserve">
<path d="M64.6,132.3c-2.3-0.8-4.8-0.5-6.8,1c-2,1.4-3.2,3.7-3.2,6.1v42.9c0,4.1,3.4,7.5,7.5,7.5s7.5-3.4,7.5-7.5V150l38.6,13.6v76.2
	H69.6v-27.5c0-4.1-3.4-7.5-7.5-7.5s-7.5,3.4-7.5,7.5v35c0,4.1,3.4,7.5,7.5,7.5h158.1c4.1,0,7.5-3.4,7.5-7.5v-52.2c0-3.2-2-6-5-7.1
	L64.6,132.3z M123.2,168.9l35.9,12.7v58.3h-35.9V168.9z M212.7,239.8h-38.6v-53l38.6,13.6V239.8z"/>
<path d="M351.6,346.9h-29.3c-12.3,0-22.4,10-22.4,22.4v29.3c0,12.3,10,22.4,22.4,22.4h29.3c12.3,0,22.4-10,22.4-22.4v-29.3
	C374,356.9,364,346.9,351.6,346.9z M359,398.5c0,4.1-3.3,7.4-7.4,7.4h-29.3c-4.1,0-7.4-3.3-7.4-7.4v-29.3c0-4.1,3.3-7.4,7.4-7.4
	h29.3c4.1,0,7.4,3.3,7.4,7.4V398.5z"/>
<path d="M449.6,346.9h-29.3c-12.3,0-22.4,10-22.4,22.4v29.3c0,12.3,10,22.4,22.4,22.4h29.3c12.3,0,22.4-10,22.4-22.4v-29.3
	C472,356.9,462,346.9,449.6,346.9z M457,398.5c0,4.1-3.3,7.4-7.4,7.4h-29.3c-4.1,0-7.4-3.3-7.4-7.4v-29.3c0-4.1,3.3-7.4,7.4-7.4
	h29.3c4.1,0,7.4,3.3,7.4,7.4V398.5z"/>
<path d="M128.2,328.6c-4.3,3.4-8.4,7.1-12.3,11c0,0-40,40-40,40c-17.6,17.6-27.9,41.8-28.3,66.7H15V446H0v57.7
	c0,4.1,3.4,7.5,7.5,7.5h497c4.1,0,7.5-3.4,7.5-7.5V297H208.7c-13.8,1-27.3,4-40.3,8.9c-8.8,3.3-17.2,7.4-25.2,12.2 M86.4,390.3
	C86.4,390.3,86.4,390.2,86.4,390.3c0.1-0.1,42.4-42.4,43.7-43.6c9.9-9.1,21.2-16.8,33.4-22.5v34.4c0,25.1-20.5,45.6-45.6,45.6H75.2
	C78.4,399.2,82.2,394.5,86.4,390.3z M497,446.3h-88.9c-4.1,0-7.5,3.4-7.5,7.5c0,4.1,3.4,7.5,7.5,7.5H497v35H15v-35l363.1,0
	c4.1,0,7.5-3.4,7.5-7.5s-3.4-7.5-7.5-7.5H280v-71.6c0-15.3-12.5-27.8-27.8-27.8h-26.4c-15.3,0-27.8,12.5-27.8,27.8v71.6H62.5
	c0-0.5,0-1.1,0-1.6c0.4-8.7,2.1-17.3,5.2-25.4h50.1c33.4,0,60.6-27.2,60.6-60.6v-40.4c0.1,0,0.2-0.1,0.2-0.1
	c12.7-4.2,26.1-6.4,39.4-6.5c0.5,0,278.8,0,278.8,0V446.3z M213,446.3v-71.6c0-7.1,5.7-12.8,12.8-12.8h26.4
	c7.1,0,12.8,5.7,12.8,12.8v71.6H213z"/>
<g>
	<path d="M243.4,175.1l9.3,3.6v123.7h15v-14.2h202.6c3.8,0,6.9,3.1,6.9,6.9v7.4h15V295c0-12.1-9.8-21.9-21.9-21.9h-29.8
		c0-0.1-21-247.6-21-248c-0.5-6.3-5.9-11.2-12.2-11.2h-39.8c-6.4,0-11.6,4.8-12.2,11.2c-24.4,287.8,0.5-5.7-14.8,174.4h-72.7v-25.9
		c0-3.1-1.9-5.9-4.8-7l-14.1-5.5c-3.9-1.5-8.2,0.4-9.7,4.3C237.6,169.3,239.5,173.6,243.4,175.1z M369.9,28.9h34.8l4.2,49.8h-43.2
		L369.9,28.9z M364.4,93.7h45.8l4.2,49.8h-54.2L364.4,93.7z M353.4,223.3h18.9c4.1,0,7.5-3.4,7.5-7.5s-3.4-7.5-7.5-7.5h-17.6
		c0.4-4.5,3.8-45.2,4.2-49.8h56.7l4.2,49.8h-17.6c-4.1,0-7.5,3.4-7.5,7.5s3.4,7.5,7.5,7.5h18.9l4.2,49.8h-76.2
		C350.3,260,352.7,231.7,353.4,223.3z M267.7,214.5h71.4l-1.6,18.7h-69.8V214.5z M267.7,248.2h68.6l-2.1,24.9h-66.4V248.2z"/>
	<path d="M29.6,452.4V92.3l183.8,71.2c3.9,1.5,8.2-0.4,9.7-4.3c1.5-3.9-0.4-8.2-4.3-9.7L78.1,95V41.3c0-4.1-3.4-7.5-7.5-7.5
		c-4.1,0-7.5,3.4-7.5,7.5v47.9L24.8,74.4c-2.3-0.9-4.9-0.6-6.9,0.8c-2,1.4-3.3,3.7-3.3,6.2v371H29.6z"/>
</g>
</svg>
