<?xml version="1.0" encoding="utf-8"?>
<!-- Generator: Adobe Illustrator 24.2.2, SVG Export Plug-In . SVG Version: 6.00 Build 0)  -->
<svg version="1.1" id="Layer_1" xmlns="http://www.w3.org/2000/svg" xmlns:xlink="http://www.w3.org/1999/xlink" x="0px" y="0px"
	 viewBox="0 0 164.4 161.3" style="enable-background:new 0 0 164.4 161.3;" xml:space="preserve">
<g>
	<path d="M132.4,6.8c0.4,2.4,0.9,4.8,1.1,7.2c0.2,2.3,0,4.6,0,7.8c5.3,0,10.3,0,15.4,0c7.3,0,7.3,0,7.3,7.5c0,1,0,2,0,3
		c0.2,3.2-1.4,4.4-4.5,4.4c-5.6-0.1-11.2,0-17.6,0c4.8,31,9.5,61.5,14.1,91.8c8,1.1,8,1.1,8,8.6c0,4.8-0.1,9.6,0,14.4
		c0.1,3.1-1.3,4.5-4.4,4.5c-21,0-42-0.1-63.1,0c-3.4,0-4.3-1.5-4.2-4.6c0.1-6.1,0.1-12.3,0-18.4c-0.1-2.9,0.8-4.4,3.9-4.1
		c2.9,0.3,3.9-0.9,4.3-3.9c4.1-27.2,8.4-54.4,12.6-81.6c0.3-2.1,0.4-4.3,0.7-6.6c-15.5,0-31,0-47,0c0,5.2-0.1,10.1,0.1,15
		c0,0.8,1.6,2.4,2.3,2.3c5.3-0.5,5.6,2.6,5.3,6.5c-0.1,1,0.1,1.9,0.2,3.6c7.5-1.8,7.2,3,6.9,8c-0.2,4.3,0.2,8.6-0.2,12.9
		c-0.1,1.2-2,3.1-3.1,3.1c-9.1,0.3-18.2,0.1-27.3,0.2c-2.5,0-3.6-0.9-3.5-3.5c0.1-4.5,0.3-9,0-13.4c-0.4-5,0.3-8.7,6.9-7.3
		c0.1-1.7,0.4-3,0.2-4.2c-0.3-3.7,0.4-6.2,5-5.8c0.8,0.1,2.5-1,2.5-1.6c0.2-5.1,1.6-11-0.4-15.1c-1.9-3.9-1.7-7.4-2.1-11.1
		c-0.3-3,1-4.3,4.1-4.9c23.8-4.5,47.5-9.2,71.2-13.8c0.8-0.1,1.4-0.6,2.2-0.9C130.4,6.8,131.4,6.8,132.4,6.8z M151.1,133.2
		c-20.2,0-39.8,0-59.5,0.1c-0.9,0-2.6,1.6-2.7,2.5c-0.3,4.9-0.1,9.8-0.1,14.7c21.2,0,41.7,0,62.3,0
		C151.1,144.8,151.1,139.3,151.1,133.2z M100.6,104.6c-1.3,8.3-2.4,15.9-3.7,23.9c15.7,0,30.9,0,46.1,0c0.2-0.4,0.3-0.8,0.5-1.2
		C129.5,119.9,115.5,112.5,100.6,104.6z M137.1,87.1c-10.8,4.7-21.2,9.3-32.6,14.3c13.1,6.8,25.1,13.2,37.9,19.9
		C140.6,109.4,138.9,98.5,137.1,87.1z M151.1,26.9c-31.6,0-62.7,0-94.2,0c0.1,1.7,0.1,3,0.2,4.5c31.5,0,62.7,0,94,0
		C151.1,29.8,151.1,28.5,151.1,26.9z M57,68.6c-3.1,0-6.3,0.1-9.4,0c-2.5-0.1-4.1,0.9-3.5,3.4c0.9,4-2.6,8.8,2.1,12.1
		c0.2,0.2,0.6,0.1,1,0.1c6.4,0,12.9,0.1,19.3-0.1c1,0,2.8-1.7,2.9-2.8c1.7-12.2,1.2-12.7-11-12.7C58,68.6,57.5,68.6,57,68.6z
		 M101.6,97.6c10.8-4.7,20.7-9.1,31.7-13.9c-9.7-4.8-18.4-9.2-27.4-13.6C104.4,79.4,103.1,88,101.6,97.6z M132.1,55
		c-7.7,3.9-14.9,7.5-22.9,11.5c9.4,4.7,17.7,8.8,26.7,13.3C134.6,71,133.4,63.3,132.1,55z M129,12.1c-15.7,3-30.8,5.9-45.8,8.8
		c0,0.1,0,0.2,0.1,0.4c15.2,0,30.4,0,45.8,0C129,18.4,129,15.8,129,12.1z M128.2,51.8c-6.6-2.8-12.3-5.1-18.4-7.7
		c-0.9,6.1-1.7,11.6-2.7,18.1C114.5,58.6,120.8,55.5,128.2,51.8z M131,47.9c-0.6-4.3-1.1-7.6-1.6-10.8c-6.5,0-12.5,0-18.6,0
		c-0.2,0.6-0.4,1.2-0.6,1.8C116.8,41.8,123.5,44.6,131,47.9z M61.7,59c-3.2,0-6.2,0-9.5,0c0,1.7,0,3.3,0,5c3.3,0,6.3,0,9.5,0
		C61.7,62.2,61.7,60.8,61.7,59z"/>
	<path d="M7.2,122.1c1.5-0.5,3.1-0.9,5-1.5c0-5.6,0.1-11.4,0-17.2c-0.1-3.3,1.2-4.4,4.4-4.4c6.3,0.1,12.6,0.1,18.9,0
		c2.8-0.1,3.8,1.1,3.8,3.8c-0.1,5.9,0,11.8,0,18.3c11.1,0,21.6,0,32.2,0c6.6,0,7.1,0.9,4.2,6.8c-3.6,7.4-7.2,14.8-10.2,23.1
		c3.6-1.8,7.1-3.6,12.2-6.2c-0.9,3-0.9,5.2-2,5.9c-4.6,2.9-9.4,7.9-15.1,3.5c-5.2-4-8.9-3.8-13.9,0.1c-3.8,3-8.3,1.4-11.8-1.6
		c-3.1-2.6-5.8-2.3-8.9,0c-5.6,4.2-8.8,4-14.3,0.1c-1.3-0.9-2.9-1.3-4.4-1.9c0-1.7,0-3.3,0-5c3.9,1.7,7.7,3.3,11.6,5
		c0.3-0.3,0.5-0.5,0.8-0.8c-4.1-8.4-8.3-16.7-12.4-25.1C7.2,124.1,7.2,123.1,7.2,122.1z M23.7,148.4c5.6-3.5,10-2.5,14.6,1.1
		c1.5,1.2,5.3,1.5,6.6,0.4c4.9-4,9.7-5.2,15.5-1.5c3.6-7.6,7-14.7,10.5-21.9c-19.4,0-38.1,0-57.3,0C17,133.9,20.2,140.9,23.7,148.4z
		 M17.4,103.4c0,6.2,0,11.8,0,17.5c5.9,0,11.4,0,17.4,0c0-5,0.2-9.8-0.1-14.5c-0.1-1-1.8-2.8-2.8-2.8
		C27.1,103.2,22.4,103.4,17.4,103.4z"/>
	<path d="M93.9,141c1.4-0.7,3-2.2,4.1-1.9c1.4,0.3,2.4,2.2,3.5,3.4c-1.3,1.2-2.4,3.1-3.8,3.2c-1.2,0.2-2.6-1.7-3.9-2.6
		C93.8,142.4,93.9,141.7,93.9,141z"/>
	<path d="M108.8,141.3c1.3-0.8,2.8-2.4,4-2.2c1.4,0.2,2.5,2,3.7,3.2c-1.2,1.2-2.2,3.2-3.6,3.5c-1.1,0.2-2.7-1.5-4.1-2.4
		C108.8,142.7,108.8,142,108.8,141.3z"/>
	<path d="M123.7,141.3c1.3-0.8,2.8-2.4,4-2.2c1.4,0.2,2.5,2,3.7,3.2c-1.2,1.2-2.2,3.2-3.6,3.5c-1.1,0.2-2.7-1.5-4.1-2.4
		C123.7,142.7,123.7,142,123.7,141.3z"/>
	<path d="M138.6,141c1.4-0.7,3-2.2,4.1-1.9c1.4,0.3,2.4,2.2,3.5,3.4c-1.3,1.2-2.4,3-3.8,3.2c-1.2,0.1-2.6-1.7-3.9-2.7
		C138.5,142.3,138.6,141.7,138.6,141z"/>
	<path d="M26.9,108.5c0.7,1.4,2.3,2.9,2,4.1c-0.3,1.4-2.2,2.4-3.3,3.6c-1.2-1.2-3.1-2.4-3.3-3.8c-0.2-1.2,1.6-2.6,2.5-4
		C25.6,108.4,26.3,108.4,26.9,108.5z"/>
</g>
</svg>
