<?xml version="1.0" encoding="utf-8"?>
<!-- Generator: Adobe Illustrator 24.3.0, SVG Export Plug-In . SVG Version: 6.00 Build 0)  -->
<svg version="1.1" id="Layer_1" xmlns="http://www.w3.org/2000/svg" xmlns:xlink="http://www.w3.org/1999/xlink" x="0px" y="0px"
	 viewBox="0 0 30 30" style="enable-background:new 0 0 30 30;" xml:space="preserve">
<g>
	<path d="M4.7,16.1c-0.4-0.4-0.6-0.9-0.6-1.4c0-0.5,0.2-1,0.6-1.5c0.4-0.4,1-0.7,1.8-0.7h5.9V4.8c0.2-0.7,0.5-1.2,0.8-1.6
		c0.4-0.4,0.8-0.5,1.3-0.5c0.5,0,0.9,0.2,1.3,0.5c0.4,0.3,0.7,0.8,0.9,1.5v8h7.1c0.7,0.2,1.2,0.5,1.5,0.9c0.3,0.4,0.5,0.8,0.5,1.3
		c0,0.5-0.2,0.9-0.5,1.3c-0.4,0.4-0.9,0.7-1.6,0.8h-6.9v8c0,0.8-0.3,1.4-0.7,1.8c-0.4,0.4-0.9,0.6-1.5,0.6c-0.5,0-1-0.2-1.4-0.6
		c-0.4-0.4-0.7-0.9-0.8-1.7v-8.1h-6C5.7,16.8,5.1,16.6,4.7,16.1z"/>
</g>
</svg>
