<?xml version="1.0" encoding="utf-8"?>
<!-- Generator: Adobe Illustrator 24.3.0, SVG Export Plug-In . SVG Version: 6.00 Build 0)  -->
<svg version="1.1" id="Layer_1" xmlns="http://www.w3.org/2000/svg" xmlns:xlink="http://www.w3.org/1999/xlink" x="0px" y="0px"
	 viewBox="0 0 30 30" style="enable-background:new 0 0 30 30;" xml:space="preserve">
<g>
	<path d="M8,17.2c-0.8-0.1-1.4-0.4-1.7-0.8C5.9,16,5.7,15.5,5.7,15c0-0.5,0.2-1,0.6-1.5c0.4-0.5,1-0.7,1.8-0.7c0.4,0,1.3,0,2.7,0
		c1.4,0,2.8,0,4.4,0c1.6,0,3,0,4.4,0s2.3,0,2.7,0c0.7,0.2,1.2,0.5,1.5,0.9c0.3,0.4,0.5,0.8,0.5,1.3c0,0.5-0.2,0.9-0.5,1.3
		c-0.4,0.4-0.9,0.7-1.6,0.8c-2.4,0-4.7,0-7.1,0C12.7,17.2,10.4,17.2,8,17.2z"/>
</g>
</svg>
