<?xml version="1.0"?>
<svg xmlns="http://www.w3.org/2000/svg" id="outline" viewBox="0 0 512 512" width="512" height="512"><path d="M200,272h16v-8.40326a20.00124,20.00124,0,0,0-4.001-39.5982h-.00732l-7.98926.00292H204.001a4.00073,4.00073,0,1,1,0-8.00146H232V200H216v-8H200v8.40326a20.00124,20.00124,0,0,0,4.001,39.5982h.00732l7.98926-.00292h.00146a4.00073,4.00073,0,1,1,0,8.00146H184v16h16Z"/><path d="M200,360a7.99977,7.99977,0,0,0-8,8V488a7.99977,7.99977,0,0,0,8,8H312a7.99977,7.99977,0,0,0,8-8V368a7.99977,7.99977,0,0,0-8-8Zm8,56h96v24H208Zm0-40h96v24H208Zm96,104H208V456h96Z"/><path d="M24,336H40v24a7.99977,7.99977,0,0,0-8,8v40a7.99977,7.99977,0,0,0,8,8h8v72a7.99977,7.99977,0,0,0,8,8H168a7.99977,7.99977,0,0,0,8-8V408a7.99977,7.99977,0,0,0-8-8h-8V376a7.99977,7.99977,0,0,0,8-8V328a7.99977,7.99977,0,0,0-8-8H144V288a7.99977,7.99977,0,0,0-8-8H24a7.99977,7.99977,0,0,0-8,8v40A7.99977,7.99977,0,0,0,24,336Zm136,80v24H64V416Zm0,64H64V456h96Zm-16-80H48V376h96Zm8-40H56V336h96ZM32,296h96v24H32Z"/><path d="M488,280H376a7.99977,7.99977,0,0,0-8,8v32H344a7.99977,7.99977,0,0,0-8,8v40a7.99977,7.99977,0,0,0,8,8h8v24h-8a7.99977,7.99977,0,0,0-8,8v80a7.99977,7.99977,0,0,0,8,8H456a7.99977,7.99977,0,0,0,8-8V416h8a7.99977,7.99977,0,0,0,8-8V368a7.99977,7.99977,0,0,0-8-8h-8V336h24a7.99977,7.99977,0,0,0,8-8V288A7.99977,7.99977,0,0,0,488,280ZM448,480H352V456h96Zm0-40H352V416h96Zm16-40H368V376h96Zm-16-40H352V336h96Zm32-40H384V296h96Z"/><path d="M176,296.47235V312a31.99658,31.99658,0,0,0,62.196,10.57574A31.98388,31.98388,0,0,0,288,296v-4.305a31.9708,31.9708,0,0,0,47.59058-22.60437A27.98479,27.98479,0,0,0,376,244V24a7.99977,7.99977,0,0,0-8-8H224a7.99977,7.99977,0,0,0-8,8V69.92706l-38.99316,70.18769A8.00209,8.00209,0,0,0,176,144v23.52765a71.95855,71.95855,0,0,0,0,128.9447ZM208,328a16.01833,16.01833,0,0,1-16-16v-9.81427A71.91172,71.91172,0,0,0,208,304a72.73221,72.73221,0,0,0,16-1.77594V312A16.01833,16.01833,0,0,1,208,328Zm48-16a16.00732,16.00732,0,0,1-15.97266-15.461A71.64452,71.64452,0,0,0,272,265.00372V296A16.01833,16.01833,0,0,1,256,312ZM232,32H360V64H232ZM192,146.07324,228.70728,80H360V244a12,12,0,0,1-24,0V208H320v56a16,16,0,0,1-32,0v-4.305A32.01123,32.01123,0,0,0,304,232V188l9.59961-7.2002A56.267,56.267,0,0,0,336,136V112H320v24a40.19082,40.19082,0,0,1-16.00049,32l-12.7998,9.6001A8.0002,8.0002,0,0,0,288,184v48a16,16,0,0,1-32,0V128H240v39.51312a71.75907,71.75907,0,0,0-48-5.69885ZM208,176a55.31909,55.31909,0,0,1,32,10.04816V232a32.02066,32.02066,0,0,0,16.51807,27.99329A56.00614,56.00614,0,1,1,208,176Z"/></svg>
