<?xml version="1.0" encoding="utf-8"?>
<!-- Generator: Adobe Illustrator 24.1.2, SVG Export Plug-In . SVG Version: 6.00 Build 0)  -->
<svg version="1.1" id="Layer_1" xmlns="http://www.w3.org/2000/svg" xmlns:xlink="http://www.w3.org/1999/xlink" x="0px" y="0px"
	 viewBox="0 0 703.2 719.3" style="enable-background:new 0 0 703.2 719.3;" xml:space="preserve">
<style type="text/css">
	.st0{fill:none;stroke:#000000;stroke-width:21;stroke-linecap:round;stroke-linejoin:round;stroke-miterlimit:10;}
	.st1{fill:none;stroke:#000000;stroke-width:17;stroke-linecap:round;stroke-linejoin:round;stroke-miterlimit:10;}
	.st2{fill:none;stroke:#000000;stroke-width:21;stroke-linecap:round;stroke-linejoin:round;stroke-miterlimit:9.9999;}
	.st3{fill:none;stroke:#000000;stroke-width:14;stroke-linecap:round;stroke-linejoin:round;stroke-miterlimit:10;}
	.st4{fill:none;stroke:#000000;stroke-width:21;stroke-linecap:round;stroke-linejoin:round;}
</style>
<g>
	<polyline class="st0" points="147.6,229.6 147.6,409.9 349.6,409.9 349.6,235.1 	"/>
	<rect x="32.3" y="27.5" class="st0" width="622.7" height="202.1"/>
	<polyline class="st0" points="98.4,688.4 98.4,229.6 71.1,229.6 71.1,688.4 	"/>
	<polyline class="st0" points="617.3,688.4 617.3,229.6 590,229.6 590,688.4 	"/>
	<path class="st1" d="M518.5,317c0,21.1-17.1,38.2-38.2,38.2S442,338.1,442,317"/>
	<path class="st1" d="M431.6,513.6V665c0,12.9,10.5,23.4,23.4,23.4h2.4c12.9,0,23.4-10.5,23.4-23.4V546.4V665
		c0,12.9,10.5,23.4,23.4,23.4h2.4c12.9,0,23.4-10.5,23.4-23.4V513.6v-81.9v90.6c0,9,7.3,16.4,16.4,16.4l0,0c9,0,16.4-7.3,16.4-16.4
		v-100c0-25-20.3-45.2-45.2-45.2h-73.4c-25,0-45.2,20.3-45.2,45.2v100c0,9,7.3,16.4,16.4,16.4l0,0c9,0,16.4-7.3,16.4-16.4v-90.6"/>
	<line class="st1" x1="437" y1="486.3" x2="529.9" y2="486.3"/>
	<line class="st1" x1="398.8" y1="459" x2="431.6" y2="459"/>
	<line class="st1" x1="529.9" y1="459" x2="562.7" y2="459"/>
	<polyline class="st1" points="519.8,298.1 533.3,317 433.6,317 442,296.1 	"/>
	<polygon class="st1" points="516.5,295.2 530.2,267.8 430.3,267.8 444,295.2 	"/>
	<polyline class="st1" points="456.7,377.3 480.2,415.3 502.3,378 	"/>
	
		<ellipse transform="matrix(0.7071 -0.7071 0.7071 0.7071 83.5097 376.8121)" class="st2" cx="496.6" cy="87.6" rx="21.8" ry="21.8"/>
	
		<ellipse transform="matrix(0.7071 -0.7071 0.7071 0.7071 105.9128 430.8864)" class="st2" cx="573.1" cy="87.6" rx="21.8" ry="21.8"/>
	<path class="st3" d="M295.6,313l-35.5-55.3c-2.5-3.9-6.8-6.2-11.4-6.2h-0.1c-4.6,0-8.9,2.3-11.4,6.2l-36,55.1
		c-3.5,5.4-3.4,12.6,1,17.3c6.4,6.7,16.8,5.5,21.5-1.8l11.3-17.2v52.6c0,6.4,4.1,12.4,10.3,13.9c9,2.2,17-4.6,17-13.2v-52.7
		l10.7,16.7c2.6,4.1,7,6.3,11.5,6.3c3.3,0,6.7-1.2,9.5-3.8C298.8,326.1,299.2,318.6,295.6,313z"/>
	<g>
		<path class="st4" d="M374.1,168.7V97.3c0-0.9,0.3-1.6,0.9-2.2c0.6-0.6,1.3-0.9,2.2-0.9c1,0,1.7,0.4,2.3,1.1l51.6,75.5V97.5"/>
		<path class="st0" d="M153.1,168.7V97.4h29.3c9.9,0,19.3,5.9,22.3,15.3c4.3,13.4-3.7,25.9-15.7,29.1l17.7,29.9 M160.2,140.2h31.3"
			/>
		<path class="st4" d="M231.5,133h35.6 M274.3,168.7h-40c-0.8,0-1.4-0.3-2-0.8s-0.8-1.2-0.8-2v-65.8c0-0.8,0.3-1.4,0.8-2
			c0.5-0.5,1.2-0.8,2-0.8h40"/>
		<path class="st4" d="M302.8,133h35.6 M345.6,168.7h-40c-0.8,0-1.4-0.3-2-0.8s-0.8-1.2-0.8-2v-65.8c0-0.8,0.3-1.4,0.8-2
			c0.5-0.5,1.2-0.8,2-0.8h40"/>
		<path class="st4" d="M125.5,103.1c-7.7-6.2-17.2-8.6-28.5-7.3c-5.3,0.6-10.5,2.7-14.8,5.8C69.6,111,64.4,123.5,66.6,139
			c0.7,5.3,2.9,10.4,6.1,14.6c7.9,10.4,18,15.6,30.3,15.6c8,0,15.2-2.3,21.6-6.9v-22.1h-21.4"/>
	</g>
</g>
</svg>
