<svg height="512" viewBox="0 0 60 44" width="512" xmlns="http://www.w3.org/2000/svg"><g id="Page-1" fill="none" fill-rule="evenodd"><g id="035---Motorway" fill="rgb(0,0,0)" fill-rule="nonzero" transform="translate(-1)"><path id="Shape" d="m19.1934 0h-3.0777c-.808124.06414763-1.4888017.62911773-1.7007 1.4116l-13.3374 40.5532c-.15354491.4512821-.07873061.9490004.2007 1.3352.36334806.4644569.92843814.7251074 1.5176.7h.0024l6.0474-.0068c.97074861.0381477 1.8486484-.573327 2.1494-1.4971l9.5149-40.544c.1350654-.49824593.0346713-1.0309055-.2725-1.4458-.2518164-.32014959-.6367832-.50682588-1.0441-.5063zm-16.4522 41.9951c.01983233.0067892.03846341.0166785.0552.0293l.001.9756zm6.3316-.061c-.07053176.0385892-.14960211.0589069-.23.0591l-5.6709.0068 13.143-39.9634c.0038767-.01264571.0089322-.02489949.0151-.0366h2.1147z"/><path id="Shape" d="m38.71 0h-15.42c-.8261776.07637002-1.4804953.73089789-1.5566 1.5571l-6.709 40.5308c-.0800463.4568309.0459875.9256781.3443 1.2808.3558669.4057065.8729618.6332283 1.4125.6215l14.2188-.0202 14.22.02c.5390775.0114362 1.0556254-.2160704 1.4111-.6215.2969291-.3524043.4234404-.817767.3458-1.272l-6.7118-40.5482c-.0785554-.82292873-.7318349-1.47335167-1.5551-1.5483zm-7.71 2h1.0835l.1191 5h-2.4052l.1191-5zm-1.9951 39.9536.1216-5.9433 1.8681-.0103 1.8789.0146.1221 5.9551zm5.9913.0222-.1275-6.197c-.0535974-1.0199005-.9165552-1.8075705-1.9371-1.7681l-1.937-.0107-1.9209.0107c-1.022858-.0408439-1.8887001.747784-1.9433 1.77l-.1262 6.1948-9.9358.0137 6.6303-39.9892h4.2173l-.1255 5.2676c-.0149629.46828956.1584798.92302272.4815 1.2624.2869162.29937708.6833355.46906473 1.098.47h3.26c.4146993-.00090811.8111597-.17059794 1.0981-.47.3226116-.33866466.4960398-.79249534.4815-1.26l-.1256-5.27h4.2285l6.62 39.99z"/><path id="Shape" d="m53.1553 43.9932 6.0459.0068h.0019c.5896023.0251183 1.1550949-.2358067 1.5186-.7007.2793966-.3861235.3539677-.8838482.2-1.3349l-13.3363-40.5523c-.2119534-.78269047-.8927687-1.34784199-1.7011-1.4121h-3.0777c-.407422-.00061808-.7925186.18606748-1.0444.5063-.3071252.41511044-.4074062.94794085-.2722 1.4463l9.5152 40.543c.3008144.9241016 1.1790211 1.5357952 2.1501 1.4976zm-7.4853-41.9932c.006051.01181948.0112638.02404961.0156.0366l13.1425 39.9634-5.67-.0063c-.0804066-.000125-.1594935-.0204469-.23-.0591l-9.3724-39.9346z"/><path id="Shape" d="m29.25 19h3.5c.4803801.0051327.9426368-.1831647 1.2827-.5225.2908318-.2945066.448698-.6950604.437-1.1088l-.13-4.8023c-.0375638-.88951-.7796052-1.5856433-1.6697-1.5664h-3.34c-.8908947-.0192183-1.6333345.6780527-1.67 1.5684l-.13 4.7988c-.0119111.4141315.1459625.8151375.437 1.11.3400868.3395199.8024728.5279341 1.283.5228zm.3994-6h2.7012l.1084 4h-2.918z"/><path id="Shape" d="m32.8 22h-3.6c-.954258-.0138784-1.7490177.7286038-1.8 1.6816l-.13 5.5967c-.0104282.4331016.1561994.8517291.4614 1.1592.3688152.3659612.8690666.5686052 1.3886.5625h3.76c.5193952.0059976 1.0194825-.1966382 1.3882-.5625.304557-.3065035.4711525-.7238228.4614-1.1558l-.13-5.6035c-.0524812-.9516132-.8466436-1.6922018-1.7996-1.6782zm-3.5225 6.9985.1161-4.9985h3.2128l.1163 5z"/></g></g></svg>