<svg id="Capa_1" enable-background="new 0 0 503.531 503.531" height="512" viewBox="0 0 503.531 503.531" width="512" xmlns="http://www.w3.org/2000/svg"><g><path d="m34.641 225.463h15v-19.451l142.499-111.986 142.501 112.048v41.644h15v-37.665h30v-135h-52.419v-29.486h-15v29.486h-14.922v-59.486h14.922v15h15v-30h-44.922v66.642l-90.282-67.209-95.506 75.054h-91.871v135h30zm-15-135.409h134.833v-15h-33.687l71.477-56.171 75.455 56.171h-38.245v15h135.167v105h-19.748l-152.751-120.108-152.834 120.108h-19.667z"/><path d="m34.641 240.463h15v15h-15z"/><path d="m154.641 165.717h15v15h-15z"/><path d="m34.641 105.195h15v15h-15z"/><path d="m184.641 165.717h15v15h-15z"/><path d="m139.474 300.396h15v15h-15z"/><path d="m214.641 165.717h15v15h-15z"/><path d="m304.474 276.713v-66.741h-105.25v135.416h74.958v-15h-59.958v-105.416h30.084v15.231h15v-15.231h30.166v51.741z"/><path d="m244.308 284.96h15v29.758h-15z"/><path d="m244.308 255.463h15v15h-15z"/><path d="m34.642 404.806h239.54v-15h-89.708v-179.834h-104.5v179.834h-30.333v-119.343h-15v119.343h-14.999v45.694h269.54v-15h-254.54zm60.332-179.834h74.5v164.834h-74.5z"/><path d="m34.641 134.694h15v30.668h-15z"/><path d="m394.182 240.457-104.708 55.748v65.556c0 47.473 25.246 92.724 65.645 117.659l39.063 24.111 39.063-24.111c40.398-24.934 65.645-70.185 65.645-117.659v-65.556zm89.708 121.304c0 43.063-21.878 82.276-58.523 104.896l-31.185 19.248-31.185-19.248c-36.646-22.619-58.523-61.832-58.523-104.896v-56.548l89.708-47.762 89.708 47.762z"/><path d="m334.384 375.324c0 33.181 26.995 60.176 60.176 60.176 33.182 0 60.177-26.995 60.177-60.176 0-33.182-26.995-60.177-60.177-60.177-33.181 0-60.176 26.996-60.176 60.177zm60.176-45.177c24.91 0 45.177 20.267 45.177 45.177s-20.267 45.176-45.177 45.176-45.176-20.266-45.176-45.176 20.266-45.177 45.176-45.177z"/><path d="m423.505 365.04-10.607-10.607-23.717 23.717-11.455-11.456-10.607 10.606 22.062 22.063z"/></g></svg>