<svg id="Layer_5" enable-background="new 0 0 64 64" height="512" viewBox="0 0 64 64" width="512" xmlns="http://www.w3.org/2000/svg"><g><path d="m51 59h2v-2c1.654 0 3-1.346 3-3s-1.346-3-3-3h-2c-.551 0-1-.448-1-1s.449-1 1-1h3v1h2v-3h-3v-2h-2v2c-1.654 0-3 1.346-3 3s1.346 3 3 3h2c.551 0 1 .448 1 1s-.449 1-1 1h-3v-1h-2v3h3z"/><path d="m53 25h-2v2c-1.654 0-3 1.346-3 3s1.346 3 3 3h2c.551 0 1 .448 1 1s-.449 1-1 1h-3v-1h-2v3h3v2h2v-2c1.654 0 3-1.346 3-3s-1.346-3-3-3h-2c-.551 0-1-.449-1-1s.449-1 1-1h3v1h2v-3h-3z"/><path d="m63 32c0-4.439-2.649-8.264-6.444-10 3.795-1.736 6.444-5.561 6.444-10 0-6.065-4.935-11-11-11s-11 4.935-11 11c0 4.439 2.649 8.264 6.444 10-3.795 1.736-6.444 5.561-6.444 10s2.649 8.264 6.444 10c-2.906 1.329-5.132 3.882-6.018 7h-11.426c-.475 0-.919.121-1.319.319.198-.4.319-.844.319-1.319v-2c0-.771-.301-1.468-.78-2 .48-.532.78-1.229.78-2v-2c0-1.654-1.346-3-3-3h-7v-4h7c4.962 0 9-4.038 9-9v-1h-9c-2.826 0-5.349 1.312-7 3.356v-1.356-1-5h7c4.962 0 9-4.038 9-9v-1h-9c-2.826 0-5.349 1.312-7 3.356v-1.356-1c0-4.962-4.038-9-9-9h-9v1c0 4.962 4.038 9 9 9h7v7 .356c-1.651-2.044-4.174-3.356-7-3.356h-9v1c0 4.962 4.038 9 9 9h7v7 1 4h-7c-1.654 0-3 1.346-3 3v2c0 .771.301 1.468.78 2-.479.532-.78 1.229-.78 2v2c0 .771.301 1.468.78 2-.479.532-.78 1.229-.78 2v2c0 .771.301 1.468.78 2-.479.532-.78 1.229-.78 2v2c0 1.654 1.346 3 3 3h16c.771 0 1.468-.301 2-.78.532.48 1.229.78 2 .78h16c.75 0 1.442-.285 1.982-.771 1.246.492 2.599.771 4.018.771 6.065 0 11-4.935 11-11 0-4.439-2.649-8.264-6.444-10 3.795-1.736 6.444-5.561 6.444-10zm-37-7h6.929c-.487 3.388-3.408 6-6.929 6h-6.929c.487-3.388 3.408-6 6.929-6zm0-14h6.929c-.487 3.388-3.408 6-6.929 6h-6.929c.487-3.388 3.408-6 6.929-6zm-16-2c-3.521 0-6.442-2.612-6.929-6h6.929c3.521 0 6.442 2.612 6.929 6zm0 14c-3.521 0-6.442-2.612-6.929-6h6.929c3.521 0 6.442 2.612 6.929 6zm33-11c0-4.962 4.038-9 9-9s9 4.038 9 9-4.038 9-9 9-9-4.038-9-9zm-13 39h1v2h2v-2h2v2h2v-2h4.051c-.03.33-.051.662-.051 1 0 1.041.155 2.045.426 3h-11.426c-.551 0-1-.448-1-1v-2c0-.552.449-1 1-1zm-20 4c-.551 0-1-.448-1-1v-2c0-.552.449-1 1-1h1v2h2v-2h2v2h2v-2h2v2h2v-2h2v2h2v-2h1c.551 0 1 .448 1 1v2c0 .552-.449 1-1 1zm-1-7v-2c0-.552.449-1 1-1h1v2h2v-2h2v2h2v-2h2v2h2v-2h2v2h2v-2h1c.551 0 1 .448 1 1v2c0 .552-.449 1-1 1h-16c-.551 0-1-.448-1-1zm0-8c0-.552.449-1 1-1h1v2h2v-2h2v2h2v-2h2v2h2v-2h2v2h2v-2h1c.551 0 1 .448 1 1v2c0 .552-.449 1-1 1h-16c-.551 0-1-.448-1-1zm17 21h-16c-.551 0-1-.448-1-1v-2c0-.552.449-1 1-1h1v2h2v-2h2v2h2v-2h2v2h2v-2h2v2h2v-2h1c.551 0 1 .448 1 1v2c0 .552-.449 1-1 1zm4 0c-.551 0-1-.448-1-1v-2c0-.552.449-1 1-1h1v2h2v-2h2v2h2v-2h2v2h2v-2h1.214c.821 1.6 2.019 2.973 3.481 4zm31-9c0 4.963-4.038 9-9 9s-9-4.037-9-9 4.038-9 9-9 9 4.037 9 9zm-9-11c-4.962 0-9-4.037-9-9 0-4.962 4.038-9 9-9s9 4.038 9 9c0 4.963-4.038 9-9 9z"/><path d="m53 5h-2v2c-1.654 0-3 1.346-3 3s1.346 3 3 3h2c.551 0 1 .449 1 1s-.449 1-1 1h-3v-1h-2v3h3v2h2v-2c1.654 0 3-1.346 3-3s-1.346-3-3-3h-2c-.551 0-1-.449-1-1s.449-1 1-1h3v1h2v-3h-3z"/></g></svg>