<?xml version="1.0" encoding="utf-8"?>
<!-- Generator: Adobe Illustrator 24.1.2, SVG Export Plug-In . SVG Version: 6.00 Build 0)  -->
<svg version="1.1" id="Layer_1" xmlns="http://www.w3.org/2000/svg" xmlns:xlink="http://www.w3.org/1999/xlink" x="0px" y="0px"
	 viewBox="0 0 512 512" style="enable-background:new 0 0 512 512;" xml:space="preserve">
<g>
	<path d="M64,137h16c17.7,0,32-14.3,32-32S97.7,73,80,73H56c-4.4,0-8,3.6-8,8v72c0,4.4,3.6,8,8,8s8-3.6,8-8V137z M96,105
		c0,8.8-7.2,16-16,16H64V89h16C88.8,89,96,96.2,96,105z"/>
	<path d="M153.4,469H136v-16c0-4.4-3.6-8-8-8H88V213h8c4.4,0,8-3.6,8-8v-16h32c4.4,0,8-3.6,8-8V45c0-4.4-3.6-8-8-8H24
		c-4.4,0-8,3.6-8,8v136c0,4.4,3.6,8,8,8h32v16c0,4.4,3.6,8,8,8h8v232H32c-4.4,0-8,3.6-8,8v16h-8c-4.4,0-8,3.6-8,8s3.6,8,8,8h480
		c4.4,0,8-3.6,8-8s-3.6-8-8-8h-25.4 M88,197H72v-8h16V197z M32,173V53h96v120H32z M120,469H40v-8h80V469z M192,469h-16"/>
</g>
<g>
	<g>
		<g>
			<path d="M470.1,376v-33.4c0-26.4-18.6-49.2-44.5-54.5v-90.1h22.2v44.5h22.2v-66.7h-44.5v-66.7h-22.2v44.5H225.5v-44.5h-22.2v66.7
				h-44.5v66.7H181v-44.5h22.2v90.1c-25.9,5.3-44.4,28.1-44.5,54.5V376h-22.2v22.2H181v33.4c0,18.4,14.9,33.4,33.4,33.4
				s33.4-14.9,33.4-33.4v-33.4h133.4v33.4c0,18.4,14.9,33.4,33.4,33.4s33.4-14.9,33.4-33.4v-33.4h44.5V376H470.1z M225.5,175.9
				h177.9v66.7H225.5V175.9z M225.5,431.6c0,6.1-5,11.1-11.1,11.1s-11.1-5-11.1-11.1v-33.4h22.2V431.6z M425.6,431.6
				c0,6.1-5,11.1-11.1,11.1s-11.1-5-11.1-11.1v-33.4h22.2V431.6z M447.9,376H181v-33.4c0-18.4,14.9-33.4,33.4-33.4h11.1v-44.5h177.9
				v44.5h11.1c18.4,0,33.4,14.9,33.4,33.4V376z"/>
			<rect x="247.7" y="287.1" width="133.4" height="22.2"/>
			<rect x="247.7" y="331.6" width="133.4" height="22.2"/>
			<rect x="203.2" y="331.6" width="22.2" height="22.2"/>
			<rect x="403.4" y="331.6" width="22.2" height="22.2"/>
		</g>
	</g>
</g>
</svg>
