<svg id="Layer_3" enable-background="new 0 0 64 64" height="512" viewBox="0 0 64 64" width="512" xmlns="http://www.w3.org/2000/svg"><g><path d="m62 5h-19.453c-2.819-2.481-6.505-4-10.547-4s-7.728 1.519-10.547 4h-19.453c-.552 0-1 .448-1 1v22c0 .552.448 1 1 1h19.422c.509.447 1.049.864 1.619 1.249l-.705 9.118c-.554.558-1.024 1.192-1.392 1.877-.638-.162-1.289-.244-1.944-.244-2.858 0-5.502 1.549-6.921 4.001-.026-.001-.053-.001-.079-.001-3.309 0-6 2.691-6 6 0 .902.2 1.781.584 2.584-.059.042-.126.073-.184.116-1.118.838-2.503 1.3-3.9 1.3h-.5v2h.5c1.827 0 3.638-.604 5.1-1.7 1.118-.838 2.503-1.3 3.9-1.3h1c1.397 0 2.782.462 3.9 1.3 1.462 1.097 3.273 1.7 5.1 1.7h1c1.827 0 3.638-.604 5.1-1.7 1.118-.838 2.503-1.3 3.9-1.3h1c1.397 0 2.782.462 3.9 1.3 1.462 1.097 3.273 1.7 5.1 1.7h1c1.827 0 3.638-.604 5.1-1.7 1.118-.838 2.503-1.3 3.9-1.3h1c1.397 0 2.782.462 3.9 1.3 1.462 1.097 3.273 1.7 5.1 1.7h.5v-2h-.5c-1.397 0-2.782-.462-3.9-1.3-.06-.045-.129-.076-.19-.12.383-.801.59-1.675.59-2.58 0-3.309-2.691-6-6-6-.026 0-.053 0-.079.001-1.419-2.452-4.063-4.001-6.921-4.001-.236 0-.477.012-.727.037-.715-.902-1.613-1.637-2.643-2.161l-.67-8.628c.57-.385 1.109-.802 1.617-1.248h19.423c.552 0 1-.448 1-1v-22c0-.552-.448-1-1-1zm-1 4h-15.165c-.407-.701-.86-1.371-1.365-2h16.53zm-13.051 7c-.109-1.758-.493-3.44-1.127-5h8.178v5zm.019 2h3.032v5h-4.156c.633-1.573 1.018-3.257 1.124-5zm5.032 0h8v5h-8zm4-2v-5h4v5zm-37.47-9c-.505.629-.958 1.299-1.365 2h-15.165v-2zm-16.53 9v-5h4v5zm8 2v5h-8v-5zm2 0h3.032c.107 1.743.491 3.427 1.125 5h-4.157zm3.051-2h-7.051v-5h8.178c-.634 1.56-1.018 3.242-1.127 5zm-13.051 9h15.136c.404.699.862 1.367 1.37 2h-16.506zm37.22-4.293c-.156-2.64-2.348-4.707-4.991-4.707h-6.457c-2.644 0-4.836 2.067-4.99 4.688l-.139 1.794c-1.064-1.612-1.643-3.494-1.643-5.482 0-5.514 4.486-10 10-10s10 4.486 10 10c0 1.988-.579 3.87-1.642 5.482zm2.767 21.957c.219.327.608.494.998.43.369-.064.702-.094 1.015-.094 2.325 0 4.461 1.368 5.441 3.485.185.398.611.63 1.038.571l.133-.018c.128-.017.255-.038.388-.038 2.206 0 4 1.794 4 4 0 .571-.128 1.122-.357 1.632-.999-.398-2.064-.632-3.143-.632h-1c-1.827 0-3.638.604-5.1 1.7-1.118.838-2.503 1.3-3.9 1.3h-1c-1.397 0-2.782-.462-3.9-1.3-1.462-1.097-3.273-1.7-5.1-1.7h-1c-1.827 0-3.638.604-5.1 1.7-1.118.838-2.503 1.3-3.9 1.3h-1c-1.397 0-2.782-.462-3.9-1.3-1.462-1.097-3.273-1.7-5.1-1.7h-1c-1.08 0-2.146.234-3.146.633-.229-.511-.354-1.064-.354-1.633 0-2.206 1.794-4 4-4 .133 0 .26.021.388.039l.133.018c.428.059.854-.173 1.038-.571.98-2.118 3.116-3.486 5.441-3.486.719 0 1.435.133 2.127.396.512.196 1.086-.061 1.286-.571.331-.849.872-1.63 1.563-2.259.188-.172.305-.409.324-.663l1.475-19.079c.095-1.584 1.411-2.824 2.996-2.824h6.457c1.586 0 2.902 1.24 2.996 2.842l1.457 18.773c.029.375.266.702.614.847 1.101.457 2.032 1.219 2.692 2.202zm-2.405-17.297c2.2-2.253 3.418-5.199 3.418-8.367 0-6.617-5.383-12-12-12s-12 5.383-12 12c0 3.169 1.218 6.116 3.419 8.368l-.196 2.538c-3.297-2.644-5.223-6.609-5.223-10.906 0-7.72 6.28-14 14-14s14 6.28 14 14c0 4.296-1.926 8.261-5.221 10.906zm3.912 1.633c.508-.633.966-1.301 1.37-2h15.136v2z"/><path d="m57.6 59.7c-1.462-1.097-3.273-1.7-5.1-1.7h-1c-1.827 0-3.638.604-5.1 1.7-1.118.838-2.503 1.3-3.9 1.3h-1c-1.397 0-2.782-.462-3.9-1.3-1.462-1.097-3.273-1.7-5.1-1.7h-1c-1.827 0-3.638.604-5.1 1.7-1.118.838-2.503 1.3-3.9 1.3h-1c-1.397 0-2.782-.462-3.9-1.3-1.462-1.097-3.273-1.7-5.1-1.7h-1c-1.827 0-3.638.604-5.1 1.7-1.118.838-2.503 1.3-3.9 1.3h-.5v2h.5c1.827 0 3.638-.604 5.1-1.7 1.118-.838 2.503-1.3 3.9-1.3h1c1.397 0 2.782.462 3.9 1.3 1.462 1.097 3.273 1.7 5.1 1.7h1c1.827 0 3.638-.604 5.1-1.7 1.118-.838 2.503-1.3 3.9-1.3h1c1.397 0 2.782.462 3.9 1.3 1.462 1.097 3.273 1.7 5.1 1.7h1c1.827 0 3.638-.604 5.1-1.7 1.118-.838 2.503-1.3 3.9-1.3h1c1.397 0 2.782.462 3.9 1.3 1.462 1.097 3.273 1.7 5.1 1.7h.5v-2h-.5c-1.397 0-2.782-.462-3.9-1.3z"/><path d="m30 43h-4c-.265 0-.52.105-.707.293l-2 2c-.238.237-.34.579-.272.908.067.329.296.603.608.728l5 2c.119.048.245.071.371.071.157 0 .312-.037.455-.109.257-.132.445-.368.515-.648l1-4c.075-.299.007-.615-.182-.857-.189-.244-.48-.386-.788-.386zm-1.692 3.646-2.528-1.012.634-.634h2.305z"/><path d="m40.021 49.201c.067.329.296.603.608.728l5 2c.119.048.245.071.371.071.157 0 .312-.037.455-.109.257-.132.445-.368.515-.648l1-4c.075-.299.007-.615-.182-.857-.189-.244-.48-.386-.788-.386h-4c-.265 0-.52.105-.707.293l-2 2c-.238.237-.34.579-.272.908zm3.393-1.201h2.305l-.412 1.646-2.528-1.012z"/><path d="m17 47.764h2v4.472h-2z" transform="matrix(.447 -.894 .894 .447 -34.771 43.739)"/><path d="m33.197 47.5h3.606v2h-3.606z" transform="matrix(.555 -.832 .832 .555 -24.769 50.719)"/><path d="m31 22h2v17h-2z"/><path d="m27 21h2v10h-2z"/><path d="m35 25h2v10h-2z"/><path d="m35 21h2v2h-2z"/><path d="m27 33h2v2h-2z"/></g></svg>