<svg height="480pt" viewBox="-40 0 480 480" width="480pt" xmlns="http://www.w3.org/2000/svg"><path d="m128.003906 8v24h-24c-4.417968 0-8 3.582031-8 8v29.257812c-57.972656 35.246094-94.097656 97.503907-95.9296872 165.324219-1.8359378 67.824219 30.8671872 131.941407 86.8476562 170.273438l-16.519531 3.304687 3.136718 15.679688 40-8c2.089844-.410156 3.933594-1.636719 5.117188-3.40625 1.183594-1.773438 1.609375-3.945313 1.1875-6.035156l-8-40-15.679688 3.136718 5.136719 25.703125c-52.15625-33.148437-84.179687-90.273437-85.246093-152.066406-1.066407-61.789063 28.964843-119.984375 79.949218-154.914063v31.742188c0 4.417969 3.582032 8 8 8h128c4.417969 0 8-3.582031 8-8v-24h24c4.417969 0 8-3.582031 8-8v-80c0-4.417969-3.582031-8-8-8h-128c-4.417968 0-8 3.582031-8 8zm96 104h-112v-64h16v40c0 4.417969 3.582032 8 8 8h88zm-80-96h112v64h-112zm0 0"/><path d="m200.003906 76c15.464844 0 28-12.535156 28-28s-12.535156-28-28-28-28 12.535156-28 28 12.535156 28 28 28zm0-40c6.625 0 12 5.371094 12 12s-5.375 12-12 12c-6.628906 0-12-5.371094-12-12s5.371094-12 12-12zm0 0"/><path d="m256.003906 472v-88c0-4.417969-3.582031-8-8-8h-96c-4.417968 0-8 3.582031-8 8v88c0 4.417969 3.582032 8 8 8h96c4.417969 0 8-3.582031 8-8zm-48-80v24h-16v-24zm32 72h-80v-72h16v32c0 4.417969 3.582032 8 8 8h32c4.417969 0 8-3.582031 8-8v-32h16zm0 0"/><path d="m200.003906 160c-53.019531 0-96 42.980469-96 96s42.980469 96 96 96c53.019532 0 96-42.980469 96-96-.058594-52.996094-43.003906-95.941406-96-96zm-79.59375 104h40.289063c.324219 10.714844 1.296875 21.402344 2.910156 32h-32.796875c-5.71875-9.796875-9.265625-20.710938-10.402344-32zm40.289063-16h-40.289063c1.136719-11.289062 4.683594-22.203125 10.402344-32h32.796875c-1.613281 10.597656-2.585937 21.285156-2.910156 32zm19.085937-32h40.921875c1.71875 10.589844 2.75 21.277344 3.097657 32h-47.105469c.34375-10.722656 1.375-21.410156 3.085937-32zm-3.085937 48h47.105469c-.347657 10.722656-1.378907 21.410156-3.097657 32h-40.921875c-1.710937-10.589844-2.742187-21.277344-3.085937-32zm63.105469 0h39.789062c-1.132812 11.289062-4.679688 22.203125-10.398438 32h-32.304687c1.613281-10.597656 2.585937-21.285156 2.914063-32zm0-16c-.328126-10.714844-1.300782-21.402344-2.914063-32h32.289063c5.71875 9.796875 9.265624 20.710938 10.398437 32zm17.230468-48h-23.039062c-1.328125-6.167969-2.921875-12.289062-4.6875-18.398438 10.421875 4.128907 19.867187 10.398438 27.726562 18.398438zm-45.976562-23.144531c2.554687 7.632812 4.730468 15.347656 6.527344 23.144531h-34.671876c1.792969-7.824219 3.980469-15.558594 6.5625-23.199219 7.160157-1.0625 14.445313-1.035156 21.597657.078125zm-39.800782 4.578125c-1.800781 6.140625-3.40625 12.335937-4.75 18.566406h-23.535156c8-8.132812 17.644532-14.460938 28.285156-18.566406zm-28.285156 130.566406h23.535156c1.34375 6.230469 2.949219 12.425781 4.75 18.566406-10.640624-4.105468-20.285156-10.433594-28.285156-18.566406zm46.503906 23.199219c-2.574218-7.652344-4.757812-15.386719-6.5625-23.199219h34.6875c-1.78125 7.792969-3.957031 15.507812-6.527343 23.144531-7.152344 1.113281-14.4375 1.140625-21.597657.078125zm39.832032-4.855469c1.765625-6.078125 3.359375-12.199219 4.6875-18.398438h23.039062c-7.851562 8.019532-17.296875 14.308594-27.726562 18.453126zm0 0"/><path d="m387.476562 170.167969-15 5.601562c1.796876 4.855469 3.398438 9.773438 4.75 14.636719l15.425782-4.277344c-1.449219-5.328125-3.21875-10.671875-5.175782-15.960937zm0 0"/><path d="m355.5 338.441406 13.496094 8.574219c2.957031-4.65625 5.78125-9.535156 8.375-14.511719l-14.167969-7.414062c-2.398437 4.574218-4.992187 9.070312-7.703125 13.351562zm0 0"/><path d="m392.738281 293.601562-15.421875-4.265624c-1.363281 4.894531-2.953125 9.824218-4.746094 14.648437l15 5.601563c1.945313-5.273438 3.6875-10.632813 5.167969-15.984376zm0 0"/><path d="m382.074219 266.753906 15.824219 2.292969c.800781-5.519531 1.382812-11.117187 1.71875-16.65625l-16-.964844c-.277344 5.078125-.804688 10.246094-1.542969 15.328125zm0 0"/><path d="m355.347656 141.34375c2.734375 4.296875 5.335938 8.800781 7.734375 13.335938l14.152344-7.441407c-2.589844-4.941406-5.414063-9.8125-8.390625-14.484375zm0 0"/><path d="m302.011719 393.167969 8.871093 13.3125c4.625-3.082031 9.183594-6.402344 13.542969-9.878907l-9.96875-12.511718c-4.007812 3.183594-8.191406 6.238281-12.445312 9.078125zm0 0"/><path d="m331.433594 111.199219c3.601562 3.671875 7.066406 7.527343 10.320312 11.449219l12.328125-10.167969c-3.535156-4.273438-7.304687-8.457031-11.199219-12.449219zm0 0"/><path d="m382.035156 212.976562c.742188 5.085938 1.28125 10.238282 1.601563 15.328126l16-1c-.347657-5.519532-.929688-11.136719-1.746094-16.65625zm0 0"/><path d="m273.90625 425.910156c5.214844-2.078125 10.34375-4.382812 15.273438-6.839844l-7.136719-14.269531c-4.535157 2.253907-9.273438 4.375-14.070313 6.296875zm0 0"/><path d="m343.042969 379.792969c3.871093-4 7.648437-8.160157 11.199219-12.464844l-12.328126-10.183594c-3.269531 3.960938-6.734374 7.808594-10.304687 11.457031zm0 0"/><path d="m302.652344 71.910156c-4.355469.75-7.277344 4.886719-6.53125 9.242188l6.882812 40.199218 15.765625-2.703124-5.535156-32.320313 32.320313-5.535156-2.703126-15.769531zm0 0"/></svg>