<?xml version="1.0" encoding="iso-8859-1"?>
<!-- Generator: Adobe Illustrator 19.0.0, SVG Export Plug-In . SVG Version: 6.00 Build 0)  -->
<svg version="1.1" id="Capa_1" xmlns="http://www.w3.org/2000/svg" xmlns:xlink="http://www.w3.org/1999/xlink" x="0px" y="0px"
	 viewBox="0 0 483.104 483.104" style="enable-background:new 0 0 483.104 483.104;" xml:space="preserve">
<g>
	<g>
		<path d="M483.104,125.552v-16h-432v16h208v32H232.36c-10.616-0.028-20.802,4.192-28.288,11.72l-37.248,37.248
			c-4.493,4.517-10.605,7.049-16.976,7.032h-93.8l-16-32H0l18.672,56L0,293.552h40.048l16-32h93.8
			c6.371-0.017,12.483,2.515,16.976,7.032l45.248,45.248c7.486,7.528,17.672,11.748,28.288,11.72h18.744v32h-32v16h248v-16h-56v-32
			h16c22.08-0.026,39.974-17.92,40-40v-10.744c0.028-10.616-4.192-20.802-11.72-28.288l-53.248-53.248
			c-7.486-7.528-17.672-11.748-28.288-11.72h-31.432l-12.28-12.28c-7.486-7.528-17.672-11.748-28.288-11.72h-34.744v-32H483.104z
			 M43.104,251.664L30.16,277.552h-7.952l10.664-32h10.232V251.664z M43.104,229.552H32.872l-10.664-32h7.952l12.944,25.888V229.552
			z M403.104,357.552h-128v-32h128V357.552z M355.104,197.552h26.744c6.371-0.017,12.483,2.515,16.976,7.032l53.248,53.248
			c0.993,1.012,1.895,2.11,2.696,3.28c0.224,0.328,0.432,0.664,0.64,0.992c0.584,0.931,1.103,1.901,1.552,2.904
			c0.136,0.296,0.288,0.584,0.408,0.888c0.466,1.187,0.835,2.41,1.104,3.656h-95.368c-4.418,0-8-3.582-8-8V197.552z
			 M309.848,173.552c6.371-0.017,12.483,2.515,16.976,7.032l12.28,12.28v68.688c0,13.255,10.745,24,24,24h96
			c0,13.255-10.745,24-24,24H240.36c-6.371,0.017-12.483-2.515-16.976-7.032l-45.248-45.248
			c-7.486-7.528-17.672-11.748-28.288-11.72H59.104v-16h90.744c10.616,0.028,20.802-4.192,28.288-11.72l37.248-37.248
			c4.493-4.517,10.605-7.049,16.976-7.032H309.848z"/>
	</g>
</g>
<g>
	<g>
		<path d="M299.104,189.552h-16c-13.255,0-24,10.745-24,24v48c0,13.255,10.745,24,24,24h16c13.255,0,24-10.745,24-24v-48
			C323.104,200.297,312.359,189.552,299.104,189.552z M307.104,261.552c0,4.418-3.582,8-8,8h-16c-4.418,0-8-3.582-8-8v-48
			c0-4.418,3.582-8,8-8h16c4.418,0,8,3.582,8,8V261.552z"/>
	</g>
</g>
<g>
</g>
<g>
</g>
<g>
</g>
<g>
</g>
<g>
</g>
<g>
</g>
<g>
</g>
<g>
</g>
<g>
</g>
<g>
</g>
<g>
</g>
<g>
</g>
<g>
</g>
<g>
</g>
<g>
</g>
</svg>
