<?xml version="1.0" encoding="iso-8859-1"?>
<!-- Generator: Adobe Illustrator 19.0.0, SVG Export Plug-In . SVG Version: 6.00 Build 0)  -->
<svg version="1.1" id="Capa_1" xmlns="http://www.w3.org/2000/svg" xmlns:xlink="http://www.w3.org/1999/xlink" x="0px" y="0px"
	 viewBox="0 0 480 480" style="enable-background:new 0 0 480 480;" xml:space="preserve">
<g>
	<g>
		<path d="M472.004,0c-0.001,0-0.003,0-0.004,0H8C3.583-0.001,0.001,3.579,0,7.996C0,7.997,0,7.999,0,8v464
			c-0.001,4.417,3.579,7.999,7.996,8c0.001,0,0.003,0,0.004,0h464c4.417,0.001,7.999-3.579,8-7.996c0-0.001,0-0.003,0-0.004V8
			C480.001,3.583,476.421,0.001,472.004,0z M464,464H16V16h144.272c2.771,53.713,33.4,88,79.728,88h16c30.928,0,56,25.072,56,56
			c0,30.928-25.072,56-56,56h-24c-43.063,0-72,33.758-72,84c0.052,46.37,37.63,83.948,84,84h220V464z M464,368H244
			c-37.537-0.043-67.957-30.463-68-68c0-31.367,14.664-68,56-68h24c39.765,0,72-32.236,72-72c0-39.765-32.235-72-72-72h-16
			c-43.943,0-61.525-35.838-63.738-72H464V368z"/>
	</g>
</g>
<g>
	<g>
		<path d="M72,32c-22.091,0-40,17.909-40,40s17.909,40,40,40c22.081-0.026,39.974-17.919,40-40C112,49.909,94.091,32,72,32z M72,96
			c-13.255,0-24-10.745-24-24s10.745-24,24-24s24,10.745,24,24C95.986,85.249,85.249,95.986,72,96z"/>
	</g>
</g>
<g>
	<g>
		<path d="M271.156,172.422l-24-48c-2.355-3.952-7.468-5.247-11.42-2.892c-1.19,0.709-2.184,1.703-2.893,2.892l-24,48
			c-1.976,3.952-0.373,8.758,3.579,10.734c1.111,0.555,2.336,0.844,3.577,0.844h48c4.419,0,8.001-3.582,8.001-8.001
			C272.001,174.757,271.712,173.533,271.156,172.422z M228.945,168L240,145.887L251.055,168H228.945z"/>
	</g>
</g>
<g>
	<g>
		<path d="M296.004,272c-0.001,0-0.003,0-0.004,0h-48c-4.417-0.001-7.999,3.579-8,7.996c0,0.001,0,0.003,0,0.004v48
			c-0.001,4.417,3.579,7.999,7.996,8c0.001,0,0.003,0,0.004,0h48c4.417,0.001,7.999-3.579,8-7.996c0-0.001,0-0.003,0-0.004v-48
			C304.001,275.583,300.421,272.001,296.004,272z M288,320h-32v-32h32V320z"/>
	</g>
</g>
<g>
	<g>
		<polygon points="424,232 424,208 408,208 408,232 384,232 384,248 408,248 408,272 424,272 424,248 448,248 448,232 		"/>
	</g>
</g>
<g>
	<g>
		<path d="M431.156,68.422l-16-32C413.8,33.712,411.03,32,408,32h-32c-3.03,0-5.8,1.712-7.156,4.422l-16,32
			c-1.125,2.253-1.125,4.904,0,7.156l16,32C370.2,110.288,372.97,112,376,112h32c3.03,0,5.8-1.712,7.156-4.422l16-32
			C432.281,73.325,432.281,70.675,431.156,68.422z M403.055,96h-22.109l-12-24l12-24h22.109l12,24L403.055,96z"/>
	</g>
</g>
<g>
	<g>
		<rect x="32" y="152" width="32" height="16"/>
	</g>
</g>
<g>
	<g>
		<rect x="80" y="152" width="32" height="16"/>
	</g>
</g>
<g>
	<g>
		<rect x="128" y="152" width="32" height="16"/>
	</g>
</g>
<g>
	<g>
		<rect x="144" y="184" width="16" height="32"/>
	</g>
</g>
<g>
	<g>
		<rect x="128" y="232" width="32" height="16"/>
	</g>
</g>
<g>
	<g>
		<rect x="96" y="232" width="16" height="32"/>
	</g>
</g>
<g>
	<g>
		<rect x="96" y="280" width="16" height="32"/>
	</g>
</g>
<g>
	<g>
		<rect x="96" y="328" width="16" height="32"/>
	</g>
</g>
<g>
	<g>
		<rect x="96" y="376" width="32" height="16"/>
	</g>
</g>
<g>
	<g>
		<polygon points="194.912,397.656 183.6,386.344 166.632,403.312 149.656,386.344 138.344,397.656 155.312,414.624 138.344,431.6 
			149.656,442.912 166.632,425.936 183.6,442.912 194.912,431.6 177.944,414.624 		"/>
	</g>
</g>
<g>
	<g>
		<rect x="432" y="408" width="16" height="16"/>
	</g>
</g>
<g>
	<g>
		<rect x="400" y="408" width="16" height="16"/>
	</g>
</g>
<g>
	<g>
		<rect x="368" y="408" width="16" height="16"/>
	</g>
</g>
<g>
	<g>
		<rect x="336" y="408" width="16" height="16"/>
	</g>
</g>
<g>
	<g>
		<rect x="304" y="408" width="16" height="16"/>
	</g>
</g>
<g>
	<g>
		<rect x="272" y="408" width="16" height="16"/>
	</g>
</g>
<g>
	<g>
		<rect x="240" y="408" width="16" height="16"/>
	</g>
</g>
<g>
	<g>
		<rect x="208" y="408" width="16" height="16"/>
	</g>
</g>
<g>
</g>
<g>
</g>
<g>
</g>
<g>
</g>
<g>
</g>
<g>
</g>
<g>
</g>
<g>
</g>
<g>
</g>
<g>
</g>
<g>
</g>
<g>
</g>
<g>
</g>
<g>
</g>
<g>
</g>
</svg>
