<svg id="Layer_1" enable-background="new 0 0 512 512" height="512" viewBox="0 0 512 512" width="512" xmlns="http://www.w3.org/2000/svg"><g><path d="m256 312.447c-13.233 0-24-10.767-24-24s10.767-24 24-24 24 10.767 24 24-10.767 24-24 24z"/><path d="m436.897 75.55c-48.43-48.432-112.674-75.103-180.898-75.103-68.381 0-132.668 26.629-181.02 74.98s-74.979 112.639-74.979 181.02c0 66.065 25.24 128.678 70.102 176h-22.102c-8.837 0-16 7.164-16 16s7.163 16 16 16h64c8.837 0 16-7.164 16-16v-64c0-8.836-7.163-16-16-16s-16 7.164-16 16v28.765c-40.918-41.72-64-97.667-64-156.765 0-123.514 100.485-224 223.999-224 59.676 0 115.885 23.343 158.271 65.73s65.73 98.595 65.73 158.271c0 116.747-87.56 212.655-203.67 223.09-1.431.12-2.431-.487-3.021-1.025-.598-.546-1.31-1.505-1.31-2.969v-92.438c45.345-7.64 80-47.176 80-94.659v-64c0-8.836-7.163-16-16-16h-16v-48c0-8.836-7.163-16-16-16s-16 7.164-16 16v48h-64v-48c0-8.836-7.163-16-16-16s-16 7.164-16 16v48h-16c-8.837 0-16 7.164-16 16v64c0 47.484 34.655 87.019 80 94.659v92.438c0 10.088 4.271 19.779 11.719 26.587 6.645 6.075 15.35 9.421 24.281 9.421 1.063 0 2.128-.047 3.194-.143 63.396-5.698 122.118-34.745 165.35-81.791 43.501-47.337 67.457-108.837 67.457-173.17 0-68.224-26.672-132.468-75.103-180.898zm-244.897 212.897v-48h128v48c0 35.29-28.71 64-64 64s-64-28.71-64-64z"/></g></svg>