<?xml version="1.0" encoding="utf-8"?>
<!-- Generator: Adobe Illustrator 24.2.2, SVG Export Plug-In . SVG Version: 6.00 Build 0)  -->
<svg version="1.1" id="Layer_1" xmlns="http://www.w3.org/2000/svg" xmlns:xlink="http://www.w3.org/1999/xlink" x="0px" y="0px"
	 viewBox="0 0 290.5 290.8" style="enable-background:new 0 0 290.5 290.8;" xml:space="preserve">
<g id="dOuOer_1_">
	<g>
		<path d="M62.9,281.2c0-3,0-6,0-9.3c1.4,0,2.5,0,3.6,0c41.9,0,83.9-0.1,125.8,0c31.7,0.1,61.4-21.9,68.3-55.7
			c6.9-33.9-11.8-66.9-43.6-78.9c-8.1-3.1-16.4-4.6-25-4.5c-28.5,0.1-57.1,0-85.6,0c-15.9,0-27.5-9.5-29.3-25.2
			c-1.6-13.7,7.4-26.8,22.4-29.8c2.7-0.5,5.5-0.6,8.3-0.6c28.5,0,57.1,0,85.6,0c1.1,0,2.3,0,3.5,0c0,3.1,0,6,0,9.3
			c-1.1,0-2.2,0-3.3,0c-29.8,0-59.6,0-89.4,0c-8.7,0-16.2,6.4-18.1,15.3c-1.6,7.7,3,16.9,10.5,19.9c2.7,1.1,5.8,1.7,8.7,1.8
			c28.3,0.1,56.7,0.1,85,0.1c22.2,0,41.5,7.3,57.4,22.9c12.5,12.3,20,27.3,22.4,44.9c2.8,20.5-1.6,39.2-13.3,56.1
			c-12.2,17.6-29.2,28.1-50,32.5c-3,0.6-6.1,0.9-9.1,1.3C152.7,281.2,107.8,281.2,62.9,281.2z"/>
		<path d="M277,2.9c3.9,2.5,4.3,4.2,1.9,8.3c-3.4,5.8-6.8,11.6-10.4,17.3c-1,1.6-1.1,2.8-0.1,4.4c3.6,5.8,7.1,11.7,10.6,17.6
			c2.9,4.8,1,8.1-4.6,8.1c-18.4,0-36.8,0-55.2,0c-1,0-2.1,0-3.4,0c0,9.3,0,18.4,0,27.7c-3.2,0-6,0-9.3,0c0-1,0-2.1,0-3.1
			c0-24.5,0-49.1,0-73.6c0-3,0.8-5.2,3.5-6.6C232.2,2.9,254.6,2.9,277,2.9z M267.6,49.2c-1.9-3.2-3.7-6.2-5.4-9.1
			c-6.5-11.3-6.6-7.1,0.1-18.7c1.7-2.9,3.4-5.9,5.2-8.9c-17.5,0-34.6,0-51.7,0c0,12.4,0,24.6,0,36.8
			C233.1,49.2,250.2,49.2,267.6,49.2z"/>
		<path d="M38.6,281.2c-5-5.1-10.4-10-15-15.5C14.6,255,7.5,243.2,4.2,229.4c-3.6-15.2-1.1-29.1,10.7-40c10-9.2,22-12.6,35.2-8.4
			c13.3,4.3,22,13.4,25.4,27.1c3.3,13.4-0.5,25.7-6.5,37.5c-6.3,12.5-15.1,23.2-25,33c-0.9,0.9-2.1,1.6-3.1,2.5
			C40.1,281.2,39.3,281.2,38.6,281.2z M39.7,270.1c10.7-11.1,19.7-22.8,25-37.1c2.6-7.2,3.8-14.5,2.3-22.1
			c-3-14.8-18.2-25.1-32.5-21.9c-13,2.9-22.3,14.5-22.5,27.9c-0.1,8.3,2.2,15.9,5.8,23.2C23.2,251.3,30.7,261,39.7,270.1z"/>
		<path d="M86.1,244.1c0-3.2,0-6,0-9.3c1.1,0,2.2,0,3.4,0c34.2,0,68.5,0,102.7,0c16.8,0,30.6-11.9,32.6-28.7
			c2-16.4-8.7-31.3-23.7-35.1c-2.7-0.7-5.5-1.1-8.2-1.1c-28.9-0.1-57.9,0.1-86.8-0.1c-10.5-0.1-20.8-1.9-30.3-6.9
			c-19.3-10.1-31.1-25.8-34.8-47.4c-3.3-18.8,1.3-35.8,13-50.7c10.1-13,23.6-21.1,40-23.6c5.5-0.8,11.1-1.1,16.7-1.2
			c27.6-0.1,55.2-0.1,82.7-0.1c1.2,0,2.3,0,3.7,0c0,3,0,6,0,9.3c-1.1,0-2.2,0-3.4,0c-29.7,0-59.4,0-89.1,0
			c-27,0-50.2,19.6-54.8,46.2c-5,29.3,14,57.6,43.2,63.9c3.4,0.8,7,1.1,10.6,1.2c29.7,0.1,59.4,0,89.1,0.1
			c17.6,0,33.2,11.2,39.1,27.7c9.1,25.4-8,52.5-34.8,55.2c-3.2,0.3-6.3,0.5-9.5,0.5c-32.5,0-65,0-97.5,0
			C88.6,244.1,87.5,244.1,86.1,244.1z"/>
		<path d="M135.1,142.2c6.4,0,12.3,0,18.4,0c0,3,0,5.9,0,8.9c-6.1,0-12.1,0-18.4,0C135.1,148.2,135.1,145.2,135.1,142.2z"/>
		<path d="M191,151.2c-6.1,0-12.1,0-18.4,0c0-2.9,0-5.9,0-8.9c6.1,0,12.1,0,18.4,0C191,145.2,191,148.1,191,151.2z"/>
		<path d="M96.4,150.9c0.6-3.4,1.1-6.3,1.6-9c6,0,11.7,0,17.7,0c0,3.2,0,6.1,0,9C109.4,150.9,103.1,150.9,96.4,150.9z"/>
		<path d="M199.4,262.2c-6.4,0-12.6,0-19,0c0-2.7,0-5.6,0-8.9c5.7,0,11.3,0,17,0.1c0.4,0,1.1,0.8,1.2,1.3
			C199,257,199.1,259.4,199.4,262.2z"/>
		<path d="M131.1,67.7c-6.1,0-12,0-18.2,0c0-2.9,0-5.8,0-8.9c6,0,12,0,18.2,0C131.1,61.7,131.1,64.5,131.1,67.7z"/>
		<path d="M168.6,67.7c-6.1,0-12.1,0-18.2,0c0-3,0-5.8,0-8.9c5.9,0,11.9,0,18.2,0C168.6,61.6,168.6,64.5,168.6,67.7z"/>
		<path d="M105.2,262.4c0-3,0-5.8,0-8.9c6.1,0,12.1,0,18.3,0c0,2.9,0,5.8,0,8.9C117.5,262.4,111.5,262.4,105.2,262.4z"/>
		<path d="M142.9,253.5c6.1,0,12.1,0,18.2,0c0,3,0,5.9,0,9c-6,0-12,0-18.2,0C142.9,259.5,142.9,256.6,142.9,253.5z"/>
		<path d="M62.1,86.6c2.9,1.2,5.5,2.4,7.8,3.4c-1,5.4-2,10.6-3.1,16.4c-2.3,0.1-5.2,0.3-8.4,0.5C58.1,99.7,59.4,93.2,62.1,86.6z"/>
		<path d="M219.3,256.9c-1.6-3.3-2.9-5.9-4.1-8.4c4.6-3.3,9.2-6.6,13.9-10.1c1.7,1.9,3.6,4.1,5.9,6.8
			C230.3,248.8,225,252.7,219.3,256.9z"/>
		<path d="M73.9,69.1c6.4-3.3,12.2-6.4,18.5-9.6c0.9,3.2,1.7,5.5,2.1,7.9c0.1,0.6-0.6,1.8-1.2,2.1c-4.3,2.2-8.7,4.3-13.4,6.6
			C78.5,74.4,76.6,72.1,73.9,69.1z"/>
		<path d="M223.7,161.4c-5-2.7-9.9-5.3-15.1-8.1c0.8-2.4,1.6-5.1,2.5-8.1c6.5,2,12.3,5.1,17.8,9.4
			C227.1,157,225.3,159.3,223.7,161.4z"/>
		<path d="M246.9,227.7c-2.8-1.3-5.3-2.4-7.6-3.5c1.2-5.2,2.4-10.2,3.7-15.1c0.2-0.6,1.3-1.4,2-1.4c2.3,0.1,4.6,0.5,7.1,0.8
			C251.6,215.1,249.9,221.4,246.9,227.7z"/>
		<path d="M71.3,122.9c3.7,4.2,7.2,8.3,11,12.5c-1.3,1.9-3,4.2-4.9,6.8c-5.7-4-10-9.1-13.5-15.4C66.5,125.5,69.1,124.1,71.3,122.9z"
			/>
		<path d="M243.3,169.3c2.7,6.3,5.3,12.1,8,18.4c-3.4,0.9-6.2,1.6-8.9,2.3c-2.3-5.2-4.5-10.3-6.8-15.7
			C237.8,172.9,240.2,171.3,243.3,169.3z"/>
		<path d="M188.1,58.7c3,0,5.8,0,8.8,0c0,3,0,5.9,0,9c-2.9,0-5.8,0-8.8,0C188.1,64.8,188.1,61.9,188.1,58.7z"/>
		<path d="M85.8,262.5c-3,0-5.8,0-8.8,0c0-3,0-5.9,0-9c2.9,0,5.8,0,8.8,0C85.8,256.4,85.8,259.3,85.8,262.5z"/>
		<path d="M39.8,197.7c9.8,0,18.7,8.6,18.4,18.4c-0.4,10.9-7.3,18.4-18.4,18.4c-11.3,0-18.1-7.8-18.4-18.5
			C21,206.3,30,197.7,39.8,197.7z M39.8,207c-5.2,0-9.4,4.1-9.4,9.3c0,5.1,4,9.2,9,9.3c5.3,0.1,9.4-4,9.5-9.1
			C49.1,211.2,45,207,39.8,207z"/>
	</g>
</g>
</svg>
