<?xml version="1.0" standalone="no"?>
<!DOCTYPE svg PUBLIC "-//W3C//DTD SVG 1.1//EN" "http://www.w3.org/Graphics/SVG/1.1/DTD/svg11.dtd" >
<svg xmlns="http://www.w3.org/2000/svg" xmlns:xlink="http://www.w3.org/1999/xlink" version="1.1">
<metadata></metadata>
<defs>
<font id="nobelbold" horiz-adv-x="1495" >
<font-face units-per-em="2048" ascent="1638" descent="-410" />
<missing-glyph horiz-adv-x="460" />
<glyph horiz-adv-x="0" />
<glyph horiz-adv-x="682" />
<glyph unicode=" "  horiz-adv-x="460" />
<glyph unicode="&#x09;" horiz-adv-x="460" />
<glyph unicode="&#xa0;" horiz-adv-x="460" />
<glyph unicode="!" horiz-adv-x="626" d="M154 0v299h319v-299h-319zM154 944v551h319v-551l-47 -534h-225z" />
<glyph unicode="&#x22;" horiz-adv-x="921" d="M102 1194v301h295v-301l-55 -287h-184zM524 1194v301h295v-301l-55 -287h-184z" />
<glyph unicode="#" horiz-adv-x="1404" d="M123 383v227h194l25 281h-219v227h239l33 377h256l-33 -377h234l33 377h256l-33 -377h174v-227h-195l-24 -281h219v-227h-240l-32 -383h-256l32 383h-233l-33 -383h-256l33 383h-174zM573 610h234l24 281h-233z" />
<glyph unicode="$" horiz-adv-x="1406" d="M66 272l198 193q68 -70 163 -123.5t198 -71.5v375q-87 17 -155.5 37.5t-138 55.5t-115.5 80t-74.5 112.5t-28.5 150.5q0 121 68 212t182 140.5t262 61.5v143h176v-143q145 -16 262.5 -76.5t230.5 -156.5l-188 -197q-56 57 -137 100t-168 60v-320q64 -14 116 -28 t108.5 -35.5t99.5 -46.5t83 -60.5t66 -77t41.5 -96.5t15.5 -119q0 -84 -29 -154t-78.5 -119.5t-118 -85.5t-144 -56t-160.5 -27v-205h-176v205q-163 13 -299 80t-260 192zM420 1081q0 -50 52.5 -81.5t152.5 -55.5v285q-205 -20 -205 -148zM801 266q223 29 223 156 q0 72 -52.5 114t-170.5 72v-342z" />
<glyph unicode="%" horiz-adv-x="1576" d="M76 1133q0 165 89.5 276t223.5 111q136 0 222.5 -111t86.5 -270q0 -167 -89.5 -279t-225.5 -112q-56 0 -109.5 24.5t-98 70.5t-72 121.5t-27.5 168.5zM133 0l1022 1495h289l-1022 -1495h-289zM287 1133q0 -205 96 -205q102 0 102 205q0 87 -23 146.5t-75 59.5 q-53 0 -76.5 -58t-23.5 -148zM893 360q0 165 89.5 276.5t223.5 111.5q136 0 223 -111t87 -270q0 -167 -90 -279.5t-226 -112.5q-56 0 -109.5 24.5t-98 70.5t-72 121.5t-27.5 168.5zM1104 360q0 -204 96 -204q103 0 103 204q0 87 -23.5 147t-75.5 60q-36 0 -59.5 -30.5 t-32 -75t-8.5 -101.5z" />
<glyph unicode="&#x26;" horiz-adv-x="1413" d="M45 426q0 72 23 136t66.5 116t90 91.5t109.5 80.5q-45 54 -62.5 77.5t-44.5 67t-37 85t-10 91.5q0 101 57.5 182t149 124t195.5 43q106 0 198.5 -44.5t150.5 -127.5t58 -185q0 -60 -20.5 -112.5t-62 -96t-83 -75.5t-102.5 -70l276 -346q70 70 164 180l180 -203 q-82 -99 -176 -188l203 -252h-352l-70 86q-187 -111 -377 -111q-98 0 -192.5 33.5t-168 91.5t-118.5 143.5t-45 182.5zM360 442q0 -93 76 -152t174 -59q80 0 174 58l-297 370q-127 -101 -127 -217zM467 1171q0 -23 18.5 -56.5t32.5 -51.5t53 -66q68 44 105 87t37 92 q0 51 -36.5 83.5t-90.5 32.5q-47 0 -83 -37.5t-36 -83.5z" />
<glyph unicode="'" horiz-adv-x="512" d="M102 1194v301h295v-301l-55 -287h-184z" />
<glyph unicode="(" horiz-adv-x="741" d="M82 596q0 156 48 304.5t129.5 266.5t188.5 209t228 144v-273q-121 -135 -179.5 -288.5t-58.5 -362.5q0 -216 55 -377.5t183 -310.5v-275q-288 140 -441 386.5t-153 576.5z" />
<glyph unicode=")" horiz-adv-x="741" d="M66 -92q128 149 182.5 310.5t54.5 377.5q0 209 -58 362.5t-179 288.5v273q121 -53 227.5 -144t188.5 -209t129.5 -266.5t47.5 -304.5q0 -330 -152.5 -576.5t-440.5 -386.5v275z" />
<glyph unicode="*" horiz-adv-x="872" d="M51 1169l39 123l242 -37l39 240h127l37 -240l241 37l45 -121l-217 -114l107 -215l-103 -78l-174 172l-172 -170l-104 74l108 219z" />
<glyph unicode="+" horiz-adv-x="1110" d="M72 545v266h346v330h274v-330h346v-266h-346v-330h-274v330h-346z" />
<glyph unicode="," horiz-adv-x="512" d="M39 -213q63 94 63 238v284h295v-233q0 -105 -43 -201t-121 -203z" />
<glyph unicode="-" horiz-adv-x="778" d="M82 418v270h614v-270h-614z" />
<glyph unicode="." horiz-adv-x="512" d="M102 0v309h308v-309h-308z" />
<glyph unicode="/" horiz-adv-x="909" d="M41 0l520 1495h307l-518 -1495h-309z" />
<glyph unicode="0" horiz-adv-x="1316" d="M53 754q0 220 70 392.5t207 273t321 100.5t321.5 -100.5t208 -273t70.5 -392.5q0 -227 -70.5 -402.5t-207.5 -276t-322 -100.5t-321.5 100.5t-206.5 276t-70 402.5zM393 754q0 -90 11.5 -171.5t38.5 -159.5t80.5 -124.5t127.5 -46.5q63 0 111 32t75.5 81t45 118.5 t23 133.5t5.5 137q0 71 -6.5 135.5t-25 131t-46.5 114t-75 78t-107 30.5q-62 0 -109.5 -30.5t-75 -78t-45 -115t-23 -130.5t-5.5 -135z" />
<glyph unicode="1" horiz-adv-x="819" d="M41 952v242q70 9 122 26t103.5 50t94 88.5t79.5 136.5h240v-1495h-328v1065q-96 -96 -311 -113z" />
<glyph unicode="2" horiz-adv-x="1187" d="M47 0l629 850q49 66 68.5 115t19.5 122q0 70 -44 118t-116 48q-209 0 -209 -209v-32h-307v32q0 117 43 209.5t116 149.5t164 87t193 30q100 0 187.5 -28t155 -80.5t106.5 -136t39 -188.5q0 -106 -36 -187.5t-106 -172.5l-346 -451h475v-276h-1032z" />
<glyph unicode="3" horiz-adv-x="1224" d="M33 197l174 204q71 -65 164 -102t196 -37q105 0 174.5 54t69.5 145q0 98 -70 139t-211 41h-92v266h129q107 0 157 39.5t50 134.5q0 67 -60 109.5t-147 42.5q-101 0 -169 -20t-130 -74l-153 215q114 91 224 128.5t259 37.5q127 0 241 -48t188.5 -142t74.5 -212 q0 -113 -56 -197t-157 -122q116 -32 183 -123t67 -215q0 -215 -155.5 -350.5t-416.5 -135.5q-325 0 -534 222z" />
<glyph unicode="4" horiz-adv-x="1210" d="M31 365v192l674 938h262v-885h172v-245h-172v-365h-328v365h-608zM324 610h315v445z" />
<glyph unicode="5" horiz-adv-x="1228" d="M61 158l177 221q140 -117 303 -117q103 0 178.5 76t75.5 188q0 118 -70.5 185t-163.5 67q-69 0 -139 -40.5t-119 -114.5l-190 71l82 801h821v-266h-574l-28 -264q60 47 118.5 63t147.5 16q196 0 319 -141t123 -377q0 -155 -79 -282t-212 -198t-290 -71q-139 0 -267 52 t-213 131z" />
<glyph unicode="6" horiz-adv-x="1228" d="M45 504q0 127 37.5 256.5t97 239t141.5 215t163 186t169 151.5l197 -229q-118 -89 -228.5 -207.5t-146.5 -208.5q64 50 120.5 66t143.5 16q126 0 231 -65.5t164.5 -176.5t59.5 -243q0 -232 -165.5 -380.5t-424.5 -148.5q-246 0 -402.5 151t-156.5 378zM373 498 q0 -114 67 -185t178 -71q109 0 178.5 72t69.5 184q0 103 -71.5 171t-176.5 68q-108 0 -176.5 -67.5t-68.5 -171.5z" />
<glyph unicode="7" horiz-adv-x="1208" d="M119 1219v276h1050l-680 -1495h-344l600 1219h-626z" />
<glyph unicode="8" horiz-adv-x="1302" d="M61 432q0 250 265 373q-94 58 -142.5 124t-48.5 165q0 195 135.5 310.5t380.5 115.5q246 0 384.5 -115.5t138.5 -310.5q0 -100 -45 -166t-136 -123q124 -57 186 -151t62 -242q0 -130 -78.5 -230.5t-212 -153.5t-299.5 -53q-167 0 -300 53.5t-211.5 158.5t-78.5 245z M379 461q0 -97 81.5 -158t190.5 -61q110 0 191.5 61t81.5 158q0 67 -40 115t-100.5 70t-132.5 22q-112 0 -192 -54t-80 -153zM442 1094q0 -84 59.5 -132.5t149.5 -48.5t152.5 49t62.5 132q0 78 -64 124t-151 46q-86 0 -147.5 -46t-61.5 -124z" />
<glyph unicode="9" horiz-adv-x="1228" d="M33 991q0 232 165.5 380.5t424.5 148.5q246 0 402.5 -151t156.5 -378q0 -126 -43.5 -262t-110 -251t-150.5 -223t-160.5 -184t-144.5 -128l-196 229q118 89 228.5 207.5t146.5 208.5q-64 -50 -120.5 -66t-144.5 -16q-126 0 -231 65.5t-164 176.5t-59 243zM360 997 q0 -103 71.5 -171t176.5 -68q108 0 177 68t69 171q0 114 -67.5 185t-178.5 71q-109 0 -178.5 -72t-69.5 -184z" />
<glyph unicode=":" horiz-adv-x="512" d="M102 0v309h308v-309h-308zM102 573v310h308v-310h-308z" />
<glyph unicode=";" horiz-adv-x="512" d="M39 -213q63 94 63 238v284h295v-233q0 -105 -43 -201t-121 -203zM102 573v310h308v-310h-308z" />
<glyph unicode="&#x3c;" horiz-adv-x="798" d="M78 526v277l596 405v-317l-361 -225l361 -228v-321z" />
<glyph unicode="=" horiz-adv-x="1069" d="M113 303v266h843v-266h-843zM113 795v266h843v-266h-843z" />
<glyph unicode="&#x3e;" horiz-adv-x="798" d="M125 123v317l360 226l-360 227v321l596 -409v-277z" />
<glyph unicode="?" horiz-adv-x="942" d="M31 1354q158 166 395 166q201 0 330 -105.5t129 -277.5q0 -45 -13 -91.5t-28.5 -80.5t-48.5 -82t-51.5 -71t-59.5 -73q-133 -163 -133 -293v-47h-295v47q0 188 139 361q11 14 48.5 61.5t50 65.5t35 53t30.5 61t8 52q0 67 -41 114.5t-100 47.5q-72 0 -122 -29t-105 -86z M244 0v299h319v-299h-319z" />
<glyph unicode="@" horiz-adv-x="1728" d="M92 748q0 157 61 300t164.5 246.5t246.5 164.5t300 61q171 0 317 -56t245 -152t154.5 -226t55.5 -277q0 -99 -27 -185t-69 -142t-93 -96.5t-98.5 -58.5t-86.5 -18q-73 0 -131 25.5t-87 66.5q-129 -92 -266 -92q-152 0 -235.5 81.5t-83.5 205.5q0 146 130 228.5t333 82.5 h116q0 75 -35.5 102t-123.5 27q-162 0 -267 -47l-63 166q56 33 142 49.5t165 16.5q393 0 393 -254v-471q0 -47 49 -47q77 0 146 93t69 255q0 124 -46 232.5t-128.5 188t-204.5 125.5t-268 46q-176 0 -324 -84.5t-234.5 -234t-86.5 -331.5q0 -181 86.5 -329.5t234.5 -232 t324 -83.5q141 0 260 56l50 -107q-151 -68 -312 -68q-157 0 -300 61.5t-246.5 165t-164.5 246.5t-61 300zM678 598q0 -98 153 -98q123 0 203 69v160h-106q-122 0 -186 -34.5t-64 -96.5z" />
<glyph unicode="A" horiz-adv-x="1454" d="M31 0l534 1495h316l542 -1495h-360l-115 377h-454l-117 -377h-346zM580 653h286l-110 365l-33 121q-15 -66 -31 -121z" />
<glyph unicode="B" horiz-adv-x="1351" d="M154 0v1495h518q237 0 378.5 -107t141.5 -294q0 -110 -63 -196t-162 -124q129 -19 216 -120t87 -230q0 -199 -147.5 -311.5t-401.5 -112.5h-567zM481 276h240q112 0 161.5 42.5t49.5 123.5q0 154 -211 154h-240v-320zM481 872h160q229 0 229 183q0 90 -57 127t-172 37 h-160v-347z" />
<glyph unicode="C" horiz-adv-x="1474" d="M82 756q0 165 59.5 308.5t161.5 242.5t241.5 156t295.5 57q166 0 295 -52.5t243 -169.5l-184 -215q-150 150 -354 150q-189 0 -304.5 -134t-115.5 -343q0 -233 110.5 -363.5t315.5 -130.5q67 0 122.5 12.5t102.5 40t77 51.5t75 66l188 -215q-111 -120 -245 -181t-320 -61 q-169 0 -311 55t-242 155.5t-155.5 247t-55.5 323.5z" />
<glyph unicode="D" horiz-adv-x="1466" d="M154 0v1495h452q161 0 301.5 -49.5t247 -141.5t168 -235t61.5 -319q0 -179 -65.5 -324.5t-175 -236.5t-248 -140t-289.5 -49h-452zM481 276h125q135 0 237 66.5t153 173t51 234.5q0 199 -123.5 334t-317.5 135h-125v-943z" />
<glyph unicode="E" horiz-adv-x="1171" d="M154 0v1495h870v-276h-543v-351h504v-276h-504v-316h574v-276h-901z" />
<glyph unicode="F" horiz-adv-x="1067" d="M154 0v1495h800v-276h-473v-357h443v-276h-443v-586h-327z" />
<glyph unicode="G" horiz-adv-x="1648" d="M82 754q0 170 60.5 314.5t163.5 243t242 153.5t294 55q350 0 577 -244l-202 -199q-144 156 -375 156q-122 0 -223 -66t-157 -175.5t-56 -237.5q0 -131 56.5 -243.5t158.5 -180.5t227 -68q137 0 232 54.5t137 160.5h-381v277h743q0 -181 -57 -329.5t-156 -246t-232 -150.5 t-286 -53q-220 0 -394.5 98t-273 276t-98.5 405z" />
<glyph unicode="H" horiz-adv-x="1482" d="M154 0v1495h327v-621h520v621h328v-1495h-328v598h-520v-598h-327z" />
<glyph unicode="I" horiz-adv-x="634" d="M154 0v1495h327v-1495h-327z" />
<glyph unicode="J" horiz-adv-x="882" d="M72 0v281h104q119 0 177.5 63t58.5 203v948h327v-1022q0 -137 -67.5 -246t-180.5 -168t-249 -59h-170z" />
<glyph unicode="K" horiz-adv-x="1458" d="M154 0v1495h327v-543l484 543h405l-582 -637l611 -858h-398l-436 612l-84 -92v-520h-327z" />
<glyph unicode="L" horiz-adv-x="1085" d="M154 0v1495h327v-1219h533v-276h-860z" />
<glyph unicode="M" horiz-adv-x="1802" d="M154 0v1495h321l404 -729q7 -13 14 -30t11 -28l3 -10q13 39 27 68l381 729h334v-1495h-328v862l6 105q-13 -35 -27 -60l-333 -612h-125l-340 612l-27 60q6 -52 6 -105v-862h-327z" />
<glyph unicode="N" horiz-adv-x="1609" d="M154 0v1495h282l660 -862q10 -13 19.5 -28.5t13.5 -24.5l4 -9q-5 39 -5 76v848h328v-1495h-282l-660 870l-37 62q4 -39 4 -76v-856h-327z" />
<glyph unicode="O" horiz-adv-x="1703" d="M82 754q0 160 56 301t155.5 243.5t245 162t315.5 59.5q229 0 405 -99t269.5 -272.5t93.5 -394.5q0 -129 -35.5 -247t-103.5 -214t-161 -167.5t-214.5 -111t-257.5 -39.5q-170 0 -315 62t-243.5 167.5t-154 248t-55.5 301.5zM420 754q0 -101 34.5 -192.5t92.5 -157 t137.5 -104t165.5 -38.5q130 0 231 71t152 182t51 239q0 131 -52.5 240t-151.5 174t-226 65q-93 0 -175 -40t-138.5 -106t-88.5 -153t-32 -180z" />
<glyph unicode="P" horiz-adv-x="1247" d="M154 0v1495h495q253 0 400 -115.5t147 -324.5q0 -213 -147 -337t-400 -124h-168v-594h-327zM481 870h168q219 0 219 179q0 90 -54 130t-165 40h-168v-349z" />
<glyph unicode="Q" horiz-adv-x="1703" d="M82 754q0 160 56 301t155.5 243.5t245 162t315.5 59.5q229 0 405 -99t269.5 -272.5t93.5 -394.5q0 -272 -149 -475q104 -62 165 -76l-133 -240q-86 26 -229 131q-186 -119 -426 -119q-170 0 -315 62t-243.5 167.5t-154 248t-55.5 301.5zM420 754q0 -131 59 -244.5 t158 -180.5t213 -67q108 0 194 47q-45 54 -69 101l174 159q16 -24 70 -82q65 121 65 267q0 125 -53 234t-153 177t-224 68q-93 0 -175 -40t-138.5 -106t-88.5 -153t-32 -180z" />
<glyph unicode="R" horiz-adv-x="1329" d="M154 0v1495h536q232 0 373 -125t141 -321q0 -163 -90.5 -273t-243.5 -151l398 -625h-371l-416 707v-707h-327zM481 858h209q86 0 136.5 51.5t50.5 139.5q0 76 -53.5 123t-133.5 47h-209v-361z" />
<glyph unicode="S" horiz-adv-x="1214" d="M80 162l170 229q71 -56 160.5 -92.5t177.5 -36.5q107 0 148.5 34.5t41.5 106.5q0 42 -28 78t-76.5 62.5t-97.5 47t-107 43.5t-88 40q-51 28 -86.5 52t-72 60t-59 76.5t-36.5 98t-14 126.5q0 89 30 162.5t81 123t120 83.5t144.5 49t156.5 15q113 0 229.5 -32.5 t202.5 -96.5l-147 -244q-51 38 -128 62t-157 24q-103 0 -154 -46t-51 -100q0 -33 16 -60.5t39 -47t63.5 -40.5t73.5 -34t86.5 -33.5t86.5 -35.5q62 -27 109.5 -57.5t94 -78.5t72 -118t25.5 -158q0 -211 -140 -330t-384 -119q-146 0 -265.5 48t-236.5 139z" />
<glyph unicode="T" horiz-adv-x="1056" d="M72 1219v276h913v-276h-289v-1219h-327v1219h-297z" />
<glyph unicode="U" horiz-adv-x="1581" d="M143 606v889h330v-889q0 -152 87 -250t222 -98q140 0 235 98.5t95 249.5v889h326v-889q0 -149 -53.5 -270.5t-144.5 -199.5t-208.5 -119.5t-249.5 -41.5q-130 0 -245 41.5t-203 119.5t-139.5 199.5t-51.5 270.5z" />
<glyph unicode="V" horiz-adv-x="1351" d="M31 1495h336l290 -954l23 -84q15 47 25 84l288 954h328l-487 -1495h-314z" />
<glyph unicode="W" horiz-adv-x="1953" d="M72 1495h340l192 -799q6 -25 12.5 -64.5t9.5 -65.5l3 -27q10 96 22 157l164 799h326l176 -799l22 -157q11 100 25 157l186 799h332l-393 -1495h-318l-161 786q-5 27 -13 86t-13 104l-5 46q-19 -177 -31 -236l-162 -786h-327z" />
<glyph unicode="X" horiz-adv-x="1431" d="M49 0l479 815l-405 680h362l228 -391l215 391h366l-401 -680l489 -815h-366l-303 528l-299 -528h-365z" />
<glyph unicode="Y" horiz-adv-x="1413" d="M31 1495h372l275 -518q7 -15 14.5 -35t11.5 -32l3 -13q12 47 28 80l273 518h374l-516 -889v-606h-327v606z" />
<glyph unicode="Z" horiz-adv-x="1351" d="M59 0l689 1219h-615v276h1122l-688 -1219h672v-276h-1180z" />
<glyph unicode="[" horiz-adv-x="747" d="M154 -367v1862h532v-274h-221v-1313h221v-275h-532z" />
<glyph unicode="\" horiz-adv-x="909" d="M41 1495h307l520 -1495h-309z" />
<glyph unicode="]" horiz-adv-x="747" d="M61 -92h222v1313h-222v274h533v-1862h-533v275z" />
<glyph unicode="^" horiz-adv-x="1193" d="M61 756l375 739h318l379 -739h-322l-217 463l-215 -463h-318z" />
<glyph unicode="_" horiz-adv-x="1024" d="M0 -129h1024v-225h-1024v225z" />
<glyph unicode="`" horiz-adv-x="1024" d="M250 1356h293l157 -342h-227z" />
<glyph unicode="a" horiz-adv-x="1083" d="M45 250q0 66 25.5 119t73.5 88.5t105 60.5t132 39.5t142 22t147 10.5v31q0 45 -31 63t-100 18q-169 0 -316 -75l-98 190q160 90 424 90q225 0 331.5 -80.5t106.5 -265.5v-561h-317v68q-77 -54 -136 -73.5t-169 -19.5q-132 0 -226 76.5t-94 198.5zM383 283 q0 -37 30.5 -59.5t71.5 -22.5q114 0 185 63v148q-54 0 -102.5 -6.5t-91 -21t-68 -40.5t-25.5 -61z" />
<glyph unicode="b" horiz-adv-x="1150" d="M102 0v1495h318v-702q36 52 110.5 83t155.5 31q120 0 216 -66.5t147 -172.5t51 -228q0 -191 -116.5 -328t-297.5 -137q-81 0 -155.5 31.5t-110.5 83.5v-90h-318zM420 444q0 -92 50 -150t132 -58q78 0 129 58.5t51 149.5q0 90 -50.5 146.5t-129.5 56.5q-81 0 -131.5 -56.5 t-50.5 -146.5z" />
<glyph unicode="c" horiz-adv-x="946" d="M51 438q0 195 138.5 332t347.5 137q222 0 358 -164l-182 -170q-76 82 -176 82q-84 0 -137.5 -61.5t-53.5 -155.5q0 -83 54 -148t137 -65q58 0 96 21.5t78 68.5l213 -149q-81 -101 -170.5 -146t-216.5 -45q-209 0 -347.5 133t-138.5 330z" />
<glyph unicode="d" horiz-adv-x="1150" d="M51 440q0 122 51 228t147 172.5t216 66.5q81 0 155.5 -31t110.5 -83v702h318v-1495h-318v90q-36 -52 -110.5 -83.5t-155.5 -31.5q-181 0 -297.5 137t-116.5 328zM369 444q0 -91 51 -149.5t129 -58.5q82 0 132 58t50 150q0 90 -50.5 146.5t-131.5 56.5q-79 0 -129.5 -56.5 t-50.5 -146.5z" />
<glyph unicode="e" horiz-adv-x="1032" d="M51 449q0 214 126 336t319 122q213 0 342 -140.5t129 -379.5h-619q8 -82 59 -134t140 -52q100 0 168 22.5t127 71.5l135 -172q-96 -80 -200 -114t-230 -34q-79 0 -150.5 16.5t-135.5 53.5t-110 91.5t-73 134.5t-27 178zM350 555h291q-6 68 -46 107.5t-103 39.5t-96 -38.5 t-46 -108.5z" />
<glyph unicode="f" horiz-adv-x="622" d="M35 647v236h110v364q0 126 66.5 199.5t191.5 73.5h166v-267h-51q-55 0 -55 -100v-270h117v-236h-117v-647h-318v647h-110z" />
<glyph unicode="g" horiz-adv-x="1150" d="M51 442q0 191 116.5 328t297.5 137q81 0 155.5 -31t110.5 -83v90h318v-865q0 -198 -127.5 -303.5t-352.5 -105.5q-127 0 -243.5 30t-182.5 70l103 209q125 -72 303 -72q182 0 182 162v92q-38 -48 -107.5 -81t-158.5 -33q-120 0 -216 63.5t-147 167.5t-51 225zM369 438 q0 -90 50.5 -146t129.5 -56q81 0 131.5 56t50.5 146q0 92 -50 150.5t-132 58.5q-78 0 -129 -59t-51 -150z" />
<glyph unicode="h" horiz-adv-x="1103" d="M102 0v1495h318v-704q85 116 254 116q87 0 152.5 -29t104.5 -81t58 -119t19 -148v-530h-318v455q0 94 -28 140t-97 46t-107 -47t-38 -129v-465h-318z" />
<glyph unicode="i" horiz-adv-x="522" d="M102 0v883h318v-883h-318zM102 1026v291h318v-291h-318z" />
<glyph unicode="j" horiz-adv-x="522" d="M-31 -100h78q55 0 55 100v883h318v-977q0 -126 -66.5 -199.5t-191.5 -73.5h-193v267zM102 1026v291h318v-291h-318z" />
<glyph unicode="k" horiz-adv-x="1114" d="M102 0v1495h318v-956l317 344h355l-359 -377l338 -506h-377l-184 281l-90 -97v-184h-318z" />
<glyph unicode="l" horiz-adv-x="522" d="M102 0v1495h318v-1495h-318z" />
<glyph unicode="m" horiz-adv-x="1650" d="M102 0v883h318v-92q80 116 244 116q186 0 270 -145q111 145 297 145q87 0 150.5 -28.5t100.5 -81t54.5 -119t17.5 -148.5v-530h-317v455q0 97 -23.5 141.5t-91.5 44.5q-135 0 -135 -176v-465h-317v455q0 97 -23.5 141.5t-91.5 44.5q-135 0 -135 -176v-465h-318z" />
<glyph unicode="n" horiz-adv-x="1103" d="M102 0v883h318v-92q85 116 254 116q87 0 152.5 -29t104.5 -81t58 -119t19 -148v-530h-318v455q0 94 -28 140t-97 46t-107 -47t-38 -129v-465h-318z" />
<glyph unicode="o" horiz-adv-x="1054" d="M51 442q0 128 65.5 235.5t174.5 168.5t235 61q128 0 237.5 -59t175 -166t65.5 -238q0 -128 -65.5 -236.5t-175 -170.5t-235.5 -62q-129 0 -238 60t-174 168t-65 239zM360 442q0 -84 45 -149.5t123 -65.5t122 66t44 151q0 82 -44 146.5t-124 64.5q-77 0 -121.5 -65.5 t-44.5 -147.5z" />
<glyph unicode="p" horiz-adv-x="1150" d="M102 -367v1250h318v-90q36 52 110.5 83t155.5 31q181 0 297.5 -137t116.5 -328q0 -122 -51 -228t-147 -172.5t-216 -66.5q-81 0 -155.5 31.5t-110.5 83.5v-457h-318zM420 438q0 -90 50.5 -146t131.5 -56q79 0 129.5 56t50.5 146q0 91 -51 150t-129 59q-82 0 -132 -58.5 t-50 -150.5z" />
<glyph unicode="q" horiz-adv-x="1150" d="M51 442q0 191 116.5 328t297.5 137q81 0 155.5 -31t110.5 -83v90h318v-1250h-318v457q-36 -52 -110.5 -83.5t-155.5 -31.5q-120 0 -216 66.5t-147 172.5t-51 228zM369 438q0 -90 50.5 -146t129.5 -56q81 0 131.5 56t50.5 146q0 92 -50 150.5t-132 58.5q-78 0 -129 -59 t-51 -150z" />
<glyph unicode="r" horiz-adv-x="868" d="M102 0v883h318v-117q35 60 95.5 100.5t133.5 40.5q129 0 213 -84l-155 -268q-40 31 -71 43t-71 12q-72 0 -108.5 -50t-36.5 -126v-434h-318z" />
<glyph unicode="s" horiz-adv-x="847" d="M43 76l102 200q126 -75 232 -75q50 0 76 13.5t26 35.5q0 32 -30.5 51.5t-94.5 42.5q-115 44 -161 73q-119 78 -119 220q0 129 100.5 199.5t267.5 70.5q97 0 169.5 -19t152.5 -63l-90 -196q-103 57 -225 57q-97 0 -97 -47q0 -5 2.5 -10t8 -9.5t11.5 -9t16 -9.5t18.5 -9 t22.5 -9t24 -9t27 -10.5t28 -10.5q45 -16 80 -32t76 -42.5t68 -56.5t45 -73t18 -93q0 -73 -30.5 -129t-84 -88t-118.5 -48t-140 -16q-108 0 -210.5 26t-170.5 75z" />
<glyph unicode="t" horiz-adv-x="704" d="M35 647v236h110v366h318v-366h149v-236h-149v-266q0 -52 26 -83.5t72 -31.5h78v-266h-199q-132 0 -213.5 91.5t-81.5 232.5v323h-110z" />
<glyph unicode="u" horiz-adv-x="1103" d="M96 352v531h318v-455q0 -94 28 -140t97 -46t107 47t38 129v465h317v-883h-317v92q-86 -117 -254 -117q-87 0 -152.5 29t-104.5 81t-58 119t-19 148z" />
<glyph unicode="v" horiz-adv-x="1044" d="M20 883h338l142 -363q7 -19 13.5 -47.5t9.5 -47.5l3 -19q11 69 29 114l141 363h328l-389 -883h-217z" />
<glyph unicode="w" horiz-adv-x="1556" d="M20 883h330l166 -441l16 -57q9 32 19 57l235 514l236 -514q5 -12 9.5 -26t6.5 -22l2 -9q7 32 15 57l162 441h319l-358 -883h-197l-168 332q-6 12 -11.5 29t-7.5 29l-3 11q-13 -44 -25 -71l-168 -330h-199z" />
<glyph unicode="x" horiz-adv-x="995" d="M25 0l305 453l-273 430h336l76 -138l33 -65q12 28 30 65l70 138h340l-276 -432l305 -451h-340l-90 150l-45 79q-27 -46 -45 -77l-93 -152h-333z" />
<glyph unicode="y" horiz-adv-x="987" d="M20 883h334l121 -402l29 -110q14 57 28 110l105 402h330l-371 -1080q-68 -194 -252 -194h-184v260h67q47 0 84 25.5t37 62.5q0 56 -24 123z" />
<glyph unicode="z" horiz-adv-x="972" d="M18 0l400 592q7 11 16.5 23t15.5 18l5 6q-25 -2 -54 -2h-323v246h866l-391 -590l-39 -51q34 4 61 4h318v-246h-875z" />
<glyph unicode="{" horiz-adv-x="716" d="M41 457v237q45 7 75.5 23t48 36t26.5 55.5t11.5 70.5t2.5 94q0 227 119 368.5t344 178.5v-246q-74 -56 -105 -114t-31 -159q0 -61 -2 -103t-9 -86.5t-19.5 -75.5t-33 -61.5t-51.5 -54.5t-73 -45q63 -32 101.5 -70t57 -93.5t24 -111t5.5 -148.5q0 -101 31 -159t105 -114 v-246q-225 37 -344 178.5t-119 368.5q0 59 -2.5 93.5t-11.5 70.5t-26.5 56t-48 35t-75.5 22z" />
<glyph unicode="|" horiz-adv-x="577" d="M133 -367v1862h311v-1862h-311z" />
<glyph unicode="}" horiz-adv-x="716" d="M49 -121q73 56 104 114t31 159q0 61 2 103t9 86.5t20 75.5t33.5 61.5t51.5 54.5t73 45q-63 32 -101.5 70t-57.5 93.5t-24.5 111.5t-5.5 148q0 101 -31 159t-104 114v246q225 -37 344 -178.5t119 -368.5q0 -59 2.5 -93.5t11.5 -70.5t26.5 -56t48 -35t75.5 -22v-237 q-45 -7 -75.5 -23t-48 -36t-26.5 -55.5t-11.5 -70.5t-2.5 -94q0 -227 -119 -368.5t-344 -178.5v246z" />
<glyph unicode="~" horiz-adv-x="1146" d="M82 532q0 88 15.5 165t46.5 140.5t85 100.5t125 37q101 0 221 -78q19 -11 47.5 -30t45 -29t35 -18.5t30.5 -8.5q30 0 44 45.5t14 114.5h274q0 -118 -28 -216t-91 -163.5t-153 -65.5q-99 0 -218 72q-24 14 -62.5 40.5t-60.5 39t-38 12.5q-30 0 -44 -45.5t-14 -112.5h-274z " />
<glyph unicode="&#xa1;" horiz-adv-x="626" d="M154 0v551l47 534h225l47 -534v-551h-319zM154 1196v299h319v-299h-319z" />
<glyph unicode="&#xa2;" horiz-adv-x="952" d="M51 438q0 121 56.5 224.5t159 168.5t229.5 74v109h98v-109q180 -18 301 -162l-182 -170q-53 59 -119 74v-416q57 15 117 84l213 -149q-72 -89 -149.5 -134.5t-180.5 -54.5v-139h-98v139q-194 14 -319.5 144t-125.5 317zM346 438q0 -73 41.5 -132.5t108.5 -76.5v422 q-68 -15 -109 -73t-41 -140z" />
<glyph unicode="&#xa3;" horiz-adv-x="1546" d="M88 221q0 77 44 134t111 84.5t144 27.5q140 0 219 -29q-13 72 -86 160h-373v92h289q-76 86 -88 101h-201v92h140q-64 115 -64 247q0 92 49 167.5t129 123t177 73.5t198 26q96 0 181 -16.5t158 -52.5t125 -89t82 -129.5t30 -169.5h-332q0 106 -66.5 158.5t-177.5 52.5 q-81 0 -148 -52.5t-67 -121.5q0 -61 24.5 -110.5t71.5 -106.5h439v-92h-361q39 -45 74 -101h287v-92h-240q41 -108 41 -242v-10q39 -19 60.5 -28t54 -17t63.5 -8q48 0 67 21.5t19 60.5v63h277v-121q0 -156 -71.5 -249t-190.5 -93q-88 0 -176.5 36.5t-196.5 101.5 q-129 -138 -379 -138q-83 0 -158 27t-126.5 85t-51.5 134zM297 221q0 -38 34 -56t81 -18q118 0 172 97q-107 57 -185 57q-44 0 -73 -19t-29 -61z" />
<glyph unicode="&#xa4;" d="M0 492v512h250v-512h-250zM492 0v250h512v-250h-512zM492 492v512h512v-512h-512zM492 1245v250h512v-250h-512zM1245 492v512h250v-512h-250z" />
<glyph unicode="&#xa5;" horiz-adv-x="1413" d="M31 1495h372l275 -518q7 -15 14.5 -35t11.5 -32l3 -13q12 47 28 80l273 518h374l-512 -879h293v-157h-297v-125h297v-158h-297v-176h-327v176h-293v158h293v125h-293v157h286z" />
<glyph unicode="&#xa6;" d="M0 492v512h250v-512h-250zM492 0v250h512v-250h-512zM492 492v512h512v-512h-512zM492 1245v250h512v-250h-512zM1245 492v512h250v-512h-250z" />
<glyph unicode="&#xa7;" horiz-adv-x="1462" d="M92 547q0 208 223 350q-84 87 -84 242q0 168 138.5 274.5t351.5 106.5q169 0 291.5 -39.5t234.5 -116.5l-151 -246q-176 125 -387 125q-78 0 -118 -24t-40 -62q0 -43 30.5 -69t127.5 -54l301 -84q173 -47 266.5 -135t93.5 -233q0 -209 -223 -351q84 -87 84 -241 q0 -168 -138.5 -274.5t-351.5 -106.5q-170 0 -292 39t-234 116l152 246q176 -125 387 -125q78 0 117.5 24t39.5 62q0 43 -30 69t-127 54l-301 84q-173 47 -267 135.5t-94 233.5zM410 598q0 -64 44.5 -98t170.5 -68l274 -76q154 97 154 174q0 64 -44.5 98t-170.5 68l-275 76 q-153 -97 -153 -174z" />
<glyph unicode="&#xa8;" horiz-adv-x="1024" d="M164 1014v266h258v-266h-258zM602 1014v266h258v-266h-258z" />
<glyph unicode="&#xa9;" horiz-adv-x="1728" d="M92 748q0 157 61 300t164.5 246.5t246.5 164.5t300 61t300 -61t246.5 -164.5t164.5 -246.5t61 -300t-61 -300t-164.5 -246.5t-246.5 -165t-300 -61.5t-300 61.5t-246.5 165t-164.5 246.5t-61 300zM217 745q0 -176 86.5 -324.5t235.5 -234.5t325 -86t325 86t235.5 234.5 t86.5 324.5q0 132 -51 252t-137.5 206.5t-206.5 138t-252 51.5t-252 -51.5t-206.5 -138t-137.5 -206.5t-51 -252zM428 768q0 120 56.5 222.5t159 164.5t228.5 62q213 0 332 -142l-143 -133q-42 40 -80 56t-104 16q-111 0 -175.5 -75t-64.5 -171q0 -120 71.5 -198t163.5 -78 q75 0 121.5 20t89.5 70l140 -125q-56 -75 -149 -121.5t-206 -46.5q-83 0 -161 32.5t-140.5 91.5t-100.5 151.5t-38 203.5z" />
<glyph unicode="&#xaa;" horiz-adv-x="923" d="M129 522v166h643v-166h-643zM129 1028q0 118 103.5 184t265.5 66h102q0 51 -30 70.5t-105 19.5q-130 0 -211 -37l-53 137q44 26 112.5 39t132.5 13q326 0 326 -224v-477h-176v49q-90 -69 -213 -69t-188.5 65t-65.5 164zM311 1028q0 -35 31.5 -53.5t83.5 -18.5t88 12 t82 44v118h-109q-176 0 -176 -102z" />
<glyph unicode="&#xab;" horiz-adv-x="921" d="M82 311v279l311 227v-268l-133 -98l133 -99v-268zM508 311v279l311 227v-268l-133 -98l133 -99v-268z" />
<glyph unicode="&#xac;" d="M0 492v512h250v-512h-250zM492 0v250h512v-250h-512zM492 492v512h512v-512h-512zM492 1245v250h512v-250h-512zM1245 492v512h250v-512h-250z" />
<glyph unicode="&#xad;" horiz-adv-x="778" d="M82 418v270h614v-270h-614z" />
<glyph unicode="&#xae;" horiz-adv-x="1728" d="M92 748q0 157 61 300t164.5 246.5t246.5 164.5t300 61t300 -61t246.5 -164.5t164.5 -246.5t61 -300t-61 -300t-164.5 -246.5t-246.5 -165t-300 -61.5t-300 61.5t-246.5 165t-164.5 246.5t-61 300zM217 745q0 -176 86.5 -324.5t235.5 -234.5t325 -86t325 86t235.5 234.5 t86.5 324.5q0 132 -51 252t-137.5 206.5t-206.5 138t-252 51.5t-252 -51.5t-206.5 -138t-137.5 -206.5t-51 -252zM573 317v897h353q123 0 204.5 -77t81.5 -187q0 -106 -55.5 -175.5t-148.5 -84.5l249 -373h-235l-244 390v-390h-205zM778 821h107q53 0 86 32.5t33 90.5 q0 45 -32.5 72.5t-82.5 27.5h-111v-223z" />
<glyph unicode="&#xaf;" horiz-adv-x="1024" d="M205 1075v135h614v-135h-614z" />
<glyph unicode="&#xb0;" horiz-adv-x="872" d="M51 1135q0 160 112.5 272.5t272.5 112.5t272.5 -112.5t112.5 -272.5t-112.5 -272.5t-272.5 -112.5t-272.5 112.5t-112.5 272.5zM244 1135q0 -78 57 -135.5t135 -57.5t135.5 57.5t57.5 135.5t-57.5 135t-135.5 57t-135 -57t-57 -135z" />
<glyph unicode="&#xb1;" horiz-adv-x="1728" d="M35 647v236h110v364q0 126 66.5 199.5t191.5 73.5h166v-267h-51q-29 0 -42 -31.5t-13 -68.5v-270h117v-236h-117v-647h-318v647h-110zM618 647v236h111v364q0 126 66.5 199.5t191.5 73.5h166v-267h-51q-29 0 -42 -31.5t-13 -68.5v-270h116v-236h-116v-647h-318v647h-111z M1309 0v1495h317v-1495h-317z" />
<glyph unicode="&#xb2;" d="M0 492v512h250v-512h-250zM492 0v250h512v-250h-512zM492 492v512h512v-512h-512zM492 1245v250h512v-250h-512zM1245 492v512h250v-512h-250z" />
<glyph unicode="&#xb3;" d="M0 492v512h250v-512h-250zM492 0v250h512v-250h-512zM492 492v512h512v-512h-512zM492 1245v250h512v-250h-512zM1245 492v512h250v-512h-250z" />
<glyph unicode="&#xb4;" horiz-adv-x="1024" d="M328 1014l157 342h293l-223 -342h-227z" />
<glyph unicode="&#xb5;" d="M0 492v512h250v-512h-250zM492 0v250h512v-250h-512zM492 492v512h512v-512h-512zM492 1245v250h512v-250h-512zM1245 492v512h250v-512h-250z" />
<glyph unicode="&#xb6;" horiz-adv-x="1617" d="M55 952q0 108 38 205t108.5 173t180.5 120.5t245 44.5h837v-1862h-272v1588h-152v-1588h-272v791h-182q-120 0 -221.5 45.5t-168 120.5t-104 169t-37.5 193zM367 965q0 -121 68.5 -194t189.5 -73h143v523h-131q-130 0 -200 -69t-70 -187z" />
<glyph unicode="&#xb7;" horiz-adv-x="512" d="M102 565v309h308v-309h-308z" />
<glyph unicode="&#xb8;" horiz-adv-x="1024" d="M279 -301l65 88q64 -41 141 -41q31 0 50.5 14t19.5 41q0 39 -68 39q-48 0 -77 -10l-43 70l98 129h135l-68 -86q82 4 133.5 -33.5t51.5 -95.5q0 -80 -68 -130.5t-157 -50.5q-117 0 -213 66z" />
<glyph unicode="&#xb9;" d="M0 492v512h250v-512h-250zM492 0v250h512v-250h-512zM492 492v512h512v-512h-512zM492 1245v250h512v-250h-512zM1245 492v512h250v-512h-250z" />
<glyph unicode="&#xba;" horiz-adv-x="995" d="M137 522v166h719v-166h-719zM137 1165q0 92 43.5 172.5t126 131.5t185.5 51q156 0 260 -103.5t104 -245.5q0 -156 -103 -264t-257 -108q-155 0 -257 101t-102 265zM330 1165q0 -87 43.5 -136.5t115.5 -49.5q86 0 130.5 50.5t44.5 131.5q0 83 -48 131.5t-124 48.5 q-70 0 -116 -52t-46 -124z" />
<glyph unicode="&#xbb;" horiz-adv-x="921" d="M102 84v268l134 99l-134 98v268l312 -227v-279zM528 84v268l134 99l-134 98v268l312 -227v-279z" />
<glyph unicode="&#xbc;" d="M0 492v512h250v-512h-250zM492 0v250h512v-250h-512zM492 492v512h512v-512h-512zM492 1245v250h512v-250h-512zM1245 492v512h250v-512h-250z" />
<glyph unicode="&#xbd;" d="M0 492v512h250v-512h-250zM492 0v250h512v-250h-512zM492 492v512h512v-512h-512zM492 1245v250h512v-250h-512zM1245 492v512h250v-512h-250z" />
<glyph unicode="&#xbe;" d="M0 492v512h250v-512h-250zM492 0v250h512v-250h-512zM492 492v512h512v-512h-512zM492 1245v250h512v-250h-512zM1245 492v512h250v-512h-250z" />
<glyph unicode="&#xbf;" horiz-adv-x="942" d="M57 358q0 45 13 91.5t28.5 80.5t48.5 82t51.5 71t59.5 73q133 163 133 293v47h295v-47q0 -188 -139 -361q-11 -14 -48.5 -61.5t-50 -65.5t-35 -53t-30.5 -61t-8 -52q0 -67 41 -114.5t100 -47.5q72 0 122 29t105 86l168 -207q-158 -166 -395 -166q-201 0 -330 105.5 t-129 277.5zM379 1196v299h319v-299h-319z" />
<glyph unicode="&#xc0;" horiz-adv-x="1454" d="M31 0l534 1495h316l542 -1495h-360l-115 377h-454l-117 -377h-346zM387 1960h293l158 -342h-228zM580 653h286l-110 365l-33 121q-15 -66 -31 -121z" />
<glyph unicode="&#xc1;" horiz-adv-x="1454" d="M31 0l534 1495h316l542 -1495h-360l-115 377h-454l-117 -377h-346zM580 653h286l-110 365l-33 121q-15 -66 -31 -121zM614 1618l158 342h293l-223 -342h-228z" />
<glyph unicode="&#xc2;" horiz-adv-x="1454" d="M31 0l534 1495h316l542 -1495h-360l-115 377h-454l-117 -377h-346zM401 1618l211 301h222l210 -301h-231l-92 143l-92 -143h-228zM580 653h286l-110 365l-33 121q-15 -66 -31 -121z" />
<glyph unicode="&#xc3;" horiz-adv-x="1454" d="M31 0l534 1495h316l542 -1495h-360l-115 377h-454l-117 -377h-346zM328 1618q0 118 70 186t192 68q45 0 141 -41q5 -2 21.5 -8.5t23 -9l19.5 -7.5t20.5 -7t18 -3.5t18.5 -1.5q84 0 84 74h170q0 -119 -69.5 -186.5t-192.5 -67.5q-44 0 -142 39q-88 39 -120 39 q-84 0 -84 -74h-170zM580 653h286l-110 365l-33 121q-15 -66 -31 -121z" />
<glyph unicode="&#xc4;" horiz-adv-x="1454" d="M31 0l534 1495h316l542 -1495h-360l-115 377h-454l-117 -377h-346zM82 1208v287h258v-287h-258zM580 653h286l-110 365l-33 121q-15 -66 -31 -121zM1106 1208v287h258v-287h-258z" />
<glyph unicode="&#xc5;" horiz-adv-x="1454" d="M31 0l524 1466q-44 38 -70 91t-26 110q0 106 79 185t185 79t185 -79t79 -185q0 -57 -26 -110t-70 -91l532 -1466h-360l-115 377h-454l-117 -377h-346zM580 653h286l-110 365l-33 121q-15 -66 -31 -121zM614 1667q0 -46 31.5 -77t77.5 -31t77 31t31 77t-31 77.5t-77 31.5 t-77.5 -31.5t-31.5 -77.5z" />
<glyph unicode="&#xc6;" horiz-adv-x="1951" d="M20 0l775 1495h1009v-276h-542v-351h503v-276h-503v-316h573v-276h-870v387h-416l-201 -387h-328zM676 653h289v568z" />
<glyph unicode="&#xc7;" horiz-adv-x="1474" d="M82 756q0 165 59.5 308.5t161.5 242.5t241.5 156t295.5 57q166 0 295 -52.5t243 -169.5l-184 -215q-150 150 -354 150q-189 0 -304.5 -134t-115.5 -343q0 -233 110.5 -363.5t315.5 -130.5q67 0 122.5 12.5t102.5 40t77 51.5t75 66l188 -215q-111 -119 -244.5 -180.5 t-318.5 -61.5l-27 -32q82 4 133.5 -33.5t51.5 -95.5q0 -80 -68.5 -130.5t-157.5 -50.5q-117 0 -213 66l66 88q64 -41 141 -41q31 0 50.5 14t19.5 41q0 39 -68 39q-49 0 -78 -10l-43 70l64 84q-292 39 -464.5 244.5t-172.5 527.5z" />
<glyph unicode="&#xc8;" horiz-adv-x="1171" d="M154 0v1495h870v-276h-543v-351h504v-276h-504v-316h574v-276h-901zM289 1960h293l157 -342h-227z" />
<glyph unicode="&#xc9;" horiz-adv-x="1171" d="M154 0v1495h870v-276h-543v-351h504v-276h-504v-316h574v-276h-901zM426 1618l158 342h293l-224 -342h-227z" />
<glyph unicode="&#xca;" horiz-adv-x="1171" d="M154 0v1495h870v-276h-543v-351h504v-276h-504v-316h574v-276h-901zM260 1618l211 301h221l211 -301h-231l-92 143l-93 -143h-227z" />
<glyph unicode="&#xcb;" horiz-adv-x="1171" d="M154 0v1495h870v-276h-543v-351h504v-276h-504v-316h574v-276h-901zM231 1618v266h258v-266h-258zM670 1618v266h258v-266h-258z" />
<glyph unicode="&#xcc;" horiz-adv-x="634" d="M154 0v1495h327v-1495h-327zM154 1960h292l158 -342h-227z" />
<glyph unicode="&#xcd;" horiz-adv-x="634" d="M154 0v1495h327v-1495h-327zM201 1618l157 342h293l-223 -342h-227z" />
<glyph unicode="&#xce;" horiz-adv-x="634" d="M154 0v1495h327v-1495h-327zM154 1618l211 301h221l211 -301h-232l-92 143l-92 -143h-227z" />
<glyph unicode="&#xcf;" horiz-adv-x="634" d="M154 0v1495h327v-1495h-327zM154 1618v266h258v-266h-258zM592 1618v266h258v-266h-258z" />
<glyph unicode="&#xd0;" horiz-adv-x="1527" d="M51 592v270h164v633h453q161 0 301.5 -49.5t247 -141.5t168 -235t61.5 -319q0 -179 -65.5 -324.5t-175 -236.5t-248 -140t-289.5 -49h-453v592h-164zM543 276h125q102 0 186 38.5t139 104t85 151t30 180.5q0 130 -54.5 237t-156 169.5t-229.5 62.5h-125v-357h225v-270 h-225v-316z" />
<glyph unicode="&#xd1;" horiz-adv-x="1609" d="M154 0v1495h282l660 -862q10 -13 19.5 -28.5t13.5 -24.5l4 -9q-5 39 -5 76v848h328v-1495h-282l-660 870l-37 62q4 -39 4 -76v-856h-327zM403 1618q0 117 70 185.5t193 68.5q45 0 141 -41q5 -2 21.5 -8.5t23 -9l19.5 -7.5t20.5 -7t18 -3.5t18.5 -1.5q84 0 84 74h170 q0 -119 -69.5 -186.5t-192.5 -67.5q-44 0 -142 39q-88 39 -121 39q-84 0 -84 -74h-170z" />
<glyph unicode="&#xd2;" horiz-adv-x="1703" d="M82 754q0 160 56 301t155.5 243.5t245 162t315.5 59.5q229 0 405 -99t269.5 -272.5t93.5 -394.5q0 -129 -35.5 -247t-103.5 -214t-161 -167.5t-214.5 -111t-257.5 -39.5q-170 0 -315 62t-243.5 167.5t-154 248t-55.5 301.5zM420 754q0 -101 34.5 -192.5t92.5 -157 t137.5 -104t165.5 -38.5q130 0 231 71t152 182t51 239q0 131 -52.5 240t-151.5 174t-226 65q-93 0 -175 -40t-138.5 -106t-88.5 -153t-32 -180zM516 1960h293l158 -342h-228z" />
<glyph unicode="&#xd3;" horiz-adv-x="1703" d="M82 754q0 160 56 301t155.5 243.5t245 162t315.5 59.5q229 0 405 -99t269.5 -272.5t93.5 -394.5q0 -129 -35.5 -247t-103.5 -214t-161 -167.5t-214.5 -111t-257.5 -39.5q-170 0 -315 62t-243.5 167.5t-154 248t-55.5 301.5zM420 754q0 -101 34.5 -192.5t92.5 -157 t137.5 -104t165.5 -38.5q130 0 231 71t152 182t51 239q0 131 -52.5 240t-151.5 174t-226 65q-93 0 -175 -40t-138.5 -106t-88.5 -153t-32 -180zM688 1618l158 342h293l-224 -342h-227z" />
<glyph unicode="&#xd4;" horiz-adv-x="1703" d="M82 754q0 160 56 301t155.5 243.5t245 162t315.5 59.5q229 0 405 -99t269.5 -272.5t93.5 -394.5q0 -129 -35.5 -247t-103.5 -214t-161 -167.5t-214.5 -111t-257.5 -39.5q-170 0 -315 62t-243.5 167.5t-154 248t-55.5 301.5zM420 754q0 -101 34.5 -192.5t92.5 -157 t137.5 -104t165.5 -38.5q130 0 231 71t152 182t51 239q0 131 -52.5 240t-151.5 174t-226 65q-93 0 -175 -40t-138.5 -106t-88.5 -153t-32 -180zM530 1618l211 301h222l211 -301h-232l-92 143l-92 -143h-228z" />
<glyph unicode="&#xd5;" horiz-adv-x="1703" d="M82 754q0 160 56 301t155.5 243.5t245 162t315.5 59.5q229 0 405 -99t269.5 -272.5t93.5 -394.5q0 -129 -35.5 -247t-103.5 -214t-161 -167.5t-214.5 -111t-257.5 -39.5q-170 0 -315 62t-243.5 167.5t-154 248t-55.5 301.5zM420 754q0 -101 34.5 -192.5t92.5 -157 t137.5 -104t165.5 -38.5q130 0 231 71t152 182t51 239q0 131 -52.5 240t-151.5 174t-226 65q-93 0 -175 -40t-138.5 -106t-88.5 -153t-32 -180zM457 1618q0 118 70 186t192 68q45 0 141 -41q92 -37 121 -37q84 0 84 74h170q0 -119 -69.5 -186.5t-192.5 -67.5q-45 0 -142 39 q-88 39 -120 39q-84 0 -84 -74h-170z" />
<glyph unicode="&#xd6;" horiz-adv-x="1703" d="M82 754q0 272 154 475h-154v266h258v-154q214 179 514 179q306 0 510 -172v147h258v-266h-145q145 -196 145 -475q0 -129 -35.5 -247t-103.5 -214t-161 -167.5t-214.5 -111t-257.5 -39.5q-170 0 -315 62t-243.5 167.5t-154 248t-55.5 301.5zM420 754q0 -131 59 -244.5 t158 -180.5t213 -67q130 0 231 71t152 182t51 239q0 125 -53 234t-153 177t-224 68q-93 0 -175 -40t-138.5 -106t-88.5 -153t-32 -180z" />
<glyph unicode="&#xd7;" d="M0 492v512h250v-512h-250zM492 0v250h512v-250h-512zM492 492v512h512v-512h-512zM492 1245v250h512v-250h-512zM1245 492v512h250v-512h-250z" />
<glyph unicode="&#xd8;" horiz-adv-x="1703" d="M82 754q0 160 56 301t155.5 243.5t245 162t315.5 59.5q300 0 504 -168l151 147l125 -110l-159 -156q147 -202 147 -479q0 -129 -35.5 -247t-103.5 -214t-161 -167.5t-214.5 -111t-257.5 -39.5q-287 0 -494 170l-151 -149l-121 115l158 153q-160 209 -160 490zM420 754 q0 -131 63 -254l643 626q-117 107 -272 107q-93 0 -175 -40t-138.5 -106t-88.5 -153t-32 -180zM586 369q120 -107 264 -107q130 0 231 71t152 182t51 239q0 126 -57 237z" />
<glyph unicode="&#xd9;" horiz-adv-x="1581" d="M143 606v889h330v-889q0 -152 87 -250t222 -98q140 0 235 98.5t95 249.5v889h326v-889q0 -149 -53.5 -270.5t-144.5 -199.5t-208.5 -119.5t-249.5 -41.5q-130 0 -245 41.5t-203 119.5t-139.5 199.5t-51.5 270.5zM489 1939h293l158 -342h-227z" />
<glyph unicode="&#xda;" horiz-adv-x="1581" d="M143 606v889h330v-889q0 -152 87 -250t222 -98q140 0 235 98.5t95 249.5v889h326v-889q0 -149 -53.5 -270.5t-144.5 -199.5t-208.5 -119.5t-249.5 -41.5q-130 0 -245 41.5t-203 119.5t-139.5 199.5t-51.5 270.5zM645 1597l158 342h293l-224 -342h-227z" />
<glyph unicode="&#xdb;" horiz-adv-x="1581" d="M143 606v889h330v-889q0 -152 87 -250t222 -98q140 0 235 98.5t95 249.5v889h326v-889q0 -149 -53.5 -270.5t-144.5 -199.5t-208.5 -119.5t-249.5 -41.5q-130 0 -245 41.5t-203 119.5t-139.5 199.5t-51.5 270.5zM471 1618l211 301h221l211 -301h-231l-92 143l-93 -143 h-227z" />
<glyph unicode="&#xdc;" horiz-adv-x="1581" d="M143 606v889h330v-889q0 -152 87 -250t222 -98q140 0 235 98.5t95 249.5v889h326v-889q0 -149 -53.5 -270.5t-144.5 -199.5t-208.5 -119.5t-249.5 -41.5q-130 0 -245 41.5t-203 119.5t-139.5 199.5t-51.5 270.5zM575 1167v328h166v-328h-166zM844 1167v328h166v-328h-166 z" />
<glyph unicode="&#xdd;" horiz-adv-x="1413" d="M31 1495h372l275 -518q7 -15 14.5 -35t11.5 -32l3 -13q12 47 28 80l273 518h374l-516 -889v-606h-327v606zM569 1618l158 342h293l-223 -342h-228z" />
<glyph unicode="&#xde;" horiz-adv-x="1247" d="M154 0v1495h327v-281h168q253 0 400 -115.5t147 -324.5q0 -213 -147 -337t-400 -124h-168v-313h-327zM481 590h168q219 0 219 178q0 90 -54 130t-165 40h-168v-348z" />
<glyph unicode="&#xdf;" horiz-adv-x="1132" d="M102 0v1133q0 169 135 278t332 109q194 0 315.5 -103t121.5 -270q0 -107 -55 -187.5t-144 -115.5q55 -21 100 -52.5t86 -81t64.5 -124.5t23.5 -168q0 -197 -120 -320t-314 -123q-52 0 -121 21v248q38 -17 101 -17q79 0 112 48t33 143q0 113 -65.5 207.5t-200.5 124.5v184 q89 0 139.5 51.5t50.5 130.5q0 74 -34.5 113t-100.5 39q-75 0 -108 -41t-33 -97v-1130h-318z" />
<glyph unicode="&#xe0;" horiz-adv-x="1083" d="M45 250q0 66 25.5 119t73.5 88.5t105 60.5t132 39.5t142 22t147 10.5v31q0 45 -31 63t-100 18q-169 0 -316 -75l-98 190q160 90 424 90q225 0 331.5 -80.5t106.5 -265.5v-561h-317v68q-77 -54 -136 -73.5t-169 -19.5q-132 0 -226 76.5t-94 198.5zM242 1356h293l157 -342 h-227zM383 283q0 -37 30.5 -59.5t71.5 -22.5q114 0 185 63v148q-54 0 -102.5 -6.5t-91 -21t-68 -40.5t-25.5 -61z" />
<glyph unicode="&#xe1;" horiz-adv-x="1083" d="M45 250q0 66 25.5 119t73.5 88.5t105 60.5t132 39.5t142 22t147 10.5v31q0 45 -31 63t-100 18q-169 0 -316 -75l-98 190q160 90 424 90q225 0 331.5 -80.5t106.5 -265.5v-561h-317v68q-77 -54 -136 -73.5t-169 -19.5q-132 0 -226 76.5t-94 198.5zM383 283 q0 -37 30.5 -59.5t71.5 -22.5q114 0 185 63v148q-54 0 -102.5 -6.5t-91 -21t-68 -40.5t-25.5 -61zM403 1014l158 342h293l-223 -342h-228z" />
<glyph unicode="&#xe2;" horiz-adv-x="1083" d="M45 250q0 66 25.5 119t73.5 88.5t105 60.5t132 39.5t142 22t147 10.5v31q0 45 -31 63t-100 18q-169 0 -316 -75l-98 190q160 90 424 90q225 0 331.5 -80.5t106.5 -265.5v-561h-317v68q-77 -54 -136 -73.5t-169 -19.5q-132 0 -226 76.5t-94 198.5zM221 1014l211 301h221 l211 -301h-231l-92 143l-92 -143h-228zM383 283q0 -37 30.5 -59.5t71.5 -22.5q114 0 185 63v148q-54 0 -102.5 -6.5t-91 -21t-68 -40.5t-25.5 -61z" />
<glyph unicode="&#xe3;" horiz-adv-x="1083" d="M45 250q0 66 25.5 119t73.5 88.5t105 60.5t132 39.5t142 22t147 10.5v31q0 45 -31 63t-100 18q-169 0 -316 -75l-98 190q160 90 424 90q225 0 331.5 -80.5t106.5 -265.5v-561h-317v68q-77 -54 -136 -73.5t-169 -19.5q-132 0 -226 76.5t-94 198.5zM164 1014q0 118 70 186 t192 68q45 0 141 -41q92 -37 121 -37q84 0 84 74h170q0 -119 -69.5 -186.5t-192.5 -67.5q-44 0 -141 39q-85 38 -121 38q-84 0 -84 -73h-170zM383 283q0 -37 30.5 -59.5t71.5 -22.5q114 0 185 63v148q-54 0 -102.5 -6.5t-91 -21t-68 -40.5t-25.5 -61z" />
<glyph unicode="&#xe4;" horiz-adv-x="1083" d="M45 250q0 66 25.5 119t73.5 88.5t105 60.5t132 39.5t142 22t147 10.5v31q0 45 -31 63t-100 18q-169 0 -316 -75l-98 190q160 90 424 90q225 0 331.5 -80.5t106.5 -265.5v-561h-317v68q-77 -54 -136 -73.5t-169 -19.5q-132 0 -226 76.5t-94 198.5zM197 1014v266h258v-266 h-258zM383 283q0 -37 30.5 -59.5t71.5 -22.5q114 0 185 63v148q-54 0 -102.5 -6.5t-91 -21t-68 -40.5t-25.5 -61zM635 1014v266h258v-266h-258z" />
<glyph unicode="&#xe5;" horiz-adv-x="1083" d="M45 250q0 66 25.5 119t73.5 88.5t105 60.5t132 39.5t142 22t147 10.5v31q0 45 -31 63t-100 18q-169 0 -316 -75l-98 190q160 90 424 90q225 0 331.5 -80.5t106.5 -265.5v-561h-317v68q-77 -54 -136 -73.5t-169 -19.5q-132 0 -226 76.5t-94 198.5zM285 1264q0 106 79 185 t185 79t185 -79t79 -185t-79 -185.5t-185 -79.5t-185 79.5t-79 185.5zM383 283q0 -37 30.5 -59.5t71.5 -22.5q114 0 185 63v148q-54 0 -102.5 -6.5t-91 -21t-68 -40.5t-25.5 -61zM440 1264q0 -46 31.5 -77.5t77.5 -31.5t77 31.5t31 77.5t-31 77t-77 31t-77.5 -31t-31.5 -77z " />
<glyph unicode="&#xe6;" horiz-adv-x="1642" d="M45 250q0 66 26 119t75 88.5t107 60.5t134 39.5t143.5 22t147.5 10.5v31q0 44 -34.5 62.5t-104.5 18.5q-169 0 -316 -75l-98 190q160 90 424 90q217 0 309 -86q48 39 114 62.5t134 23.5q213 0 342 -140.5t129 -379.5h-627q6 -79 61.5 -132.5t145.5 -53.5q100 0 168 22.5 t127 71.5l135 -172q-96 -80 -200 -114t-230 -34q-122 0 -227.5 41.5t-171.5 124.5q-95 -94 -177.5 -130t-215.5 -36q-132 0 -226 76.5t-94 198.5zM383 283q0 -37 30.5 -59.5t71.5 -22.5q122 0 193 63v148q-54 0 -103.5 -6.5t-94 -21t-71 -40.5t-26.5 -61zM952 555h299 q-6 68 -46 107.5t-103 39.5q-65 0 -103 -39.5t-47 -107.5z" />
<glyph unicode="&#xe7;" horiz-adv-x="946" d="M51 438q0 195 138.5 332t347.5 137q222 0 358 -164l-182 -170q-76 82 -176 82q-84 0 -137.5 -61.5t-53.5 -155.5q0 -83 54 -148t137 -65q58 0 96 21.5t78 68.5l213 -149q-78 -97 -162.5 -142t-202.5 -49l-27 -32q82 4 133.5 -33.5t51.5 -95.5q0 -80 -68 -130.5 t-157 -50.5q-117 0 -213 66l65 88q64 -41 141 -41q31 0 50.5 14t19.5 41q0 39 -68 39q-48 0 -77 -10l-43 70l65 86q-168 32 -274.5 157.5t-106.5 294.5z" />
<glyph unicode="&#xe8;" horiz-adv-x="1032" d="M51 449q0 214 126 336t319 122q213 0 342 -140.5t129 -379.5h-619q8 -82 59 -134t140 -52q100 0 168 22.5t127 71.5l135 -172q-96 -80 -200 -114t-230 -34q-79 0 -150.5 16.5t-135.5 53.5t-110 91.5t-73 134.5t-27 178zM190 1356h293l158 -342h-227zM350 555h291 q-6 68 -46 107.5t-103 39.5t-96 -38.5t-46 -108.5z" />
<glyph unicode="&#xe9;" horiz-adv-x="1032" d="M51 449q0 214 126 336t319 122q213 0 342 -140.5t129 -379.5h-619q8 -82 59 -134t140 -52q100 0 168 22.5t127 71.5l135 -172q-96 -80 -200 -114t-230 -34q-79 0 -150.5 16.5t-135.5 53.5t-110 91.5t-73 134.5t-27 178zM350 555h291q-6 68 -46 107.5t-103 39.5t-96 -38.5 t-46 -108.5zM383 1014l158 342h293l-224 -342h-227z" />
<glyph unicode="&#xea;" horiz-adv-x="1032" d="M51 449q0 214 126 336t319 122q213 0 342 -140.5t129 -379.5h-619q8 -82 59 -134t140 -52q100 0 168 22.5t127 71.5l135 -172q-96 -80 -200 -114t-230 -34q-79 0 -150.5 16.5t-135.5 53.5t-110 91.5t-73 134.5t-27 178zM178 1014l211 301h221l211 -301h-231l-92 143 l-92 -143h-228zM350 555h291q-6 68 -46 107.5t-103 39.5t-96 -38.5t-46 -108.5z" />
<glyph unicode="&#xeb;" horiz-adv-x="1032" d="M51 449q0 214 126 336t319 122q213 0 342 -140.5t129 -379.5h-619q8 -82 59 -134t140 -52q100 0 168 22.5t127 71.5l135 -172q-96 -80 -200 -114t-230 -34q-79 0 -150.5 16.5t-135.5 53.5t-110 91.5t-73 134.5t-27 178zM150 1014v266h258v-266h-258zM350 555h291 q-6 68 -46 107.5t-103 39.5t-96 -38.5t-46 -108.5zM588 1014v266h258v-266h-258z" />
<glyph unicode="&#xec;" horiz-adv-x="522" d="M102 0v883h318v-883h-318zM102 1356h293l158 -342h-227z" />
<glyph unicode="&#xed;" horiz-adv-x="522" d="M102 0v883h318v-883h-318zM141 1014l158 342h293l-223 -342h-228z" />
<glyph unicode="&#xee;" horiz-adv-x="522" d="M102 0v883h318v-883h-318zM102 1014l211 301h222l210 -301h-231l-92 143l-92 -143h-228z" />
<glyph unicode="&#xef;" horiz-adv-x="522" d="M-76 1014v266h258v-266h-258zM102 0v883h318v-883h-318zM336 1014v266h258v-266h-258z" />
<glyph unicode="&#xf0;" horiz-adv-x="1056" d="M51 442q0 201 113.5 333t300.5 132q62 0 117.5 -22.5t89.5 -61.5q-24 130 -131 271l-248 -101l-88 181l196 77q-72 69 -145 121l184 162q115 -76 217 -178l170 67l86 -180l-118 -47q211 -305 211 -690q0 -122 -39 -224t-105.5 -168t-152.5 -102.5t-181 -36.5 q-129 0 -238 60t-174 168t-65 239zM360 442q0 -84 45 -149.5t123 -65.5t122 66t44 151q0 82 -44 146.5t-124 64.5q-77 0 -121.5 -65.5t-44.5 -147.5z" />
<glyph unicode="&#xf1;" horiz-adv-x="1103" d="M102 0v883h318v-92q85 116 254 116q87 0 152.5 -29t104.5 -81t58 -119t19 -148v-530h-318v455q0 94 -28 140t-97 46t-107 -47t-38 -129v-465h-318zM168 1014q0 118 70 186t192 68q45 0 141 -41q5 -2 21.5 -8.5t23 -9l19.5 -7.5t20.5 -7t18 -3.5t18.5 -1.5q84 0 84 74h170 q0 -119 -69.5 -186.5t-192.5 -67.5q-43 0 -141 39q-86 38 -121 38q-84 0 -84 -73h-170z" />
<glyph unicode="&#xf2;" horiz-adv-x="1054" d="M51 442q0 128 65.5 235.5t174.5 168.5t235 61q128 0 237.5 -59t175 -166t65.5 -238q0 -128 -65.5 -236.5t-175 -170.5t-235.5 -62q-129 0 -238 60t-174 168t-65 239zM199 1356h293l157 -342h-227zM360 442q0 -84 45 -149.5t123 -65.5t122 66t44 151q0 82 -44 146.5 t-124 64.5q-77 0 -121.5 -65.5t-44.5 -147.5z" />
<glyph unicode="&#xf3;" horiz-adv-x="1054" d="M51 442q0 128 65.5 235.5t174.5 168.5t235 61q128 0 237.5 -59t175 -166t65.5 -238q0 -128 -65.5 -236.5t-175 -170.5t-235.5 -62q-129 0 -238 60t-174 168t-65 239zM360 442q0 -84 45 -149.5t123 -65.5t122 66t44 151q0 82 -44 146.5t-124 64.5q-77 0 -121.5 -65.5 t-44.5 -147.5zM381 1014l158 342h292l-223 -342h-227z" />
<glyph unicode="&#xf4;" horiz-adv-x="1054" d="M51 442q0 128 65.5 235.5t174.5 168.5t235 61q128 0 237.5 -59t175 -166t65.5 -238q0 -128 -65.5 -236.5t-175 -170.5t-235.5 -62q-129 0 -238 60t-174 168t-65 239zM203 1014l211 301h221l211 -301h-232l-92 143l-92 -143h-227zM360 442q0 -84 45 -149.5t123 -65.5 t122 66t44 151q0 82 -44 146.5t-124 64.5q-77 0 -121.5 -65.5t-44.5 -147.5z" />
<glyph unicode="&#xf5;" horiz-adv-x="1054" d="M51 442q0 128 65.5 235.5t174.5 168.5t235 61q128 0 237.5 -59t175 -166t65.5 -238q0 -128 -65.5 -236.5t-175 -170.5t-235.5 -62q-129 0 -238 60t-174 168t-65 239zM133 1014q0 118 70 186t192 68q46 0 142 -41q7 -3 22 -9t22 -9t19.5 -7.5t20.5 -6.5t18 -3.5t18 -1.5 q84 0 84 74h170q0 -119 -69.5 -186.5t-192.5 -67.5q-43 0 -141 39q-85 38 -121 38q-84 0 -84 -73h-170zM360 442q0 -84 45 -149.5t123 -65.5t122 66t44 151q0 82 -44 146.5t-124 64.5q-77 0 -121.5 -65.5t-44.5 -147.5z" />
<glyph unicode="&#xf6;" horiz-adv-x="1054" d="M51 442q0 128 65.5 235.5t174.5 168.5t235 61q128 0 237.5 -59t175 -166t65.5 -238q0 -128 -65.5 -236.5t-175 -170.5t-235.5 -62q-129 0 -238 60t-174 168t-65 239zM168 1014v266h258v-266h-258zM360 442q0 -84 45 -149.5t123 -65.5t122 66t44 151q0 82 -44 146.5 t-124 64.5q-77 0 -121.5 -65.5t-44.5 -147.5zM606 1014v266h258v-266h-258z" />
<glyph unicode="&#xf7;" d="M0 492v512h250v-512h-250zM492 0v250h512v-250h-512zM492 492v512h512v-512h-512zM492 1245v250h512v-250h-512zM1245 492v512h250v-512h-250z" />
<glyph unicode="&#xf8;" horiz-adv-x="1054" d="M45 72l96 94q-90 120 -90 276q0 128 65.5 235.5t174.5 168.5t235 61q157 0 285 -88l102 101l115 -101l-110 -106q86 -120 86 -269q0 -128 -65.5 -236.5t-175 -170.5t-235.5 -62q-154 0 -276 86l-96 -94zM360 442q0 -84 45 -149.5t123 -65.5t122 66t44 151q0 82 -44 146.5 t-124 64.5q-77 0 -121.5 -65.5t-44.5 -147.5z" />
<glyph unicode="&#xf9;" horiz-adv-x="1103" d="M96 352v531h318v-455q0 -94 28 -140t97 -46t107 47t38 129v465h317v-883h-317v92q-86 -117 -254 -117q-87 0 -152.5 29t-104.5 81t-58 119t-19 148zM240 1356h292l158 -342h-227z" />
<glyph unicode="&#xfa;" horiz-adv-x="1103" d="M96 352v531h318v-455q0 -94 28 -140t97 -46t107 47t38 129v465h317v-883h-317v92q-86 -117 -254 -117q-87 0 -152.5 29t-104.5 81t-58 119t-19 148zM410 1014l157 342h293l-223 -342h-227z" />
<glyph unicode="&#xfb;" horiz-adv-x="1103" d="M96 352v531h318v-455q0 -94 28 -140t97 -46t107 47t38 129v465h317v-883h-317v92q-86 -117 -254 -117q-87 0 -152.5 29t-104.5 81t-58 119t-19 148zM225 1014l211 301h221l211 -301h-231l-92 143l-92 -143h-228z" />
<glyph unicode="&#xfc;" horiz-adv-x="1103" d="M96 352v531h318v-455q0 -94 28 -140t97 -46t107 47t38 129v465h317v-883h-317v92q-86 -117 -254 -117q-87 0 -152.5 29t-104.5 81t-58 119t-19 148zM199 1014v266h258v-266h-258zM637 1014v266h258v-266h-258z" />
<glyph unicode="&#xfd;" horiz-adv-x="987" d="M20 883h334l121 -402l29 -110q14 57 28 110l105 402h330l-371 -1080q-68 -194 -252 -194h-184v260h67q47 0 84 25.5t37 62.5q0 56 -24 123zM369 1014l157 342h293l-223 -342h-227z" />
<glyph unicode="&#xfe;" horiz-adv-x="1150" d="M102 -367v1862h318v-702q36 52 110.5 83t155.5 31q181 0 297.5 -137t116.5 -328q0 -122 -51 -228t-147 -172.5t-216 -66.5q-81 0 -155.5 31.5t-110.5 83.5v-457h-318zM420 438q0 -89 50 -142.5t132 -53.5q79 0 129.5 53.5t50.5 142.5q0 90 -50.5 146.5t-129.5 56.5 q-83 0 -132.5 -56t-49.5 -147z" />
<glyph unicode="&#xff;" horiz-adv-x="987" d="M20 883h334l121 -402l29 -110q14 57 28 110l105 402h330l-371 -1080q-68 -194 -252 -194h-184v260h67q47 0 84 25.5t37 62.5q0 56 -24 123zM145 1014v266h258v-266h-258zM584 1014v266h258v-266h-258z" />
<glyph unicode="&#x152;" horiz-adv-x="2281" d="M82 754q0 160 56 301t155.5 243.5t245 162t315.5 59.5q125 0 245 -48.5t195 -128.5v152h840v-276h-553v-351h514v-276h-514v-316h584v-276h-871v160q-60 -77 -189.5 -131t-254.5 -54q-170 0 -315 62t-243.5 167.5t-154 248t-55.5 301.5zM420 754q0 -101 34.5 -192.5 t92.5 -157t137.5 -104t165.5 -38.5q130 0 231 71t152 182t51 239q0 131 -52.5 240t-151.5 174t-226 65q-93 0 -175 -40t-138.5 -106t-88.5 -153t-32 -180z" />
<glyph unicode="&#x153;" horiz-adv-x="1673" d="M51 442q0 128 65.5 235.5t174.5 168.5t235 61q96 0 182 -41t126 -106q37 61 125.5 104t177.5 43q213 0 342 -140.5t129 -379.5h-619q8 -82 59 -134t140 -52q100 0 168 22.5t127 71.5l135 -172q-96 -80 -200 -114t-230 -34q-100 0 -202 44t-148 112q-40 -63 -131.5 -109.5 t-178.5 -46.5q-129 0 -238 60t-174 168t-65 239zM360 442q0 -84 45 -149.5t123 -65.5t122 66t44 151q0 82 -44 146.5t-124 64.5q-77 0 -121.5 -65.5t-44.5 -147.5zM1012 555h291q-6 68 -46.5 107.5t-103.5 39.5t-95.5 -38.5t-45.5 -108.5z" />
<glyph unicode="&#x178;" horiz-adv-x="1413" d="M31 1495h372l275 -518q7 -15 14.5 -35t11.5 -32l3 -13q12 47 28 80l273 518h374l-516 -889v-606h-327v606zM356 1618v266h258v-266h-258zM795 1618v266h258v-266h-258z" />
<glyph unicode="&#x2c6;" horiz-adv-x="1024" d="M190 1014l211 301h222l211 -301h-232l-92 143l-92 -143h-228z" />
<glyph unicode="&#x2dc;" horiz-adv-x="1024" d="M123 1014q0 118 70 186t192 68q45 0 141 -41q5 -2 21.5 -8.5t23 -9l19.5 -7.5t20.5 -7t18 -3.5t18.5 -1.5q84 0 84 74h170q0 -119 -69.5 -186.5t-192.5 -67.5q-43 0 -141 39q-86 38 -121 38q-84 0 -84 -73h-170z" />
<glyph unicode="&#x2000;" horiz-adv-x="980" />
<glyph unicode="&#x2001;" horiz-adv-x="1960" />
<glyph unicode="&#x2002;" horiz-adv-x="980" />
<glyph unicode="&#x2003;" horiz-adv-x="1960" />
<glyph unicode="&#x2004;" horiz-adv-x="653" />
<glyph unicode="&#x2005;" horiz-adv-x="490" />
<glyph unicode="&#x2006;" horiz-adv-x="326" />
<glyph unicode="&#x2007;" horiz-adv-x="326" />
<glyph unicode="&#x2008;" horiz-adv-x="245" />
<glyph unicode="&#x2009;" horiz-adv-x="392" />
<glyph unicode="&#x200a;" horiz-adv-x="108" />
<glyph unicode="&#x2010;" horiz-adv-x="778" d="M82 418v270h614v-270h-614z" />
<glyph unicode="&#x2011;" horiz-adv-x="778" d="M82 418v270h614v-270h-614z" />
<glyph unicode="&#x2012;" horiz-adv-x="778" d="M82 418v270h614v-270h-614z" />
<glyph unicode="&#x2013;" horiz-adv-x="942" d="M82 418v270h778v-270h-778z" />
<glyph unicode="&#x2014;" horiz-adv-x="1331" d="M82 418v270h1167v-270h-1167z" />
<glyph unicode="&#x2018;" horiz-adv-x="512" d="M102 932v184q0 105 43 201t121 203l195 -115q-64 -95 -64 -238v-235h-295z" />
<glyph unicode="&#x2019;" horiz-adv-x="512" d="M39 1022q63 94 63 238v235h295v-184q0 -105 -43 -201t-121 -203z" />
<glyph unicode="&#x201a;" horiz-adv-x="512" d="M39 -238q63 94 63 238v236h295v-185q0 -105 -43 -200.5t-121 -202.5z" />
<glyph unicode="&#x201c;" horiz-adv-x="921" d="M102 932v184q0 105 43 201t121 203l195 -115q-64 -95 -64 -238v-235h-295zM524 932v184q0 105 43 201t121 203l195 -115q-64 -95 -64 -238v-235h-295z" />
<glyph unicode="&#x201d;" horiz-adv-x="921" d="M39 1022q63 94 63 238v235h295v-184q0 -105 -43 -201t-121 -203zM461 1022q63 94 63 238v235h295v-184q0 -105 -43 -201t-121 -203z" />
<glyph unicode="&#x201e;" horiz-adv-x="921" d="M39 -238q63 94 63 238v236h295v-185q0 -105 -43 -200.5t-121 -202.5zM461 -238q63 94 63 238v236h295v-185q0 -105 -43 -200.5t-121 -202.5z" />
<glyph unicode="&#x2022;" horiz-adv-x="782" d="M51 778q0 138 100.5 238t239.5 100q141 0 241.5 -100t100.5 -238q0 -142 -100.5 -243t-241.5 -101q-140 0 -240 101t-100 243z" />
<glyph unicode="&#x2026;" d="M102 0v309h308v-309h-308zM594 0v309h307v-309h-307zM1085 0v309h308v-309h-308z" />
<glyph unicode="&#x202f;" horiz-adv-x="392" />
<glyph unicode="&#x2039;" horiz-adv-x="495" d="M82 311v279l311 227v-268l-133 -98l133 -99v-268z" />
<glyph unicode="&#x203a;" horiz-adv-x="495" d="M102 84v268l134 99l-134 98v268l312 -227v-279z" />
<glyph unicode="&#x205f;" horiz-adv-x="490" />
<glyph unicode="&#x2122;" horiz-adv-x="1677" d="M66 1339v156h495v-156h-170v-741h-164v741h-161zM657 598v897h146l317 -438l307 438h152v-897h-164v637l-260 -383h-70l-264 371v-625h-164z" />
<glyph unicode="&#x25fc;" horiz-adv-x="880" d="M0 0v881h881v-881h-881z" />
<glyph unicode="&#xfb01;" horiz-adv-x="1144" d="M35 647v236h110v364q0 126 66.5 199.5t191.5 73.5h166v-267h-51q-29 0 -42 -31.5t-13 -68.5v-270h117v-236h-117v-647h-318v647h-110zM725 0v883h317v-883h-317zM725 1026v291h317v-291h-317z" />
<glyph unicode="&#xfb02;" horiz-adv-x="1144" d="M35 647v236h110v364q0 126 66.5 199.5t191.5 73.5h166v-267h-51q-29 0 -42 -31.5t-13 -68.5v-270h117v-236h-117v-647h-318v647h-110zM725 0v1495h317v-1495h-317z" />
</font>
</defs>
</svg>
