<?xml version="1.0" encoding="utf-8"?>
<!-- Generator: Adobe Illustrator 24.2.2, SVG Export Plug-In . SVG Version: 6.00 Build 0)  -->
<svg version="1.1" id="Isolation_Mode" xmlns="http://www.w3.org/2000/svg" xmlns:xlink="http://www.w3.org/1999/xlink" x="0px"
	 y="0px" viewBox="0 0 370.8 374.1" style="enable-background:new 0 0 370.8 374.1;" xml:space="preserve">
<g>
	<path d="M308.1,64.8c-32.6-32.6-76-50.6-122.2-50.6c-46.2,0-89.5,18-122.2,50.6c-32.6,32.6-50.6,76-50.6,122.2s18,89.5,50.6,122.2
		c32.6,32.6,76,50.6,122.2,50.6c46.2,0,89.5-18,122.2-50.6c32.6-32.6,50.6-76,50.6-122.2S340.8,97.5,308.1,64.8z M65,293.7
		c-14.3-16.2-25.1-34.8-31.8-54.8H65V293.7z M29.7,227.3c-3.3-13-5.1-26.5-5.1-40.3c0-43.1,16.8-83.6,47.2-114
		c30.5-30.5,71-47.2,114-47.2c41.2,0,79.9,15.3,109.9,43.2L143.9,220.9l-21.4,21.4v-14.9h-3.5l39.9-40.3l-70.2-72.6l-4,6
		C71.9,140.2,65,163.2,65,187c0,13.9,2.3,27.4,6.9,40.3H29.7z M258.6,221.4l-24.1,0.1l58.3-58.3c1.5,7,2.4,14.2,2.6,21.5
		L258.6,221.4z M294.4,201.9c-0.9,6.6-2.4,13.1-4.5,19.4l-15,0L294.4,201.9z M218.1,221.5l-9.5,0c-2.6-2.5-5.8-4.3-9.4-5.2
		l82.4-82.4c3,5.3,5.4,10.8,7.5,16.6L218.1,221.5z M194.6,256.1c1,0,1.9-0.1,2.9-0.2v0.2h88.1c5.4,0,9.8,4.4,9.8,9.8
		c0,4.8-3.5,8.9-8.2,9.7l-123.6,20.6c-0.5,0.1-1.1,0.1-1.7,0l-39.4-4.9v-32.8l29.5-29.5c1.1-1.1,2.5-1.7,4.1-1.7h38.4
		c4.8,0,8.6,3.9,8.6,8.6s-3.9,8.6-8.6,8.6h-31.7v11.5H194.6z M183.5,215.8h-18.3l102-102c2.9,3.2,5.6,6.6,8.1,10.1L183.5,215.8z
		 M111.5,154.4l11.8,12.2l-44.2,44.2c-1.6-7-2.4-14.2-2.6-21.5L111.5,154.4z M77.5,172.1c1.9-13.8,6.3-27,13.2-39.1l12.7,13.2
		L77.5,172.1z M76.6,238.8h31.1h3.4v14.9l-34.6,34.6L76.6,238.8L76.6,238.8z M102.9,227.3H84.2c-0.5-1.3-1-2.6-1.4-3.8l48.6-48.6
		l11.6,12L102.9,227.3z M76,305l35-35V308H79.3C78.2,307,77.1,306,76,305z M300,301.1c-30.5,30.5-71,47.2-114,47.2
		c-33.4,0-65.2-10.1-92-28.8h28.7V303l37.9,4.7c0.7,0.1,1.4,0.1,2.1,0.1c1,0,1.9-0.1,2.8-0.2L289.1,287
		c10.3-1.7,17.8-10.6,17.8-21.1c0-11.8-9.6-21.4-21.4-21.4h-72.8c1.2-2.6,1.9-5.5,1.9-8.6c0-1-0.1-2-0.2-2.9l83.5-0.2l1.4-3.7
		c5-13.5,7.5-27.6,7.5-42.1c0-30.4-11.1-59.1-31.5-81.4L304,77.1c27.9,29.9,43.2,68.7,43.2,109.9C347.2,230.1,330.4,270.6,300,301.1
		z"/>
	<path d="M258.4,89.9l-6-3.9c-19.8-13-42.8-19.9-66.5-19.9c-30.8,0-60.1,11.6-82.6,32.6l-4.2,3.9l69.2,75.5L258.4,89.9z
		 M115.5,103.2c15.9-13.4,35.1-21.9,55.5-24.6l-40.7,40.7L115.5,103.2z M138.1,127.8l50.2-50.2c7.3,0.2,14.5,1,21.5,2.6l-60.2,60.2
		L138.1,127.8z M222.4,83.8c6.1,2.1,12,4.8,17.6,8l-71.1,69.6l-11.5-12.6L222.4,83.8z"/>
</g>
</svg>
