<svg id="Capa_1" enable-background="new 0 0 512 512" height="512" viewBox="0 0 512 512" width="512" xmlns="http://www.w3.org/2000/svg"><g><path d="m426.333 45.75h-9.904v-12.875c.001-18.127-14.75-32.875-32.881-32.875h-260.823c-18.131 0-32.881 14.748-32.881 32.875v12.875h-4.205c-13.035 0-23.639 10.603-23.639 23.635v28.885c0 9.459 5.59 17.634 13.638 21.408v57.734c0 21.388 8.04 35.655 15.815 49.452 7.76 13.771 15.09 26.777 15.09 48.001v120.735c-17.794 11.144-29.658 30.905-29.658 53.393 0 34.742 28.271 63.007 63.021 63.007 26.541 0 49.285-16.512 58.545-39.798h105.061l16.602 34.168c1.673 3.443 5.166 5.63 8.995 5.63h66.319c5.523 0 10-4.478 10-10v-227.136c0-21.224 7.33-34.23 15.09-48.001 7.775-13.797 15.815-28.064 15.815-49.452v-57.728c8.065-3.771 13.667-11.95 13.667-21.413v-28.885c0-13.032-10.617-23.635-23.667-23.635zm-286.426 446.25c-23.722 0-43.021-19.293-43.021-43.007 0-23.698 19.299-42.979 43.021-42.979 23.706 0 42.993 19.28 42.993 42.979-.001 23.714-19.287 43.007-42.993 43.007zm276.426-314.589c0 16.141-6.135 27.027-13.239 39.634-8.281 14.693-17.666 31.349-17.666 57.819v217.136h-50.06l-16.602-34.168c-1.673-3.443-5.166-5.63-8.995-5.63h-106.953c.054-1.063.081-2.133.081-3.209 0-34.727-28.258-62.979-62.993-62.979-4.586 0-9.053.505-13.363 1.439v-112.589c0-26.471-9.385-43.126-17.666-57.819-7.104-12.606-13.239-23.493-13.239-39.634v-55.508h55.335v33.908c0 5.522 4.477 10 10 10s10-4.478 10-10v-33.908h170.054v33.908c0 5.522 4.477 10 10 10s10-4.478 10-10v-33.908h55.307v55.508zm13.667-79.141c0 1.97-1.679 3.634-3.667 3.634h-340.695c-2.006 0-3.638-1.63-3.638-3.634v-28.885c0-2.004 1.632-3.635 3.638-3.635h125.379c5.523 0 10-4.478 10-10s-4.477-10-10-10h-101.174v-12.875c0-7.1 5.778-12.875 12.881-12.875h260.824c7.103 0 12.881 5.775 12.881 12.875v12.875h-95.56c-5.523 0-10 4.478-10 10s4.477 10 10 10h125.464c1.987 0 3.667 1.664 3.667 3.635z"/><path d="m139.907 438.965c-5.523 0-10 4.478-10 10v.057c0 5.522 4.477 9.972 10 9.972s10-4.506 10-10.028-4.477-10.001-10-10.001z"/><path d="m343.355 307.365c-2.762-4.781-8.88-6.42-13.661-3.659-4.783 2.762-6.421 8.878-3.66 13.661l5.316 9.206h-63.92l8.357-8.354c3.906-3.905 3.906-10.237.001-14.143s-10.236-3.906-14.142-.002l-25.433 25.427c-3.846 3.851-3.846 10.293 0 14.145l25.433 25.427c1.953 1.952 4.511 2.928 7.07 2.928 2.56 0 5.119-.977 7.072-2.93 3.905-3.905 3.904-10.237-.001-14.143l-8.357-8.354h81.243c3.573 0 6.874-1.906 8.661-5 1.786-3.095 1.786-6.906-.001-10.001z"/><path d="m238.74 205.972c4.784 2.76 10.899 1.119 13.659-3.665l3.591-6.225 34.905 60.438-10.089-3.093c-5.278-1.621-10.873 1.35-12.492 6.629-1.619 5.28 1.349 10.873 6.629 12.492l34.393 10.545c5.209 1.604 10.895-1.429 12.492-6.628l10.547-34.384c1.62-5.28-1.348-10.873-6.628-12.493-5.279-1.619-10.873 1.348-12.493 6.628l-3.812 12.429-44.797-77.566c-1.787-3.094-5.087-4.999-8.66-4.999 0 0-.001 0-.002 0-3.573.001-6.874 1.908-8.659 5.003l-12.249 21.23c-2.76 4.783-1.119 10.899 3.665 13.659z"/><path d="m241.417 267.623-10.547-34.384c-1.595-5.192-7.29-8.22-12.485-6.63l-34.393 10.517c-5.281 1.614-8.253 7.205-6.639 12.486 1.615 5.282 7.206 8.253 12.487 6.639l10.11-3.091-45.284 78.413c-1.787 3.094-1.787 6.906-.001 10 1.786 3.095 5.088 5.001 8.661 5.001h35.074c5.523 0 10-4.478 10-10s-4.477-10-10-10h-17.75l37.835-65.513 3.812 12.428c1.32 4.304 5.279 7.07 9.557 7.07.971 0 1.959-.143 2.936-.442 5.28-1.621 8.247-7.214 6.627-12.494z"/><path d="m255.958 45.75c-5.523 0-10 4.478-10 10s4.477 10 10 10h.028c5.523 0 9.986-4.478 9.986-10s-4.492-10-10.014-10z"/></g></svg>