<?xml version="1.0" encoding="utf-8"?>
<!-- Generator: Adobe Illustrator 24.2.2, SVG Export Plug-In . SVG Version: 6.00 Build 0)  -->
<svg version="1.1" id="Layer_1" xmlns="http://www.w3.org/2000/svg" xmlns:xlink="http://www.w3.org/1999/xlink" x="0px" y="0px"
	 viewBox="0 0 314 289.7" style="enable-background:new 0 0 314 289.7;" xml:space="preserve">
<style type="text/css">
	.st0{fill:#060606;}
	.st1{fill:#625F5F;}
</style>
<g>
	<path class="st0" d="M10.3,283.3c-2.4-0.7-3.7-2.5-3.5-4.6c0.3-2.1,2.1-3.8,4.4-3.8c3.3,0,6.6-0.1,9.9,0c1.8,0.1,2.3-0.4,2.3-2.3
		c-0.1-11.1,0-22.2,0-33.2c0-17.5,0.1-35.1,0-52.6c0-4.8,1.2-8.9,4.8-12.2c0.8-0.7,0.7-1.5,0.7-2.4c0-12.8,0.1-25.5,0-38.3
		c-0.2-12.9,8.3-25.8,22.9-28.8c14.7-3.1,29.7,6,33.4,21.7c1.3,5.6,0.7,11.2,0.9,17c1.9-0.5,3.4-1.7,5.1-2.5c1-0.4,0.8-1.5,0.9-2.3
		c0.3-5.1,0.2-10.3,0.5-15.4c0.5-12.1,0.7-24.2,1-36.3c0.3-8.9,0.6-17.7,0.9-26.6c0.1-3.5,3.2-6.4,6.8-6.4c6.7-0.1,13.3-0.1,20,0
		c3.6,0,6.3,2.4,6.6,6c0.5,6.7,0.6,13.5,0.9,20.2c0.6,17.8,1.1,35.6,1.7,53.5c0.1,4.2,0.2,8.4,0.3,12.5c0,1.2,0.5,1.9,1.6,2.6
		c7.8,4.5,15.6,9.1,23.3,13.8c1.5,0.9,1.8,0.6,1.7-1c-0.1-9.1,0-18.2-0.1-27.3c0-3.7,1.3-6.4,4.5-8.1c3-1.7,6-1.1,8.9,0.6
		c10.5,6.3,21,12.5,31.5,18.7c0.7,0.4,1.4,0.7,2.3,1.2c0-3.6,0-7,0-10.3c0.1-15.4,12-28.9,27.3-31.4c18-2.9,34.1,9.2,37.2,26.5
		c1.1,6.3,0.5,12.7,0.5,19.1c0,2.3-2.3,3.9-4.5,3.8c-2.3-0.1-4.1-2-4.1-4.5c-0.1-4.1,0-8.2,0-12.3c0-11.8-7.6-21.6-19.1-23.9
		c-13-2.6-25,5.8-27.9,18c-1,4.3-0.4,8.8-0.5,13.1c0,1.2,0.2,2.5,0,3.7c-0.5,2.8,0.8,4.4,3.3,5.5c1.3,0.6,1.6,0.5,1.6-0.9
		c-0.1-5,0.2-10-0.1-15c-0.6-9.9,6.4-19,17.5-20.1c8.6-0.8,17.7,4.7,20,14.7c0.4,1.8,0.5,3.6,0.5,5.5c0,11.9,0.1,23.8-0.1,35.7
		c0,2.4,1.3,2,2.7,2.1c1.7,0.1,2.4-0.3,2.2-2.1c-0.2-1.8-0.1-3.7,0-5.5c0-2.9,1.9-5,4.5-4.9c2.5,0,4.3,2,4.3,4.8
		c0,0.9,0.1,1.8,0,2.6c-0.2,3-0.1,5.4,3.4,7.1c3.8,1.8,4.6,6,4.5,10c-0.1,1.7,0.3,2.4,2.1,2.8c7.4,1.7,12,7.8,12,15.4
		c0,22,0,44,0,66c0,1.9,0.3,2.6,2.3,2.4c2.5-0.2,5,0.1,7.5-0.1c2.8-0.2,4.7,0.7,6.1,3.1c0,0.7,0,1.5,0,2.2c-0.9,1.5-1.7,3.1-3.8,3.2
		c-0.8,0-1.6-0.1-2.4-0.1c-95.7,0-191.4,0-287.1,0C12.6,283.3,11.5,283.3,10.3,283.3z M130.9,158.6c0.1,2,0.3,3.7,0.3,5.3
		c0.6,19.4,1.2,38.7,1.8,58.1c0.5,16.9,1,33.9,1.4,50.8c0,1.7,0.5,2.2,2.2,2.2c16.9-0.1,33.7-0.1,50.6,0c1.6,0,2.2-0.3,2.2-2.1
		c-0.1-25.8-0.1-51.5,0-77.3c0-1.9-0.7-2.9-2.2-3.8c-14.7-8.6-29.3-17.3-44-26C139.1,163.4,135.1,161.1,130.9,158.6z M225,222.4
		c0-16.7,0-33.5,0-50.2c0-1.9-0.6-3-2.3-4c-18.4-10.8-36.8-21.7-55.2-32.7c-1.6-1-2-0.8-2,1.1c0.1,10.1,0.1,20.1,0,30.2
		c0,1.6,0.5,2.5,1.9,3.3c7.9,4.5,15.6,9.3,23.5,13.8c4.9,2.8,7.1,6.8,7.1,12.3c-0.1,25.5,0,51.1-0.1,76.6c0,1.8,0.5,2.1,2.2,2.1
		c7.6-0.1,15.2-0.1,22.9,0c1.7,0,2-0.5,2-2.1C225,256.1,225,239.3,225,222.4z M91.2,151.2c-0.5,0.2-1,0.5-1.6,0.8
		c-17.7,9.2-35.5,18.3-53.2,27.4c-3.2,1.6-4.5,3.9-4.5,7.5c0.1,28.5,0,56.9,0,85.4c0,0.4,0,0.9,0,1.3c-0.1,1,0.3,1.3,1.3,1.3
		c1.8,0,3.7-0.1,5.5,0c1.6,0.1,2.1-0.3,2.1-2c-0.1-7.8-0.1-15.7,0-23.5c0-3,1.9-5.3,4.4-5.3c2.6,0,4.5,2.5,4.4,5.2
		c-0.2,6.6-0.1,13.2,0,19.8c0,1.9-0.8,4.4,0.4,5.5c1.1,0.9,3.5,0.1,5.3,0.3c1.9,0.2,2.3-0.4,2.2-2.3c-0.1-26.7,0-53.4,0-80.1
		c0-0.7,0-1.4,0-2.4c-2.2,1.2-4,2.2-6,3.1c-1.4,0.7-2,1.5-2,3.2c0.1,11.2-0.1,22.5,0.1,33.7c0,2.8-2,5.2-4.5,5.2
		c-2.4,0-4.3-2.2-4.3-5.1c0-12.6,0-25.2,0-37.9c0-2.2,1-3.9,3-4.9c1.8-0.9,3.5-1.8,5.2-2.7c13.6-7.1,27.1-14.3,40.7-21.4
		c0.7-0.4,1.7-0.5,1.6-1.7C91.2,158.2,91.2,154.8,91.2,151.2z M233.7,191.9c0.6-0.2,1-0.2,1.5-0.4c4.1-1.3,4.1-1.3,4.2-5.6
		c0.1-4.2,2.3-7.1,6-8.8c1.3-0.6,1.8-1.2,1.8-2.7c-0.1-11.9,0-23.8-0.1-35.6c0-1.4-0.1-2.9-0.5-4.3c-1.4-5.1-6.1-8.1-11.4-7.5
		c-4.9,0.6-8.9,5.2-8.9,10.3c-0.1,6.9,0,13.8-0.1,20.7c0,1.6,0.4,2.5,1.8,3.3c3.9,2.2,5.7,5.7,5.6,10.1
		C233.7,178.2,233.7,184.9,233.7,191.9z M97.4,257.6c-0.3,0-0.6,0-0.9,0c0,5.3,0,10.6,0,15.8c0,1.1,0.2,1.5,1.4,1.5
		c8.8-0.1,17.6-0.1,26.4,0c1.5,0,1.7-0.6,1.6-1.8c-0.2-2.6-0.2-5.1-0.3-7.7c-0.3-7.8-0.5-15.5-0.7-23.3c0-1.3-0.5-1.6-1.7-1.5
		c-8.1,0.1-16.1,0-24.2,0c-1.1,0-1.6,0.2-1.6,1.4C97.4,247.2,97.4,252.4,97.4,257.6z M90.3,172.8c-1.9,1-4,2.1-6.2,3.1
		c-1.6,0.7-2.2,1.6-2.2,3.5c0.1,30.4,0.1,60.9,0.1,91.3c0,4.4,0,4.4,4.4,4.2c1.1,0,1.3-0.3,1.4-1.4c0-2.5,0.3-5,0.3-7.5
		c0.5-17.1,0.9-34.2,1.4-51.2c0.2-6.4,0.6-12.7,0.7-19.1C90.3,188.1,90.3,180.5,90.3,172.8z M99.1,199c-0.3,3.9-0.6,7.8-0.8,11.7
		c-0.1,0.9-0.1,1.7,1.3,1.7c7.7,0,15.4,0,23.1,0c0.9,0,1.2-0.3,1.1-1.1c-0.2-8.2-0.4-16.4-0.6-24.6c0-1-0.4-1.4-1.4-1.4
		c-7.1,0-14.2,0-21.3,0c-0.9,0-1.3,0.3-1.3,1.3C99.2,190.6,99.1,194.8,99.1,199z M119.8,82.4c0.3-5.9-0.4-11.8-0.4-17.7
		c0-1.5-0.5-1.6-1.8-1.6c-4.2,0.1-8.5,0.1-12.7,0c-1.7-0.1-2.1,0.5-2.1,2c-0.1,4.7-0.3,9.4-0.4,14.1c-0.2,6.9-0.4,13.8-0.6,20.6
		c0,0.9-0.2,1.7,1.3,1.6c5.4-0.1,10.8-0.1,16.2,0c1.1,0,1.4-0.3,1.2-1.4C119.9,94.2,120.6,88.3,119.8,82.4z M73.2,181.8
		c-1.8,0.9-3.3,1.8-4.8,2.5c-1.7,0.7-2.3,1.7-2.3,3.6c0.1,27.4,0.1,54.9,0.1,82.3c0,4.7,0,4.6,4.6,4.7c1.9,0.1,2.5-0.4,2.5-2.5
		c-0.1-29.4-0.1-58.9-0.1-88.3C73.2,183.5,73.2,182.8,73.2,181.8z M37.6,169c1.3-0.7,2.3-1.3,3.4-1.6c1.9-0.6,2.3-1.9,2.3-3.8
		c-0.1-9.9-0.1-19.8,0-29.7c0-1.3,0-2.7,0.2-3.9c1.7-7.3,8.3-11.7,15.9-10.9c6.6,0.8,12,6.9,12,13.9c0.1,4.8,0,9.7,0,14.5
		c0,4,0,3.9,3.6,2.2c1.6-0.8,2.1-1.7,2.1-3.5c-0.1-4.1,0-8.2,0-12.3c0-13.4-11-22.5-24.2-20.1c-7.7,1.4-15.1,9.3-15.3,17
		C37.4,143.4,37.6,156,37.6,169z M100,143.5c0,4,0,7.9,0,11.9c0,1,0,1.6,1.3,1.6c6.5-0.1,13,0,19.5,0c0.9,0,1.3-0.2,1.3-1.2
		c-0.2-8.1-0.4-16.2-0.6-24.4c0-1-0.4-1.4-1.4-1.4c-6,0-12,0-18,0c-0.9,0-1.3,0.3-1.3,1.2C100.9,135.3,100.3,139.4,100,143.5z
		 M258.1,210.1c7.5,0,15.1,0,22.6,0c0.6,0,1.5,0.4,1.8-0.7c1.6-5.3-2-10.2-7.6-10.2c-11.2,0-22.4,0-33.6,0c-0.8,0-1.6,0-2.4,0.2
		c-3.8,1.1-5.3,3.5-5.3,8.6c0,1.6,0.4,2.1,2.1,2.1C243.2,210.1,250.6,210.1,258.1,210.1z M258.1,274.9c7.5,0,15.1,0,22.6,0
		c1.6,0,2-0.4,1.9-1.9c-0.1-1.6-0.2-3.2,0-4.8c0.2-1.7-0.5-2-2.1-2c-13.3,0.1-26.6,0-40,0.1c-2.2,0-5-0.9-6.4,0.4
		c-1.4,1.4-0.2,4.3-0.5,6.5c-0.2,1.7,0.6,1.9,2,1.8C243.1,274.9,250.6,274.9,258.1,274.9z M258.3,234.4c-6.4,0-12.9,0-19.3,0
		c-5.3,0-5.2,0-5.3,5.3c0,1.7,0.4,2.2,2.1,2.2c13.8-0.1,27.5,0,41.3,0c1.7,0,4.1,0.6,5.1-0.3c1.2-1,0.2-3.4,0.4-5.2
		c0.2-1.5-0.3-2-1.9-1.9C273.2,234.5,265.7,234.4,258.3,234.4z M258.3,225.7c6.5,0,13,0,19.5,0c4.7,0,4.6,0,4.8-4.8
		c0.1-2.1-0.7-2.3-2.5-2.3c-13.8,0.1-27.5,0-41.3,0c-5.2,0-5.2,0-5.2,5.3c0,1.4,0.4,1.8,1.8,1.8
		C243.1,225.7,250.7,225.7,258.3,225.7z M258.2,250.6c-6.6,0-13.2,0-19.8,0c-4.8,0-4.6,0-4.8,4.8c-0.1,2.1,0.7,2.4,2.5,2.3
		c13.8-0.1,27.5,0,41.3,0c5.2,0,5.1,0,5.2-5.3c0-1.6-0.6-1.9-2-1.8C273.1,250.6,265.7,250.6,258.2,250.6z M51.7,146.6
		c0,4.5,0,8.9,0,13.4c0,1.4,0.3,1.6,1.6,0.9c2.7-1.5,5.5-3,8.3-4.3c1.1-0.5,1.3-1.2,1.3-2.2c0-6.7,0-13.5,0-20.2
		c0-1.4-0.1-2.9-1-4.2c-1.5-2-3.8-2.8-6.2-2.1c-2.2,0.7-3.8,2.8-3.9,5.5C51.7,137.8,51.7,142.2,51.7,146.6z M111.2,231.9
		c3.9,0,7.9,0,11.8,0c1.3,0,1.6-0.4,1.5-1.6c-0.2-2.6-0.3-5.3-0.3-7.9c0-1.3-0.5-1.5-1.7-1.5c-7.6,0-15.2,0-22.8,0
		c-1.2,0-1.7,0.3-1.7,1.6c0,2.6-0.1,5.1-0.2,7.7c-0.1,1.4,0.3,1.9,1.8,1.8C103.4,231.8,107.3,231.9,111.2,231.9z M111.1,176.6
		c3.4,0,6.9,0,10.3,0c1.1,0,1.6-0.3,1.5-1.5c-0.2-2.6-0.4-5.3-0.4-7.9c0-1.4-0.4-1.7-1.7-1.7c-6.3,0.1-12.6,0.1-18.9,0
		c-1.8,0-2.3,0.8-2.3,2.3c0,2.4,0,4.8-0.1,7.3c-0.1,1.4,0.5,1.6,1.6,1.5C104.5,176.6,107.8,176.6,111.1,176.6z M111.2,121.2
		c2.9,0,5.7,0,8.6,0c1,0,1.4-0.3,1.4-1.3c-0.2-2.9-0.3-5.7-0.4-8.6c0-1.1-0.6-1.1-1.4-1.1c-5.6,0-11.1,0-16.7,0
		c-1.1,0-1.3,0.4-1.3,1.4c0,2.8,0,5.6-0.1,8.4c-0.1,1.2,0.5,1.3,1.4,1.3C105.5,121.2,108.3,121.2,111.2,121.2z M258.3,190.5
		c2.8,0,5.7,0,8.5,0c0.5,0,1.3,0.3,1.4-0.3c0.3-1.4,0.4-2.9,0-4.3c-0.3-1.1-1.4-0.9-2.2-0.9c-4.7,0-9.5,0-14.2,0
		c-3.7,0-3.9,0.2-3.9,4c0,1.3,0.5,1.6,1.7,1.6C252.4,190.4,255.4,190.5,258.3,190.5z"/>
	<path class="st0" d="M126.4,8.1c2.9,0.9,5.6,2,7.7,4.4c3.2,3.6,4.4,9.4,2.3,13.9c-2.2,4.8-6,7.5-11.4,7.7c-2.1,0.1-4.2,0-6.4,0
		c-2,0-3.1,1.1-3.2,3.1c-0.1,2.1,0,4.3,0,6.4c0,2.4-1.7,4.2-4,4.4c-2.2,0.2-4.2-1.2-4.4-3.6c-0.4-3.9-0.9-8,0.6-11.7
		c2.1-5.1,6.2-7.2,11.6-7.3c1.8,0,3.5,0,5.3,0c2.6-0.1,4.3-1.7,4.3-4.2c0-2.5-1.8-4.2-4.3-4.2c-8.1,0-16.3,0-24.4,0
		c-3.4,0-5.3-2.1-4.9-5.2c0.2-1.9,1.7-2.7,3.1-3.6C107.6,8.1,117,8.1,126.4,8.1z"/>
	<path class="st1" d="M10.3,283.3c1.2,0,2.3,0,3.5,0c95.7,0,191.4,0,287.1,0c0.8,0,1.6,0.1,2.4,0.1c0,0.1,0,0.3-0.1,0.3
		c-97.6,0-195.2,0-292.8,0C10.4,283.6,10.4,283.5,10.3,283.3z"/>
	<path class="st0" d="M146.8,229.1c2,0,4.1,0,6.1,0c2.8,0,4.5,1.6,4.6,4.4c0.1,4.2,0.1,8.3,0,12.5c0,2.5-1.4,4.2-4,4.4
		c-4.6,0.4-9.3,0.5-14-0.1c-2.3-0.3-3.6-1.9-3.6-4.2c0-4.2,0-8.5,0-12.7c0-2.7,1.7-4.3,4.4-4.3C142.6,229,144.7,229.1,146.8,229.1z
		 M148.8,239.9c0.2-1.4,0.3-2.5-1.8-2.3c-1.6,0.1-2.4,0.3-2.2,2.1c0.1,1.4-0.1,2.5,2,2.3C148.2,241.8,149.3,241.8,148.8,239.9z"/>
	<path class="st0" d="M184.9,211.6c0,2.1,0,4.1,0,6.2c0,2.5-1.2,4.1-3.6,4.4c-4.6,0.6-9.3,0.5-14,0c-2.5-0.3-3.9-1.9-3.9-4.4
		c-0.1-4.2-0.1-8.4,0-12.5c0.1-2.8,1.8-4.3,4.7-4.3c4.1,0,8.2,0,12.3,0c3,0,4.5,1.6,4.6,4.6C184.9,207.5,184.9,209.6,184.9,211.6z
		 M176.1,211.6c0.4-1.6,0-2.3-1.9-2.2c-1.7,0-2.2,0.5-2.1,2.2c0.1,1.4,0,2.4,2,2.3C175.6,213.7,176.6,213.5,176.1,211.6z"/>
	<path class="st0" d="M174.3,229.1c2,0,4.1,0,6.1,0c2.9,0,4.5,1.6,4.5,4.5c0,4,0,7.9,0,11.9c0,3.3-1.4,5-4.6,5.2
		c-4.1,0.2-8.2,0.2-12.3,0c-3.2-0.2-4.7-2-4.7-5.1c0-3.7,0-7.5,0-11.2c0-3.6,1.6-5.1,5.2-5.1C170.5,229,172.4,229.1,174.3,229.1z
		 M172.2,239.7c-0.4,1.5-0.1,2.3,1.9,2.2c1.6-0.1,2.3-0.3,2.2-2.1c-0.1-1.4,0-2.5-2-2.3C172.6,237.6,171.7,237.8,172.2,239.7z"/>
	<path class="st0" d="M146.9,200.9c2,0,4.1,0,6.1,0c2.8,0,4.5,1.6,4.6,4.4c0.1,4.2,0.1,8.3,0,12.5c0,2.4-1.4,4.1-3.8,4.3
		c-4.7,0.5-9.5,0.5-14.2,0c-2.3-0.3-3.6-1.9-3.6-4.2c0-4.2-0.1-8.5,0-12.7c0-2.7,1.7-4.3,4.4-4.3
		C142.6,200.8,144.7,200.9,146.9,200.9z M148.8,211.7c0.2-1.5,0.2-2.5-1.9-2.4c-1.6,0.1-2.4,0.3-2.2,2.1c0.1,1.4-0.1,2.5,2,2.3
		C148.2,213.6,149.3,213.6,148.8,211.7z"/>
	<path class="st0" d="M211.3,229.1c2.1,0,4.2,0,6.4,0c2.6,0.1,4.2,1.6,4.2,4.3c0.1,4.2,0,8.3,0,12.5c0,2.8-1.3,4.5-4.1,4.6
		c-4.3,0.2-8.6,0.2-12.9,0c-3.1-0.2-4.4-1.7-4.5-4.8c-0.1-4-0.1-7.9,0-11.9c0.1-3.3,1.7-4.7,5-4.7
		C207.3,229,209.3,229.1,211.3,229.1z M211.3,241.8c1.7,0.6,2.1-0.3,2.1-2c0-1.9-0.6-2.3-2.3-2.3c-1.9-0.1-2,0.8-2.1,2.3
		C209,241.5,209.4,242.3,211.3,241.8z"/>
	<path class="st0" d="M211.2,200.9c2.2,0,4.4,0,6.6,0c2.5,0.1,4.1,1.6,4.1,4.1c0.1,4.3,0.1,8.6,0,13c0,2.4-1.2,3.9-3.6,4.2
		c-4.5,0.6-9,0.4-13.5,0.1c-3-0.2-4.3-1.7-4.3-4.7c-0.1-4-0.1-8.1,0-12.1c0.1-3.3,1.7-4.6,5-4.6
		C207.3,200.9,209.2,200.9,211.2,200.9z M211.2,213.7c1.7,0.4,2.3-0.2,2.3-2c0-1.8-0.5-2.3-2.3-2.3c-1.9,0-2,0.7-2.1,2.3
		C209,213.3,209.4,214.1,211.2,213.7z"/>
</g>
</svg>
