<?xml version="1.0" encoding="iso-8859-1"?>
<!-- Generator: Adobe Illustrator 19.0.0, SVG Export Plug-In . SVG Version: 6.00 Build 0)  -->
<svg version="1.1" id="Capa_1" xmlns="http://www.w3.org/2000/svg" xmlns:xlink="http://www.w3.org/1999/xlink" x="0px" y="0px"
	 viewBox="0 0 512 512" style="enable-background:new 0 0 512 512;" xml:space="preserve">
<g>
	<g>
		<g>
			<path d="M503.467,494.933H486.4c-4.713,0-8.533,3.82-8.533,8.533S481.687,512,486.4,512h17.067c4.713,0,8.533-3.82,8.533-8.533
				S508.18,494.933,503.467,494.933z"/>
			<path d="M452.267,494.933H315.733V486.4c-0.015-14.132-11.468-25.585-25.6-25.6V273.067c-0.019-6.069-3.271-11.669-8.533-14.693
				V145.067c-0.033-10.813-6.868-20.435-17.067-24.028V51.2c0.022-18.842,15.291-34.112,34.133-34.133h51.2v42.667
				c0.015,14.132,11.468,25.585,25.6,25.6h51.2c14.132-0.015,25.585-11.468,25.6-25.6V25.6c-0.015-14.132-11.468-25.585-25.6-25.6
				h-128c-28.264,0.031-51.169,22.936-51.2,51.2v69.839c-10.199,3.592-17.033,13.214-17.067,24.028v113.307
				c-5.262,3.024-8.514,8.624-8.533,14.693V460.8c-14.132,0.015-25.585,11.468-25.6,25.6v8.533H8.533
				c-4.713,0-8.533,3.82-8.533,8.533S3.82,512,8.533,512h443.733c4.713,0,8.533-3.82,8.533-8.533S456.979,494.933,452.267,494.933z
				 M366.933,17.067h59.733c4.71,0.006,8.527,3.823,8.533,8.533v8.533h-68.267V17.067z M366.933,51.2H435.2v8.533
				c-0.006,4.71-3.823,8.527-8.533,8.533h-51.2c-4.71-0.006-8.527-3.823-8.533-8.533V51.2z M247.467,145.067
				c0-4.713,3.82-8.533,8.533-8.533s8.533,3.82,8.533,8.533V256h-17.067V145.067z M238.933,273.067h34.133v25.6h-34.133V273.067z
				 M238.933,315.733h34.133V460.8h-34.133V315.733z M298.667,494.933h-85.333V486.4c0.006-4.71,3.823-8.527,8.533-8.533h68.267
				c4.71,0.006,8.527,3.823,8.533,8.533V494.933z"/>
			<path d="M349.866,93.867c0-2.263-0.899-4.433-2.5-6.033c-1.6-1.601-3.77-2.5-6.033-2.5s-4.433,0.899-6.033,2.5l-25.6,25.6
				c-2.178,2.151-3.037,5.304-2.251,8.262c0.786,2.958,3.097,5.269,6.055,6.055s6.111-0.073,8.262-2.251l25.6-25.6
				C348.967,98.3,349.866,96.13,349.866,93.867z"/>
			<path d="M480.367,125.5c1.598,1.603,3.769,2.503,6.033,2.5c3.451-0.001,6.562-2.08,7.882-5.268
				c1.32-3.188,0.591-6.858-1.849-9.298l-25.6-25.6c-3.341-3.281-8.701-3.256-12.012,0.054s-3.335,8.671-0.054,12.012L480.367,125.5
				z"/>
			<path d="M346.05,152.7c4.216,2.106,9.341,0.398,11.45-3.817l17.067-34.133c1.372-2.728,1.182-5.982-0.499-8.532
				c-1.681-2.55-4.596-4.007-7.644-3.822s-5.765,1.985-7.124,4.72l-17.067,34.133c-1.013,2.024-1.179,4.368-0.463,6.516
				C342.486,149.913,344.025,151.688,346.05,152.7z"/>
			<path d="M392.533,110.933v34.133c0,4.713,3.821,8.533,8.533,8.533s8.533-3.821,8.533-8.533v-34.133
				c0-4.713-3.82-8.533-8.533-8.533S392.533,106.221,392.533,110.933z"/>
			<path d="M437.899,102.837c-2.147-0.716-4.491-0.549-6.516,0.463c-2.025,1.012-3.564,2.787-4.28,4.934
				c-0.716,2.147-0.549,4.491,0.463,6.516l17.067,34.133c2.114,4.204,7.232,5.903,11.441,3.799s5.92-7.218,3.826-11.432
				l-17.067-34.133C441.821,105.092,440.046,103.552,437.899,102.837z"/>
		</g>
	</g>
</g>
<g>
</g>
<g>
</g>
<g>
</g>
<g>
</g>
<g>
</g>
<g>
</g>
<g>
</g>
<g>
</g>
<g>
</g>
<g>
</g>
<g>
</g>
<g>
</g>
<g>
</g>
<g>
</g>
<g>
</g>
</svg>
