<svg id="Layer_5" enable-background="new 0 0 64 64" height="512" viewBox="0 0 64 64" width="512" xmlns="http://www.w3.org/2000/svg"><g><path d="m32 15c-.552 0-1-.448-1-1h-2c0 1.302.839 2.402 2 2.816v2.184h2v-2.184c1.161-.414 2-1.514 2-2.816 0-1.654-1.346-3-3-3-.552 0-1-.448-1-1s.448-1 1-1 1 .448 1 1h2c0-1.302-.839-2.402-2-2.816v-2.184h-2v2.184c-1.161.414-2 1.514-2 2.816 0 1.654 1.346 3 3 3 .552 0 1 .448 1 1s-.448 1-1 1z"/><path d="m52 21c-.552 0-1-.448-1-1h-2c0 1.302.839 2.402 2 2.816v2.184h2v-2.184c1.161-.414 2-1.514 2-2.816 0-1.654-1.346-3-3-3-.552 0-1-.448-1-1s.448-1 1-1 1 .448 1 1h2c0-1.302-.839-2.402-2-2.816v-2.184h-2v2.184c-1.161.414-2 1.514-2 2.816 0 1.654 1.346 3 3 3 .552 0 1 .448 1 1s-.448 1-1 1z"/><path d="m12 21c-.552 0-1-.448-1-1h-2c0 1.302.839 2.402 2 2.816v2.184h2v-2.184c1.161-.414 2-1.514 2-2.816 0-1.654-1.346-3-3-3-.552 0-1-.448-1-1s.448-1 1-1 1 .448 1 1h2c0-1.302-.839-2.402-2-2.816v-2.184h-2v2.184c-1.161.414-2 1.514-2 2.816 0 1.654 1.346 3 3 3 .552 0 1 .448 1 1s-.448 1-1 1z"/><path d="m12 29c5.969 0 10.832-4.782 10.986-10.715 1.99 2.846 5.286 4.715 9.014 4.715s7.024-1.869 9.014-4.715c.154 5.933 5.017 10.715 10.986 10.715 6.065 0 11-4.935 11-11s-4.935-11-11-11c-3.728 0-7.024 1.869-9.014 4.715-.154-5.933-5.017-10.715-10.986-10.715s-10.832 4.782-10.986 10.715c-1.99-2.846-5.286-4.715-9.014-4.715-6.065 0-11 4.935-11 11s4.935 11 11 11zm40-20c4.963 0 9 4.037 9 9s-4.037 9-9 9-9-4.037-9-9 4.037-9 9-9zm-20-6c4.963 0 9 4.037 9 9s-4.037 9-9 9-9-4.037-9-9 4.037-9 9-9zm-20 6c4.963 0 9 4.037 9 9s-4.037 9-9 9-9-4.037-9-9 4.037-9 9-9z"/><path d="m41 27h-.14c-.75 0-1.483.21-2.12.608l-4.728 2.955c-.593-.349-1.275-.563-2.012-.563s-1.419.214-2.013.563l-4.727-2.955c-.637-.398-1.37-.608-2.12-.608h-.14c-2.206 0-4 1.794-4 4h-18v30h28c0 1.103.897 2 2 2h2c1.103 0 2-.897 2-2h28v-30h-18c0-2.206-1.794-4-4-4zm0 15c0 3.842-2.462 7.226-6 8.479v-12.424l3.74 2.337c.637.398 1.37.608 2.12.608h.083c.036.331.057.664.057 1zm-6 11h26v2h-26zm6-14h-.14c-.375 0-.741-.105-1.06-.304l-4.346-2.716c.176-.305.313-.632.404-.98h5.142c1.103 0 2 .897 2 2s-.897 2-2 2zm-1.199-9.696c.318-.199.684-.304 1.059-.304h.14c1.103 0 2 .897 2 2v2.556c-.591-.344-1.268-.556-2-.556h-5.142c-.091-.348-.228-.675-.403-.98zm-7.801 2.696c1.103 0 2 .897 2 2s-.897 2-2 2-2-.897-2-2 .897-2 2-2zm-3.858 3c.091.348.228.675.404.98l-4.346 2.716c-.319.199-.685.304-1.06.304h-.14c-1.103 0-2-.897-2-2s.897-2 2-2zm-5.085 6h.083c.75 0 1.483-.21 2.12-.608l3.74-2.338v12.424c-3.538-1.253-6-4.637-6-8.479 0-.335.021-.668.057-.999zm-.057-12h.14c.375 0 .741.105 1.06.304l4.346 2.717c-.175.305-.313.631-.403.98h-5.143c-.732 0-1.409.212-2 .556v-2.557c0-1.103.897-2 2-2zm-4 4v4c0 1.52.862 2.829 2.113 3.505-.067.494-.113.992-.113 1.495 0 3.664 1.834 6.986 4.692 9h-22.692v-18zm10 20v2h-26v-2zm-26 6v-2h26v2zm28 2v-23.142c.322.084.653.142 1 .142s.678-.058 1-.142v23.142zm4-2v-2h26v2zm26-26v18h-22.692c2.858-2.014 4.692-5.336 4.692-9 0-.503-.046-1.001-.113-1.495 1.251-.676 2.113-1.985 2.113-3.505v-4z"/><path d="m7 37h2v-2h-4v4h2z"/><path d="m9 47h-2v-2h-2v4h4z"/><path d="m57 39h2v-4h-4v2h2z"/><path d="m59 45h-2v2h-2v2h4z"/></g></svg>