<svg height="512" viewBox="0 0 512 512" width="512" xmlns="http://www.w3.org/2000/svg"><g id="outline"><path d="m128 200v32a8 8 0 0 0 8 8h32a8 8 0 0 0 8-8v-32a8 8 0 0 0 -8-8h-32a8 8 0 0 0 -8 8zm16 8h16v16h-16z"/><path d="m304 392h16v48h-16z"/><path d="m336 392h16v48h-16z"/><path d="m368 392h16v48h-16z"/><path d="m400 392h16v48h-16z"/><path d="m336 296h16v48h-16z"/><path d="m368 296h16v48h-16z"/><path d="m400 296h16v48h-16z"/><path d="m440 64h16v16h-16z"/><path d="m440 96h16v32h-16z"/><path d="m496 32h-480v16h376v57.013a32.056 32.056 0 0 0 -24 30.987v16a8 8 0 0 0 3.562 6.656l16.351 10.9-20.958 23.578-75.8-32.487a8 8 0 0 0 -3.155-.647h-136a7.984 7.984 0 0 0 -2.8.506h-.01l-128 48a8 8 0 0 0 -5.19 7.494v248a8 8 0 0 0 8 8h464a8 8 0 0 0 8-8v-192a8 8 0 0 0 -8-8v-8a24.036 24.036 0 0 0 -20.125-23.683l-55.788-62.761 16.351-10.9a8 8 0 0 0 3.562-6.656v-16a32.056 32.056 0 0 0 -24-30.987v-57.013h88zm-124.748 180.383 20.748 8.892v10.725h-38.185zm-12.628 35.617h33.376v16h-32v-8a23.885 23.885 0 0 0 -1.376-8zm-214.624 208h-48v-48h16v16h16v-16h16zm-16-64v-48h16v16h16v-16h16v48zm80 64h-48v-48h16v16h16v-16h16zm32 0h-16v-56a8 8 0 0 0 -8-8h-24v-56a8 8 0 0 0 -8-8h-64a8 8 0 0 0 -8 8v56h-24a8 8 0 0 0 -8 8v56h-16v-144h176zm32 0h-16v-152a8 8 0 0 0 -8-8h-192a8 8 0 0 0 -8 8v152h-16v-192h240zm0-208h-240v-26.456l120-45 120 45zm10.809-39.491-86.692-32.509h90.241l69.392 29.74-23.343 26.26h-44.407v-16a8 8 0 0 0 -5.191-7.491zm61.191 47.491v8h-16v-8a8 8 0 0 1 16 0zm-30.624-8a23.885 23.885 0 0 0 -1.376 8v8a8 8 0 0 0 -8 8v88h-16v-112zm118.624 208h-144v-80h144zm0-96h-112v-80h112zm48 96h-32v-80h32zm0-96h-32v-80h32zm-24-104a8 8 0 0 1 16 0v8h-16zm-5.873-19.565a23.98 23.98 0 0 0 -10.127 19.565v8h-32v-48a8 8 0 0 0 -4.849-7.353l-20.694-8.869 17.543-19.736zm-34.127-100.435v11.719l-16 10.666-16-10.666v-11.719a16 16 0 0 1 32 0z"/></g></svg>